<?xml version="1.0" standalone="no"?>
<!DOCTYPE svg PUBLIC "-//W3C//DTD SVG 1.1//EN" "http://www.w3.org/Graphics/SVG/1.1/DTD/svg11.dtd" >
<svg xmlns="http://www.w3.org/2000/svg" xmlns:xlink="http://www.w3.org/1999/xlink" version="1.1">
<metadata>
Created by FontForge 20160405 at Wed Sep 26 04:47:13 2018
 By www-data
a_AlbionicTitulInflated *Arsenal Company (c) 1997* FAX: (095)924-3775; e-Mail: arsenal@itco.msk.su; Phone: (095)924-5811 (Design and Featuring W.Chufarofsky &#38; M.Slutsker)
</metadata>
<defs>
<font id="a_AlbionicTitulInfl-Bold" horiz-adv-x="617" >
  <font-face 
    font-family="a_AlbionicTitulInfl"
    font-weight="700"
    font-stretch="normal"
    units-per-em="1000"
    panose-1="2 11 9 3 6 7 3 2 2 4"
    ascent="800"
    descent="-200"
    x-height="724"
    cap-height="722"
    bbox="-13 -176 1132 898"
    underline-thickness="63"
    underline-position="-273"
    unicode-range="U+0020-2219"
  />
<missing-glyph horiz-adv-x="638" 
d="M40 0v737h558v-737h-558zM80 40h478v657h-478v-657z" />
    <glyph glyph-name=".notdef" horiz-adv-x="638" 
d="M40 0v737h558v-737h-558zM80 40h478v657h-478v-657z" />
    <glyph glyph-name=".null" horiz-adv-x="0" 
 />
    <glyph glyph-name="nonmarkingreturn" horiz-adv-x="333" 
 />
    <glyph glyph-name="space" unicode=" " horiz-adv-x="307" 
 />
    <glyph glyph-name="exclam" unicode="!" horiz-adv-x="390" 
d="M288 570q0 -31 -4.5 -73.5t-12 -87t-17.5 -86t-20 -70.5q-15 -3 -40 -3q-24 0 -39 3q-12 24 -22.5 57.5t-17.5 71t-11.5 75t-4.5 70.5q0 12 0.5 22.5t1.5 20.5q-12 44 -14.5 63.5t2.5 32.5q-6 66 77 66q7 0 14.5 -0.5t14.5 -1.5q8 1 15.5 1.5t15.5 0.5q81 0 75 -66
q5 -10 5 -21t-4 -29t-14 -46zM195 175q102 9 93 -93q1 -5 1 -10.5v-9.5q0 -74 -74 -74h-10t-10 1q-96 -3 -93 93q-1 6 -1.5 11.5t-0.5 10.5q0 73 73 73q5 0 10.5 -0.5t11.5 -1.5z" />
    <glyph glyph-name="quotedbl" unicode="&#x22;" horiz-adv-x="328" 
d="M25 720q11 3 27 4t32 1t32 -1t26 -4q1 -7 1 -14.5v-14.5q0 -25 -3 -54t-8.5 -58t-13 -55t-16.5 -44q-8 -2 -20 -2t-19 2q-10 16 -18 38.5t-13.5 48t-8.5 52t-3 50.5q0 26 5 51zM186 720q10 4 26 6t32 2t32 -2t27 -6q0 -23 -3.5 -55.5t-9 -66t-13 -65t-14.5 -53.5
q-7 -2 -18.5 -2t-18.5 2q-9 18 -16.5 43.5t-13.5 54t-9 57t-3 53.5q0 9 0.5 16.5t1.5 15.5z" />
    <glyph glyph-name="numbersign" unicode="#" 
d="M379 501l31 181h115l-30 -181h102l-11 -60h-100l-29 -159h101l-8 -60h-102l-29 -180h-116l30 180h-97l-29 -180h-115l30 180h-102l9 60h102l27 159h-102l11 60h100l30 181h115l-30 -181h97zM246 282h97l28 159h-100z" />
    <glyph glyph-name="dollar" unicode="$" 
d="M308 674q8 -19 11.5 -45t3.5 -54t-3.5 -54t-11.5 -45q20 -4 50 -17t46 -24q47 -18 77.5 -40.5t47.5 -50t23.5 -60t5.5 -71.5q1 -9 1.5 -17.5t0.5 -16.5q0 -93 -56.5 -144t-142.5 -51q-19 0 -39 3q-7 -2 -14 0q3 -15 3 -40t-3 -40q-7 -2 -18.5 -2t-18.5 2q-1 7 -2.5 18
t-1.5 22t1.5 22t2.5 18q-215 11 -215 177v10t1 10q-2 18 4 48q18 5 47.5 12.5t47.5 12.5q-4 -24 -6.5 -43.5t-5.5 -34.5q17 -107 127 -135q-5 21 -7.5 50.5t-2.5 61.5t2.5 61.5t7.5 50.5q-212 37 -212 195q0 11 1 22.5t3 23.5q-1 7 -1 13v13q0 189 209 195q-1 6 -1.5 14.5
t-0.5 17.5t0.5 18t1.5 15q7 2 18.5 2t18.5 -2v-62q8 1 16.5 1h16.5q189 0 189 -184v-14.5t-1 -14.5q-16 -9 -44.5 -16t-46.5 -5q0 14 1 26t4 22q-1 117 -135 126zM271 490q-13 36 -13 90q0 55 13 91q-7 0 -9 2q-65 -9 -76 -86q9 -52 85 -97zM308 253q13 -42 13 -105
q0 -62 -13 -104q90 20 93 99q-16 59 -93 110z" />
    <glyph glyph-name="percent" unicode="%" horiz-adv-x="776" 
d="M174 726q158 10 158 -155v-15t-1 -16q1 -10 1.5 -20.5t0.5 -20.5q0 -146 -131 -146h-13.5t-14.5 1q-8 -1 -14 -1h-13q-131 0 -131 146q0 10 0.5 20.5t1.5 20.5q-2 188 156 186zM174 694q-29 -3 -39 -154q12 -152 39 -155q22 4 39 155q0 154 -39 154zM581 720
q-16 -74 -51 -172.5t-79.5 -199.5t-93 -193.5t-91.5 -154.5q-7 -2 -16.5 -3t-19.5 -1t-19 1t-16 3q14 74 48 173t78.5 200.5t94 193.5t94.5 153q7 2 16.5 3t19.5 1t19 -1t16 -3zM601 365q5 1 10.5 1h10.5q137 0 137 -154v-16t-1 -17q1 -7 1 -14v-14q0 -166 -158 -157
q-161 -5 -156 185q-1 187 156 186zM601 335q-21 -5 -39 -156q16 -149 39 -154q28 3 40 154q-20 152 -40 156z" />
    <glyph glyph-name="ampersand" unicode="&#x26;" 
d="M362 431q13 -16 28.5 -41t30.5 -52t27.5 -53.5t19.5 -46.5q22 45 38.5 102t30.5 126q1 3 1.5 8t1.5 8q4 2 11 2h14h14t11 -2q8 -38 8 -70q0 -121 -98 -231q14 -15 29.5 -38t30 -48t26 -50.5t17.5 -44.5q-39 -13 -96 -13t-96 13q-7 8 -15 22.5t-12 24.5q-56 -63 -126 -63
h-10.5t-10.5 1q-10 -1 -19 -1.5t-18 -0.5q-94 0 -137 48t-43 130v20.5t2 21.5q0 122 163 204q-56 71 -56 131q0 5 0.5 10.5t1.5 10.5q-1 6 -1 12v12q0 73 42 112t107 39q7 0 15 -0.5t15 -1.5q7 1 14.5 1.5t14.5 0.5q115 0 115 -114q0 -7 -0.5 -13.5t-1.5 -14.5
q2 -107 -89 -161zM356 101q-20 20 -42.5 52t-42.5 68t-35.5 71.5t-22.5 63.5q-40 -33 -48 -101q6 -25 18.5 -57.5t29.5 -61.5t37 -50t40 -24q34 6 66 39zM290 561q12 -13 26 -38t19 -42q44 44 59 100q-6 89 -72 94q-48 -2 -50 -56q4 -13 8.5 -27t9.5 -31z" />
    <glyph glyph-name="quotesingle" unicode="'" horiz-adv-x="166" 
d="M25 720q11 2 27 3t32 1t32 -1t26 -3q1 -8 1.5 -15.5t0.5 -16.5q0 -25 -3 -53.5t-9 -57t-13.5 -54t-16.5 -43.5q-8 -2 -20 -2t-19 2q-4 22 -9.5 54t-10.5 66t-10 66t-8 54z" />
    <glyph glyph-name="parenleft" unicode="(" horiz-adv-x="377" 
d="M338 782q2 -6 3 -14t1 -17t-1 -17t-3 -14q-131 -142 -133 -377q30 -220 133 -371q2 -4 2 -10v-12v-12t-2 -10q-301 78 -301 346q0 39 6 81q-4 307 295 427z" />
    <glyph glyph-name="parenright" unicode=")" horiz-adv-x="377" 
d="M40 -90q-2 6 -3 14t-1 17t1 17t3 14q130 145 132 377q-30 220 -132 371q-2 4 -2 10v12v12t2 10q301 -78 301 -346q0 -39 -6 -81q4 -306 -295 -427z" />
    <glyph glyph-name="asterisk" unicode="*" horiz-adv-x="466" 
d="M93 659q13 -3 30.5 -10.5t34.5 -16.5t33 -19t26 -19q-5 12 -10 30t-8.5 37.5t-6 38t-2.5 32.5q14 -3 24 -4.5t18 -2.5q19 0 44 7q0 -13 -1.5 -31.5t-4.5 -38t-7.5 -37.5t-9.5 -30q10 10 25.5 20.5t33 19.5t35 16t31.5 9q11 -47 25 -82q-18 -9 -47.5 -14.5t-56.5 -5.5
q-20 0 -35 3q11 -7 25 -19.5t28 -26.5t26.5 -28t19.5 -25q-34 -21 -68 -53q-9 10 -19 26t-19 34t-15.5 36t-8.5 32q-6 -12 -14 -29t-16.5 -34.5t-16.5 -34.5t-14 -29q-16 14 -33.5 26.5t-35.5 25.5q6 12 18 26.5t26 28.5t29 26t27 18q-7 -1 -14.5 -1.5t-15.5 -0.5
q-28 0 -59.5 5.5t-50.5 13.5q12 18 19 38.5t11 42.5z" />
    <glyph glyph-name="plus" unicode="+" horiz-adv-x="529" 
d="M518 401q3 -15 3 -40t-3 -40q-44 -13 -108 -13t-108 13q4 -21 7 -51t3 -62t-3 -62t-7 -51q-8 -3 -18 -4t-20 -1t-21 1t-18 4q-4 21 -5.5 51t-1.5 62t1.5 62t5.5 51q-20 -5 -48.5 -6.5t-58.5 -1.5t-59 1.5t-49 6.5q-2 7 -3 18t-1 22t1 22t3 18h215q-5 21 -7 51t-2 61t2 61
t7 51q17 5 39 5q21 0 38 -5q13 -45 13 -112t-13 -112q20 0 49 0.5t59 0.5t59 -0.5t49 -0.5z" />
    <glyph glyph-name="comma" unicode="," horiz-adv-x="288" 
d="M82 -148q-2 6 -3 15t-1 19t1 19t3 15q43 28 56 80q-88 -6 -80 90q-10 103 88 93q88 9 88 -84q0 -6 -0.5 -12.5t-1.5 -14.5q3 -172 -150 -220z" />
    <glyph glyph-name="hyphen" unicode="-" horiz-adv-x="276" 
d="M18 206q-3 13 -4 31.5t-1 37.5t1 37.5t4 31.5q22 7 54 10.5t66 3.5t66 -3.5t54 -10.5q4 -13 6 -31.5t2 -37.5t-2 -37.5t-6 -31.5q-22 -1 -54 -1.5t-66 -0.5t-66 0.5t-54 1.5z" />
    <glyph glyph-name="period" unicode="." horiz-adv-x="288" 
d="M144 175q95 7 88 -93q10 -103 -88 -93q-98 -11 -87 93q-1 94 87 93z" />
    <glyph glyph-name="slash" unicode="/" horiz-adv-x="421" 
d="M397 720q-12 -83 -43.5 -195.5t-74.5 -228.5t-91.5 -222t-93.5 -177q-7 -1 -16 -2.5t-19 -1.5t-19 1.5t-16 2.5q4 86 32.5 199.5t71 229.5t94.5 221t104 173h71z" />
    <glyph glyph-name="zero" unicode="0" 
d="M309 731q8 1 16.5 1h16.5q252 0 252 -306q0 -32 -3 -66q2 -23 3.5 -45t1.5 -42q0 -287 -242 -287h-21.5t-23.5 2q-12 -2 -24 -2h-23q-241 0 -241 285q0 21 1.5 43t3.5 46q-5 374 283 371zM309 673q-56 -5 -77 -313q23 -308 77 -314q41 9 76 314q-1 313 -76 313z" />
    <glyph glyph-name="one" unicode="1" 
d="M307 720q11 2 27 3t33 1t33 -1t27 -3q19 -68 29.5 -163.5t10.5 -196.5t-10.5 -196.5t-29.5 -163.5h-191q-10 51 -16 122.5t-6 148.5t6 148.5t16 122.5q-57 -46 -117 -46q-6 0 -11.5 0.5t-11.5 1.5q-3 9 -4 21.5t-1 26.5t1 26t4 21q148 16 211 127z" />
    <glyph glyph-name="two" unicode="2" 
d="M359 257q-8 -10 -20.5 -22t-26 -24t-27 -22t-24.5 -16q27 1 66 2.5t79 1.5t79.5 -1.5t66.5 -2.5q0 -17 0.5 -40t0.5 -47t-0.5 -47t-0.5 -39q-47 -9 -114.5 -14t-137.5 -5t-137 5t-114 14q-6 20 -6 52t6 52q10 17 27.5 38.5t37.5 42.5t41 39t37 29q35 53 64 94t51 74.5
t38 61t26 54.5q-9 124 -97 130q-104 -9 -116 -156q12 -37 18 -105q-10 3 -24 6.5t-28.5 7t-28.5 7t-24 6.5q-19 48 -13 80q-1 11 -1.5 20t-0.5 19q0 182 201 182q25 0 54 -3q14 2 27.5 3t27.5 1q39 0 74 -9.5t61.5 -30t41.5 -53t15 -79.5v-13.5t-1 -13.5q1 -33 -8.5 -63
t-32.5 -62.5t-61.5 -69.5t-95.5 -84z" />
    <glyph glyph-name="three" unicode="3" 
d="M92 569q-8 23 -12.5 59.5t-4.5 67.5v13t1 11q42 14 101 20.5t121 6.5t120.5 -6.5t100.5 -20.5q1 -15 -0.5 -35t-5 -41.5t-8 -41.5t-10.5 -33q-12 -12 -30.5 -26t-38.5 -28t-40.5 -25.5t-35.5 -18.5q92 -8 150.5 -69.5t56.5 -163.5q2 -116 -74 -184.5t-206 -66.5
q-11 -1 -21 -1.5t-20 -0.5q-204 0 -192 173q-3 9 -3 20q0 18 9 41q16 7 44 13.5t45 6.5q1 -43 -9 -79q8 -100 108 -107q113 9 128 194q-15 126 -110 138q-27 0 -54 -15q-2 -2 -7 -5t-8 -5q-10 8 -21.5 25t-15.5 30q19 22 50 46t66.5 45.5t70.5 38.5t63 24q-28 -1 -69 -1h-85
h-85t-69 1z" />
    <glyph glyph-name="four" unicode="4" 
d="M484 232q8 2 18 3t20 1q24 0 37 -4q1 -8 2.5 -18.5t1.5 -22.5t-1.5 -22.5t-2.5 -18.5q-13 -5 -37 -5q-10 0 -20 1t-18 4q3 -14 4 -34t1 -41t-1 -41t-4 -34q-18 -3 -43.5 -5t-52.5 -2t-52.5 2t-43.5 5q-4 14 -6 34t-2 41t2 41t6 34q-24 0 -57.5 -0.5t-68.5 -0.5t-68 0.5
t-57 0.5q-1 8 -2.5 19.5t-1.5 24.5t1.5 25l2.5 20q16 54 51 122.5t79 136t93 127t92 95.5q26 8 64 8t64 -8q2 -46 2 -110.5v-133.5v-133.5t-2 -110.5zM296 232q-2 26 -3 62t-1 75t1 75t3 62q-15 -26 -37 -63t-45 -75.5t-45.5 -74.5t-39.5 -61q16 3 38 4.5t45 1.5t45.5 -1.5
t38.5 -4.5z" />
    <glyph glyph-name="five" unicode="5" 
d="M66 331q-2 13 -3 29.5t-1 33.5q0 40 5 85t14 89.5t21 84t27 67.5q37 9 89 13t108 4t108 -4t89 -13q0 -15 -2 -35t-5.5 -41t-8 -41t-9.5 -34q-30 -1 -72.5 -2.5t-87.5 -1.5t-87.5 1.5t-72.5 2.5q-2 -15 -5 -35.5t-6.5 -42t-7 -42t-6.5 -34.5q66 60 142 60q7 0 13 -0.5
t13 -1.5q10 1 19.5 1.5t19.5 0.5q89 0 145.5 -52.5t56.5 -147.5q0 -9 -0.5 -18t-1.5 -19q1 -8 1 -14.5v-13.5q0 -104 -64.5 -164.5t-176.5 -60.5q-10 0 -19 0.5t-20 1.5q-17 -2 -33 -3t-31 -1q-171 0 -171 144q0 7 0.5 15t1.5 16q-2 13 -1 28.5t7 32.5q16 7 44 13t45 7
q-2 -45 -10 -79q0 -107 108 -107q112 10 129 194q-15 126 -110 138q-57 -14 -116 -74q-15 3 -39.5 9t-38.5 11z" />
    <glyph glyph-name="six" unicode="6" 
d="M537 534q-16 -8 -43.5 -13t-44.5 -3q3 17 4.5 32t3.5 28q-13 85 -85 97q-64 -5 -92.5 -75t-37.5 -186q45 64 114 64h10t10 -1q7 1 13.5 1.5t13.5 0.5q82 0 129 -55.5t47 -139.5q0 -9 -0.5 -18t-1.5 -18q1 -60 -16.5 -108t-50 -82.5t-78.5 -52.5t-101 -18q-10 -1 -18.5 -1
h-17.5q-256 0 -256 299q0 30 3 63q-2 20 -3.5 39t-1.5 37q0 68 16.5 125t50.5 98t84.5 64t118.5 23q10 0 19.5 -0.5t20.5 -1.5q11 2 21.5 2h20.5q155 0 155 -131v-12t-1 -13q0 -8 -1.5 -21.5t-4.5 -22.5zM318 403q-64 -6 -76 -167q5 -191 73 -192q69 0 71 203
q-12 151 -68 156z" />
    <glyph glyph-name="seven" unicode="7" 
d="M49 556q0 16 1.5 38t5 45t8 44.5t9.5 36.5q45 9 109 13.5t131 4.5t131 -4.5t109 -13.5q6 -21 6 -55t-6 -55q-173 -248 -174 -568q1 -4 1 -9.5v-11.5v-11.5t-1 -9.5q-45 -13 -109 -13q-63 0 -109 13q-3 25 -5 48.5t-2 46.5q0 277 241 461q-33 -1 -78.5 -1.5t-94.5 -0.5
t-94.5 0.5t-78.5 1.5z" />
    <glyph glyph-name="eight" unicode="8" 
d="M140 343q-91 56 -91 148v10.5t1 11.5q-4 55 12 96t46.5 68.5t73 41t90.5 13.5q9 0 17.5 -0.5t17.5 -1.5q11 2 20.5 2h19.5q84 0 133.5 -40.5t49.5 -110.5v-10t-1 -10q0 -86 -82 -135q138 -60 138 -176q0 -6 -0.5 -12.5t-1.5 -13.5q1 -8 1.5 -17t0.5 -16q0 -53 -18 -92
t-49.5 -65t-74 -38.5t-90.5 -12.5q-25 0 -51 3q-23 -4 -50 -4q-43 0 -82.5 11.5t-69.5 35t-48 58.5t-18 83v12t1 12q-2 99 105 149zM187 312q-64 -43 -66 -118q3 -32 20.5 -58t43 -45.5t55.5 -31.5t58 -15q25 4 48 15t41.5 26t31 33.5t15.5 37.5q-4 34 -32 63t-80 49
q-63 -2 -135 44zM400 449q34 45 45 93q-11 119 -143 131q-110 -15 -122 -94q4 -23 31 -47t77 -46q15 -2 39.5 -10t37.5 -15q13 -3 35 -12z" />
    <glyph glyph-name="nine" unicode="9" 
d="M77 186q16 8 43.5 13t45.5 3q-1 -17 -2.5 -32.5t-4.5 -28.5q13 -85 86 -97q62 4 91 64.5t38 197.5q-42 -64 -113 -64h-10.5t-10.5 1q-7 -1 -13.5 -1h-12.5q-82 0 -129.5 54t-47.5 139q0 9 0.5 18t1.5 19q0 59 17.5 107.5t50 82.5t78 52t100.5 18q9 1 18 1h18
q255 0 255 -299q0 -30 -3 -63q2 -19 3.5 -38.5t1.5 -37.5q0 -68 -16.5 -125t-50.5 -98t-84.5 -64t-117.5 -23q-10 0 -19.5 0.5t-20.5 1.5q-11 -1 -22 -1.5t-21 -0.5q-77 0 -115.5 34t-38.5 97v12t1 13q0 8 1.5 21.5t2.5 23.5zM297 316q29 3 50 39.5t27 127.5q-4 191 -72 192
q-35 0 -53 -45.5t-19 -156.5q12 -153 67 -157z" />
    <glyph glyph-name="colon" unicode=":" horiz-adv-x="288" 
d="M144 175q95 7 88 -93q10 -103 -88 -93q-98 -11 -87 93q-1 94 87 93zM144 506q94 6 88 -92q7 -99 -88 -93q-98 -9 -87 93q0 92 87 92z" />
    <glyph glyph-name="semicolon" unicode=";" horiz-adv-x="288" 
d="M82 -148q-2 6 -3 15t-1 19t1 19t3 15q43 28 56 80q-88 -6 -80 90q-10 103 88 93q88 9 88 -84q0 -6 -0.5 -12.5t-1.5 -14.5q3 -172 -150 -220zM144 506q96 7 88 -92q1 -6 1 -11v-10q0 -82 -89 -72q-93 -6 -87 93q-8 98 87 92z" />
    <glyph glyph-name="less" unicode="&#x3c;" horiz-adv-x="529" 
d="M90 229q-2 12 -3 29.5t-1 35.5t1 36t3 30q25 27 66 57.5t87 58.5t92 49.5t82 30.5v-157q-14 -13 -35.5 -29t-45.5 -30.5t-48 -27t-42 -18.5q19 -5 43.5 -17t48.5 -27t45 -31t34 -31q5 -15 7 -35.5t2 -42.5q0 -47 -9 -77q-31 18 -75 43.5t-90 53t-89 54t-73 45.5z" />
    <glyph glyph-name="equal" unicode="=" horiz-adv-x="529" 
d="M54 360q-3 15 -3 40q0 26 3 41q39 12 95 18t115 6t115.5 -6t95.5 -18q5 -17 5 -41q0 -23 -5 -40q-39 -2 -95.5 -2h-115.5h-115t-95 2zM54 185q-3 15 -3 41q0 25 3 40q39 8 95 12t115 4t115.5 -4t95.5 -12q5 -17 5 -40q0 -24 -5 -41q-39 0 -95.5 -0.5t-115.5 -0.5
t-115 0.5t-95 0.5z" />
    <glyph glyph-name="greater" unicode="&#x3e;" horiz-adv-x="529" 
d="M111 556q35 -12 80 -35t91.5 -51t88 -57t68.5 -53q4 -12 5.5 -30t1.5 -36t-1.5 -35.5t-5.5 -29.5q-31 -19 -74.5 -45t-89.5 -53.5t-89.5 -53.5t-74.5 -44q-6 30 -6 77q0 22 1.5 42.5t4.5 35.5q13 15 34 31t45 31t48.5 27t43.5 17q-19 5 -43.5 16.5t-48.5 26t-45 31
t-34 31.5q0 15 -0.5 36t-0.5 43t0.5 42.5t0.5 35.5z" />
    <glyph glyph-name="question" unicode="?" horiz-adv-x="518" 
d="M184 330q3 -15 3 -38q0 -24 -3 -39q-8 0 -18.5 -0.5t-22.5 -0.5t-22.5 0.5t-18.5 0.5q0 17 -0.5 40t-0.5 47t0.5 47t0.5 39q15 3 38 3q22 0 37 -3q25 -70 68 -78q58 6 68 129q-27 184 -86 196q-61 -4 -67 -96q5 -26 7 -73q-17 0 -43 7.5t-40 16.5q-8 46 -8 64
q-10 140 147 140h16t17 -1q12 1 24 1.5t22 0.5q186 0 186 -180v-20.5t-2 -21.5q2 -8 2 -17v-17q0 -38 -12 -72t-34 -59.5t-53.5 -40.5t-71.5 -15h-12t-12 1q-52 -1 -109 39zM148 175q104 11 93 -93q7 -100 -93 -93q-5 -1 -10.5 -1h-9.5q-74 0 -74 74v9.5t1 10.5
q-7 100 93 93z" />
    <glyph glyph-name="at" unicode="@" horiz-adv-x="789" 
d="M595 533l-49 -284q0 -1 -0.5 -3.5t-0.5 -4.5q0 -26 26 -26q33 0 55.5 21.5t36.5 52.5t20.5 67t6.5 64q0 56 -22 103t-59 81t-86 53.5t-103 19.5q-69 0 -124.5 -26.5t-94.5 -72t-60 -105.5t-21 -127q0 -63 21 -119.5t59 -98.5t91 -66.5t118 -24.5q93 0 218 58l21 -49
q-125 -61 -242 -61q-80 0 -151 25.5t-124 72.5t-84.5 113.5t-31.5 147.5q0 84 33 155t89 123.5t130.5 82t156.5 29.5q66 0 129 -22.5t112 -63.5t79 -98t30 -126q0 -61 -19 -110t-54.5 -84t-85 -54t-111.5 -19q-75 0 -84 39l-6 -5q-38 -33 -76 -33q-108 0 -108 128
q0 38 9.5 81t29.5 80.5t50.5 62t72.5 24.5q52 0 77 -55l8 44q27 0 57 2.5t61 7.5zM425 481q-19 0 -32.5 -31t-21 -70.5t-11 -77.5t-3.5 -53q0 -38 25 -38q23 0 37.5 26.5t22.5 62.5t11 72t3 54q0 55 -31 55z" />
    <glyph glyph-name="A" unicode="A" horiz-adv-x="562" 
d="M-7 0q7 71 28.5 168.5t50.5 198.5t62.5 195t64.5 158q17 3 40 5t48 2t48 -2t40 -5q38 -62 74 -155t63 -194.5t43 -199.5t14 -171h-202q-7 14 -14 34.5t-13 42t-10 43t-5 36.5q-19 -6 -47.5 -9t-57.5 -3t-57.5 3t-47.5 9q0 -16 -3.5 -37t-9.5 -43t-14 -42t-17 -34
q-7 0 -17.5 -0.5t-21.5 -0.5t-21.5 0.5t-17.5 0.5zM306 228q-17 28 -32.5 69t-27 86t-17.5 89t-4 76q-1 -32 -9.5 -75.5t-21 -88.5t-28 -86.5t-30.5 -69.5q16 6 38.5 8.5t46.5 2.5t46.5 -2.5t38.5 -8.5z" />
    <glyph glyph-name="B" unicode="B" horiz-adv-x="653" 
d="M403 0q-32 -6 -78 -9.5t-94 -3.5t-94 3.5t-78 9.5q-19 68 -29.5 163.5t-10.5 196.5t10.5 196.5t29.5 163.5q29 0 70 0.5t85 0.5t85 -0.5t70 -0.5q11 1 22 1.5t22 0.5q195 0 195 -158v-10.5t-1 -10.5q1 -7 1.5 -13.5t0.5 -13.5q0 -116 -147 -134q177 -12 177 -155
q0 -8 -0.5 -17t-1.5 -18q1 -195 -234 -192zM316 347q-5 -1 -12.5 -1.5t-15.5 -0.5t-15 0.5t-12 1.5q9 -27 13 -65t4 -79t-4 -79t-13 -65q5 1 13 1.5t16 0.5t15.5 -0.5t12.5 -1.5q96 15 114 135q-10 145 -116 153zM317 660q-14 -4 -28 -4t-28 4q6 -24 8.5 -57t2.5 -69
t-2.5 -69.5t-8.5 -57.5q6 1 14 1.5t17 0.5t17 -0.5t14 -1.5q83 2 86 131q-2 120 -92 122z" />
    <glyph glyph-name="C" unicode="C" horiz-adv-x="624" 
d="M519 266q17 -4 44 -13t44 -14q1 -5 1 -10.5v-11.5v-11.5t-1 -10.5q1 -7 1.5 -14t0.5 -15q0 -36 -13.5 -68.5t-41 -58t-70 -40.5t-99.5 -15q-23 0 -47 3q-11 -1 -21.5 -1.5t-21.5 -0.5q-268 0 -268 300q0 30 3 63q-6 42 -6 80q0 67 18 123.5t53 97t87 63.5t120 23
q25 0 52 -3q6 0 12 0.5t11 0.5q101 0 152.5 -54t51.5 -137v-11t-1 -11q-16 -9 -43.5 -19t-45.5 -13q-1 16 -0.5 28t3.5 21q0 137 -123 137q-103 -10 -130 -339q33 -273 143 -290q54 8 93.5 48.5t48.5 102.5q0 11 -2 29t-5 41z" />
    <glyph glyph-name="D" unicode="D" horiz-adv-x="683" 
d="M333 0q-25 0 -62 -0.5t-75 -0.5t-74 0.5t-62 0.5q-15 68 -22 163.5t-7 196.5t7 196.5t22 163.5q26 8 62 12t74 4t75 -4t62 -12q31 3 60 3q265 0 265 -286q0 -18 -1 -37.5t-3 -40.5q3 -362 -321 -359zM314 654q-4 -2 -11 -2h-15h-15t-11 2q20 -56 30 -134t10 -160
t-10 -161t-30 -134q4 1 11 1h15h15t11 -1q32 2 54 12.5t37 41t24 88t15 154.5q-8 94 -18.5 150t-25.5 86.5t-36 41.5t-50 15z" />
    <glyph glyph-name="E" unicode="E" horiz-adv-x="555" 
d="M59 0q-13 68 -20 163.5t-7 196.5t7 196.5t20 163.5q42 14 102 20.5t123 6.5t123.5 -6.5t102.5 -20.5q3 -14 3 -36t-3 -36q-23 -9 -56 -13t-68 -4t-68.5 4t-56.5 13q4 -21 5.5 -50.5t1.5 -61.5t-1.5 -61.5t-5.5 -50.5q18 4 44.5 6t54.5 2t54.5 -2t44.5 -6q1 -6 2.5 -14.5
t1.5 -17.5t-1.5 -18l-2.5 -15h-198q6 -27 9 -65t3 -78t-3 -78.5t-9 -65.5q27 8 66 12t79 4t79.5 -4t66.5 -12q4 -12 4 -36t-4 -36q-46 -2 -111.5 -2h-134.5h-134.5t-112.5 2z" />
    <glyph glyph-name="F" unicode="F" horiz-adv-x="520" 
d="M59 0q-15 68 -23 163.5t-8 196.5t8 196.5t23 163.5q42 15 102.5 23t124.5 8t124.5 -8t102.5 -23q1 -7 1.5 -16.5t0.5 -19.5t-0.5 -19.5t-1.5 -16.5q-24 -4 -57.5 -6.5t-68.5 -2.5t-68.5 2.5t-57.5 6.5q13 -46 13 -112q0 -67 -13 -112h185q3 -12 3 -32q0 -21 -3 -33
q-36 -11 -92 -11q-26 0 -51 3t-42 8q11 -34 16 -81.5t5 -97.5t-5 -98t-16 -82q-19 0 -46 -0.5t-55 -0.5t-55 0.5t-46 0.5z" />
    <glyph glyph-name="G" unicode="G" horiz-adv-x="658" 
d="M432 359q-18 -6 -50 -6t-50 6q-3 12 -3 33q0 20 3 32q27 4 64.5 7t77.5 3t78 -3t65 -7q3 -40 4 -96t1 -116t-1 -116t-4 -96h-64q-6 8 -13 24t-9 26q-60 -67 -137 -67q-21 0 -40 4q-10 -1 -20.5 -1.5t-20.5 -0.5q-137 0 -211 81t-74 232v27.5t2 27.5q-6 41 -6 77
q0 68 18.5 124t55.5 96.5t90.5 63t124.5 22.5q14 0 28.5 -1t29.5 -3q49 4 91 -13t71.5 -47t44.5 -69.5t12 -80.5q-16 -10 -43.5 -20.5t-45.5 -13.5q-6 17 0 34q0 70 -33.5 107.5t-86.5 37.5q-33 -3 -55.5 -13t-37.5 -42.5t-24.5 -95t-15.5 -168.5q8 -97 18 -154t22 -87.5
t27 -40.5t34 -13q33 5 55.5 26.5t27.5 59.5q-1 21 -1.5 50t-0.5 60t0.5 60t1.5 50z" />
    <glyph glyph-name="H" unicode="H" horiz-adv-x="686" 
d="M425 0q-7 34 -10 82t-3 98t3 97.5t10 81.5q-33 -10 -83 -10q-49 0 -82 10q8 -34 12 -81.5t4 -97.5t-4 -98t-12 -82q-39 -14 -100 -14q-28 0 -55 3.5t-46 10.5q-12 68 -18 163.5t-6 196.5t6 196.5t18 163.5q40 8 101 8q60 0 100 -8q8 -28 12 -67t4 -81t-4 -81t-12 -67h165
q-6 28 -9 67t-3 81t3 81t9 67q19 6 46 8.5t55 2.5t54.5 -2.5t45.5 -8.5q21 -68 31.5 -163.5t10.5 -196.5t-10.5 -196.5t-31.5 -163.5q-19 0 -45.5 -0.5t-54.5 -0.5t-55 0.5t-46 0.5z" />
    <glyph glyph-name="I" unicode="I" horiz-adv-x="321" 
d="M60 0q-18 68 -26.5 163.5t-8.5 196.5t8.5 196.5t26.5 163.5q20 2 47 2h55h55t46 -2q15 -68 22.5 -163.5t7.5 -196.5t-7.5 -196.5t-22.5 -163.5q-43 -10 -101 -10q-59 0 -102 10z" />
    <glyph glyph-name="J" unicode="J" horiz-adv-x="432" 
d="M175 158q-11 52 -17 127t-6 154t6 154t17 127q19 4 46 6.5t55 2.5t54.5 -2.5t45.5 -6.5q6 -44 9.5 -105.5t3.5 -126.5t-3.5 -126.5t-9.5 -104.5q2 -21 3.5 -40.5t1.5 -36.5q0 -198 -158 -198q-7 0 -15.5 0.5t-16.5 1.5q-8 -1 -15.5 -1.5t-15.5 -0.5q-35 0 -66.5 11
t-54.5 32.5t-35 53t-8 71.5q-4 13 -4 30q0 34 20 73q13 7 35.5 14t37.5 7q-6 -37 -10.5 -64t-5.5 -43q10 -112 67 -118q29 5 39 109z" />
    <glyph glyph-name="K" unicode="K" horiz-adv-x="668" 
d="M261 399q21 31 52 74.5t64.5 88.5t66.5 87t57 71q9 2 21 3t26 1t25.5 -1t20.5 -3q-12 -25 -32.5 -57t-44.5 -64t-49 -60t-46 -46q36 -40 75.5 -102.5t75.5 -132t64.5 -138t40.5 -120.5q-21 -3 -51.5 -4.5t-61.5 -1.5t-61.5 1.5t-51.5 4.5q-26 24 -52.5 63.5t-49 83.5
t-39 88.5t-21.5 79.5q-4 -7 -13 -18t-16 -15q9 -26 14 -63.5t5 -77.5t-5 -77.5t-14 -63.5q-43 -10 -101 -10t-101 10q-3 68 -5 163.5t-2 196.5t2 196.5t5 163.5q19 4 46 6t55 2t55 -2t46 -6q7 -30 11.5 -72.5t4.5 -87.5t-4.5 -88t-11.5 -73z" />
    <glyph glyph-name="L" unicode="L" horiz-adv-x="529" 
d="M60 0q-21 68 -31.5 163.5t-10.5 196.5t10.5 196.5t31.5 163.5q19 7 45.5 10.5t55.5 3.5t55.5 -3.5t45.5 -10.5q16 -61 24 -146.5t8 -177.5t-8 -177.5t-24 -146.5q27 2 64.5 2.5t77.5 0.5t78 -0.5t65 -2.5q3 -14 3 -36t-3 -36q-46 -12 -110.5 -18t-132.5 -6t-133 6
t-111 18z" />
    <glyph glyph-name="M" unicode="M" horiz-adv-x="764" 
d="M387 264q4 45 17 106.5t30 126t37.5 124t39.5 99.5q18 3 44 4.5t53 1.5t53 -1.5t44 -4.5q3 -68 4 -163.5t1 -196.5t-1 -196.5t-4 -163.5q-18 -2 -44 -2h-53h-53t-44 2q-11 47 -16 113.5t-5 136.5q0 31 1 60.5t3 58.5q-9 -48 -22 -100t-29 -101.5t-33 -92.5t-35 -75
q-21 -3 -56 -3t-56 3q-31 44 -58 113t-47 143q1 -71 -7.5 -139.5t-25.5 -116.5q-12 -3 -34 -3t-34 3q-3 68 -5 163.5t-2 196.5t2 196.5t5 163.5q19 4 46 6t56 2t56 -2t46 -6q23 -40 45 -99t40 -123t29 -126t12 -108zM127 486h-2q1 -2 1 -3t1 -2v5zM509 495v-12q1 3 1 6t1 6
h-2z" />
    <glyph glyph-name="N" unicode="N" horiz-adv-x="624" 
d="M501 228q-11 46 -15.5 111.5t-4.5 134.5t4.5 134.5t15.5 111.5q12 3 33 3q22 0 34 -3q10 -68 15 -163.5t5 -196.5t-5 -196.5t-15 -163.5q-15 -5 -35.5 -7.5t-42.5 -2.5t-42.5 2.5t-35.5 7.5q-38 32 -79.5 84t-79.5 111t-69.5 120.5t-49.5 112.5q11 -41 16.5 -93t5.5 -106
q0 -65 -7.5 -125.5t-23.5 -103.5q-12 -3 -35 -3q-22 0 -34 3q-3 68 -5 163.5t-2 196.5t2 196.5t5 163.5q12 3 29 4t35 1t34.5 -1t28.5 -4q42 -38 90 -99.5t92.5 -130.5t81 -138.5t54.5 -123.5zM125 456q5 -15 8 -26q-2 7 -4.5 13.5t-3.5 12.5z" />
    <glyph glyph-name="O" unicode="O" horiz-adv-x="678" 
d="M345 732q12 1 23.5 1.5t21.5 0.5q260 0 260 -300q0 -34 -3 -73q8 -380 -309 -374q-10 -1 -20 -1.5t-19 -0.5q-272 0 -272 318q0 31 3 66q-3 36 -3 69q0 296 270 296q11 0 23 -0.5t25 -1.5zM338 675q-22 -1 -38 -11t-27.5 -42t-19 -93.5t-12.5 -167.5q11 -105 21.5 -166
t22 -93.5t24.5 -43t29 -13.5q16 3 30.5 13.5t26.5 43t22.5 93.5t19.5 166q-11 104 -22 164.5t-23 93t-25.5 43t-28.5 13.5z" />
    <glyph glyph-name="P" unicode="P" horiz-adv-x="623" 
d="M262 295q10 -28 15 -67t5 -80t-5 -80.5t-15 -67.5q-19 -6 -45.5 -9t-55.5 -3t-55.5 3t-45.5 9q-24 68 -36.5 163.5t-12.5 196.5t12.5 196.5t36.5 163.5q28 8 68 11t82 3t81 -3t68 -11q260 4 256 -211q1 -7 1 -13.5v-12.5q0 -190 -231 -190q-13 0 -26 0.5t-27 1.5
q-7 -1 -16 -2.5t-19 -1.5t-19 1.5t-16 2.5zM307 654q-5 0 -11 -0.5t-12 -0.5t-12 0.5t-10 0.5q6 -27 9.5 -66t3.5 -80t-3.5 -80.5t-9.5 -66.5q4 1 10 1h12h12t11 -1q96 11 110 152q-7 135 -110 141z" />
    <glyph glyph-name="Q" unicode="Q" horiz-adv-x="673" 
d="M343 732q311 6 303 -371q2 -19 3 -36t1 -34q0 -217 -164 -273q32 -60 61 -65q17 2 29 10.5t13 29.5q-1 6 -1 14.5t-2 15.5q11 -1 28 -7t25 -14q3 -10 4.5 -22.5t-0.5 -18.5q1 -6 1.5 -12t0.5 -11q0 -43 -26 -69.5t-76 -26.5h-11t-12 1q-130 -13 -144 144h-19
q-13 -1 -25 -1.5t-23 -0.5q-142 0 -212.5 75.5t-70.5 241.5q0 33 3 67q-3 36 -3 69q0 296 269 296q11 0 23 -0.5t25 -1.5zM336 675q-15 -3 -27.5 -13.5t-24 -43t-22.5 -93t-22 -164.5q4 -72 6.5 -123.5t1.5 -85.5q2 4 6 6q23 25 36.5 39.5t42.5 13.5q55 7 83 -64q1 -1 2 -4
t2 -5h3l0.5 25t1.5 60t3.5 73.5t5.5 64.5q-2 107 -7.5 169t-17 94.5t-29.5 41.5t-44 9zM319 134q-14 -1 -27.5 -13t-27.5 -30q11 -29 29.5 -37.5t42.5 -8.5q10 1 18.5 2.5t14.5 2.5v5q-1 39 -19 58.5t-31 20.5z" />
    <glyph glyph-name="R" unicode="R" horiz-adv-x="658" 
d="M262 346q2 -32 2 -78v-95v-95t-2 -78q-19 -2 -45.5 -2h-55.5h-55.5t-45.5 2q-15 68 -23 163.5t-8 196.5t8 196.5t23 163.5q28 6 67 9t81 3t81.5 -3t67.5 -9q11 1 23 1.5t22 0.5q106 0 163 -50t50 -139q9 -141 -149 -170q38 -9 64 -19.5t42 -25t22.5 -34.5t6.5 -50t-6 -74
q9 -58 21.5 -98t16.5 -62q-21 -8 -49.5 -11.5t-59.5 -3.5t-60 3.5t-50 11.5q-11 20 -18 42t-7 49q0 15 3 33q0 9 -0.5 22.5t-0.5 26.5t0.5 26.5t0.5 22.5q-5 63 -27.5 91.5t-67.5 32.5q-17 -4 -35 0zM301 654q-20 -2 -39 0q5 -23 7.5 -56t2.5 -68t-2.5 -68.5t-7.5 -56.5h39
q107 8 116 125q-7 116 -116 124z" />
    <glyph glyph-name="S" unicode="S" horiz-adv-x="572" 
d="M513 519q-17 -7 -46 -13t-47 -6q6 30 6 49q-9 116 -148 126q-109 -7 -115 -86q1 -66 130 -112q255 -84 249 -264q1 -7 1 -13.5v-13.5q0 -93 -60.5 -146.5t-163.5 -53.5h-16.5t-16.5 1q-11 -1 -22.5 -1.5t-21.5 -0.5q-214 0 -214 184v12t1 13q-4 16 2 42q17 7 47.5 13.5
t49.5 7.5q2 -23 -2.5 -43.5t-9.5 -35.5q15 -118 148 -134q106 17 119 97q-13 59 -141 126q-210 74 -206 250q-1 6 -1 11.5v10.5q0 48 16.5 84.5t45.5 61t68 37t85 12.5q8 0 16.5 -0.5t17.5 -1.5q11 1 21.5 1.5t20.5 0.5q189 0 189 -180q0 -8 -0.5 -17t-1.5 -18z" />
    <glyph glyph-name="T" unicode="T" horiz-adv-x="539" 
d="M-7 648q-1 7 -1.5 16.5t-0.5 19.5t0.5 19.5t1.5 16.5q53 18 126 27t151 9t151 -9t126 -27q5 -15 5 -36t-5 -36q-17 -6 -39 -8.5t-46 -2.5t-47 2.5t-39 8.5q16 -61 24 -146.5t8 -177.5t-8 -177.5t-24 -146.5q-20 -2 -48 -2h-58h-59t-48 2q-13 61 -20 146.5t-7 177.5
t7 177.5t20 146.5q-17 -4 -39 -6t-46 -2t-46 2t-39 6z" />
    <glyph glyph-name="U" unicode="U" horiz-adv-x="630" 
d="M515 236q-10 45 -14.5 109.5t-4.5 132.5t4.5 132.5t14.5 109.5q12 3 33 3t33 -3q7 -45 10 -109.5t3 -132.5t-3 -132.5t-10 -109.5q3 -28 3 -53q0 -199 -206 -199q-14 0 -29.5 1t-31.5 3q-29 -3 -54 -3q-213 0 -213 204q0 23 3 47q-17 45 -25 109.5t-8 132.5t8 132.5
t25 109.5q42 10 101 10q28 0 54.5 -3t45.5 -7q2 -46 3 -111t1 -134t-1 -134t-3 -111q3 -45 10.5 -75.5t22 -49.5t36.5 -28t54 -12q121 13 138 171z" />
    <glyph glyph-name="V" unicode="V" horiz-adv-x="553" 
d="M198 720q25 -45 48 -110t42 -136.5t31 -142.5t15 -127q0 57 12 129t33 143.5t48 136t57 107.5q8 2 18 3t20 1t20 -1t18 -3q1 -10 1 -20.5v-21.5q0 -76 -16.5 -170.5t-44.5 -188t-64.5 -178t-76.5 -141.5q-17 -4 -41 -6.5t-49 -2.5t-49 2.5t-41 6.5q-21 67 -47 162
t-52 196.5t-49 197.5t-37 164q20 4 47 6t55 2t55 -2t47 -6z" />
    <glyph glyph-name="W" unicode="W" horiz-adv-x="813" 
d="M629 282q9 42 23 100.5t29.5 120t31 119.5t27.5 98q8 0 18.5 0.5t21.5 0.5t21.5 -0.5t18.5 -0.5q-3 -72 -20.5 -169.5t-44 -199t-59.5 -195t-66 -156.5q-12 -3 -30 -4t-36 -1t-35.5 1t-29.5 4q-18 34 -35.5 85t-30.5 106.5t-21.5 108.5t-8.5 92q-4 -38 -14 -91t-24 -108
t-29.5 -106.5t-30.5 -86.5q-12 -4 -30 -6.5t-37 -2.5t-36.5 2.5t-29.5 6.5q-35 59 -67.5 145.5t-57.5 181.5t-39.5 189.5t-14.5 169.5v17.5t1 16.5q20 7 47 10.5t55 3.5t55 -3.5t47 -10.5q20 -39 39 -95.5t33.5 -118t23 -121t7.5 -102.5q8 42 21 100t28 119.5t30 119.5
t27 98q11 3 27 4t32 1t32 -1t27 -4q20 -39 39 -96t34 -118.5t23.5 -120.5t7.5 -103z" />
    <glyph glyph-name="X" unicode="X" horiz-adv-x="595" 
d="M340 485q11 23 28.5 54.5t36.5 64.5t37.5 64t32.5 52q8 2 19.5 3t23.5 1t24 -1t20 -3q-10 -33 -31 -75.5t-46.5 -86t-52.5 -83t-50 -64.5q30 -33 64.5 -85.5t65.5 -110t55.5 -114.5t35.5 -101q-21 -3 -51 -4.5t-62 -1.5t-61.5 1.5t-50.5 4.5q-21 20 -42.5 51t-40 66.5
t-32 71.5t-17.5 64q-6 -28 -22 -64t-37 -71.5t-44.5 -66.5t-44.5 -51q-18 -6 -46 -6q-27 0 -45 6q11 36 33 82t49.5 92.5t57.5 87.5t57 67q-22 36 -51 87.5t-58.5 106.5t-56 107t-44.5 90q21 4 50.5 6.5t61.5 2.5t61 -2.5t50 -6.5q17 -19 36 -48.5t36.5 -62.5t31 -66
t19.5 -58z" />
    <glyph glyph-name="Y" unicode="Y" horiz-adv-x="531" 
d="M338 373q4 36 17 83.5t31 96t39 93t41 74.5q8 2 18.5 2h21.5h21.5t17.5 -2q-1 -48 -16 -111t-39 -127t-53.5 -121.5t-60.5 -94.5q16 -53 16 -133t-16 -133q-39 -14 -100 -14q-28 0 -55 3.5t-46 10.5q-13 54 -13 133t13 133q-20 42 -46 101.5t-52 123.5t-50 124.5
t-39 104.5q20 4 47.5 6.5t56.5 2.5t57.5 -2.5t47.5 -6.5q22 -29 45 -73.5t42.5 -93.5t34 -96.5t19.5 -83.5z" />
    <glyph glyph-name="Z" unicode="Z" horiz-adv-x="570" 
d="M53 648q-3 14 -3 36t3 36q48 12 115.5 17.5t138.5 5.5t138.5 -5.5t115.5 -17.5q1 -6 1 -15v-18v-18t-1 -15q-12 -66 -46.5 -148.5t-81.5 -164.5t-101 -153.5t-104 -115.5q29 9 70.5 13.5t84.5 4.5t84.5 -4.5t70.5 -13.5q4 -12 4 -36t-4 -36q-50 -14 -120.5 -20t-145.5 -6
t-146.5 6t-120.5 20q0 7 -0.5 16.5t-0.5 19.5t0.5 19.5t0.5 16.5q19 61 56.5 140.5t84 160.5t96.5 154.5t93 120.5q-27 -7 -64 -10.5t-77 -3.5t-77 3.5t-64 10.5z" />
    <glyph glyph-name="bracketleft" unicode="[" horiz-adv-x="510" 
d="M144 780q26 4 61 6t73 2q79 0 133 -8q1 -6 2.5 -14t1.5 -16t-1.5 -16t-2.5 -14q-25 -7 -57 -7q-33 0 -57 7q24 -68 36.5 -163.5t12.5 -196.5t-12.5 -196.5t-36.5 -163.5q11 3 26 4t31 1t31 -1t26 -4q0 -6 0.5 -14t0.5 -16t-0.5 -16t-0.5 -14q-25 -6 -60 -8.5t-73 -2.5
t-73 2.5t-61 8.5q-20 79 -30 190.5t-10 229.5t10 229.5t30 190.5z" />
    <glyph glyph-name="backslash" unicode="\" horiz-adv-x="421" 
d="M24 720q7 2 16.5 3t19.5 1t19 -1t16 -3q32 -76 74 -184.5t84.5 -224t81 -225.5t62.5 -189q-12 -3 -35 -3t-35 3q-32 47 -65.5 110t-65.5 136t-60.5 151t-51.5 154t-38.5 146t-21.5 126z" />
    <glyph glyph-name="bracketright" unicode="]" horiz-adv-x="510" 
d="M366 780q12 -79 17.5 -190.5t5.5 -229.5t-5.5 -229.5t-17.5 -190.5q-26 -9 -61 -13t-73 -4t-73 4t-60 13q-1 6 -2.5 14t-1.5 16t1.5 16t2.5 14q22 8 57 8t57 -8q-18 68 -26.5 163.5t-8.5 196.5t8.5 196.5t26.5 163.5q-11 0 -26 -0.5t-31 -0.5t-31 0.5t-26 0.5
q-1 6 -1.5 14t-0.5 16t0.5 16t1.5 14q55 13 133 13q79 0 134 -13z" />
    <glyph glyph-name="asciicircum" unicode="^" horiz-adv-x="529" 
d="M322 448q-11 14 -21 35t-18 44.5t-13 46.5t-5 40q-1 -17 -6 -40t-13.5 -46.5t-18.5 -44.5t-20 -35q-12 -4 -29.5 -6.5t-35.5 -2.5q-40 0 -64 9q3 28 13.5 65.5t25 76t32 73t33.5 57.5q15 1 37 1.5t45 0.5t45 -0.5t37 -1.5q15 -23 32 -58t31.5 -73.5t25.5 -75.5t15 -65
q-24 -6 -64 -6t-64 6z" />
    <glyph glyph-name="underscore" unicode="_" horiz-adv-x="512" 
d="M518 -150q-50 -13 -119 -19.5t-143 -6.5t-143 6.5t-119 19.5q0 8 -0.5 20t-0.5 25t0.5 25t0.5 20q50 10 119 16t143 6t143 -6t119 -16q2 -8 3 -20t1 -25t-1 -25t-3 -20z" />
    <glyph glyph-name="grave" unicode="`" horiz-adv-x="243" 
d="M140 734q10 -11 21.5 -29t21.5 -37.5t18 -38.5t11 -34q-4 0 -10 -0.5t-12 -0.5t-12 0.5t-10 0.5q-19 9 -42.5 26t-47.5 36.5t-44.5 40t-33.5 36.5q14 3 32 5t38 2t38 -2t32 -5z" />
    <glyph glyph-name="a" unicode="a" horiz-adv-x="562" 
d="M-7 0q9 70 31.5 167.5t51.5 198.5t61.5 195.5t61.5 158.5q17 6 40 8.5t48 2.5t48 -2.5t40 -8.5q37 -60 72 -148.5t62 -186t43.5 -193.5t16.5 -171v-21q-40 -14 -101 -14t-101 14q-8 14 -15.5 34t-13.5 42t-9.5 43t-3.5 37q-19 -2 -47.5 -2h-57.5h-57.5t-47.5 2
q-1 -15 -5 -36.5t-10 -43t-14 -42t-15 -34.5q-7 -2 -17.5 -3t-21.5 -1t-21.5 1t-17.5 3zM306 228q-13 25 -25.5 65.5t-23.5 86t-19 90.5t-11 78h-2q-2 -32 -10.5 -75.5t-21 -88.5t-27.5 -86.5t-30 -69.5q16 4 38.5 6t46.5 2t46.5 -2t38.5 -6z" />
    <glyph glyph-name="b" unicode="b" horiz-adv-x="653" 
d="M403 0q-32 -11 -78 -16.5t-94 -5.5t-94 5.5t-78 16.5q-21 68 -31.5 163.5t-10.5 196.5t10.5 196.5t31.5 163.5q29 10 70 15.5t85 5.5t85 -5.5t70 -15.5q27 3 52 3q187 0 187 -154v-12.5t-1 -13.5q3 -128 -145 -161q176 -18 176 -164v-12.5t-1 -13.5q1 -8 1 -14.5v-13.5
q0 -166 -190 -166q-10 0 -21.5 0.5t-23.5 1.5zM316 347q-5 0 -12.5 -0.5t-15.5 -0.5t-15 0.5t-12 0.5q6 -27 9 -65t3 -79t-3 -79t-9 -65q5 1 13 1.5t16 0.5t15.5 -0.5t12.5 -1.5q102 11 114 135q-9 147 -116 153zM317 660q-5 -2 -13 -2h-15h-15t-13 2v-253q6 1 14 1.5
t17 0.5t17 -0.5t14 -1.5q77 6 86 131q-2 120 -92 122z" />
    <glyph glyph-name="c" unicode="c" horiz-adv-x="624" 
d="M519 266q17 -2 44.5 -10.5t43.5 -16.5q1 -5 1 -10.5v-11.5v-11.5t-1 -10.5q1 -7 1.5 -13t0.5 -13q0 -36 -13.5 -69.5t-42 -58.5t-71 -40.5t-101.5 -15.5q-11 0 -21.5 0.5t-21.5 1.5h-22q-287 0 -287 326v17t1 18q0 7 -0.5 14t-0.5 14q0 77 21.5 143.5t62.5 115t102 75
t139 22.5q22 3 43 3q92 0 139 -48.5t47 -125.5q0 -20 -3 -41q-14 -12 -42 -22t-47 -10q2 16 2.5 28t0.5 21q-3 134 -123 137q-100 -12 -130 -339q8 -287 143 -290q57 5 96.5 46t45.5 105q-8 24 -7 70z" />
    <glyph glyph-name="d" unicode="d" horiz-adv-x="683" 
d="M333 0q-25 -2 -62 -2.5t-75 -0.5t-74 0.5t-62 2.5q-16 68 -24 163.5t-8 196.5t8 196.5t24 163.5q26 2 62 3t74 1t75 -1t62 -3q11 1 20.5 1h19.5q283 0 283 -309q0 -13 -0.5 -26t-1.5 -27q2 -19 3 -38t1 -37q0 -287 -268 -287q-27 0 -57 3zM314 654q-12 -2 -26 -2t-26 2
q6 -56 9 -134t3 -160t-3 -161t-9 -134q12 4 26 4t26 -4q27 5 46.5 16t34.5 42t27 87t22 151q0 98 -6.5 156t-21.5 88.5t-40 39.5t-62 9z" />
    <glyph glyph-name="e" unicode="e" horiz-adv-x="555" 
d="M59 0q-13 68 -20.5 163.5t-7.5 196.5t7.5 196.5t20.5 163.5q42 12 102 17.5t123 5.5t123.5 -5.5t102.5 -17.5q1 -7 1.5 -16.5t0.5 -19.5t-0.5 -19.5t-1.5 -16.5q-23 -3 -56 -4t-68 -1t-68.5 1t-56.5 4q7 -21 11 -50.5t4 -61.5t-4 -61.5t-11 -50.5q18 7 44.5 10.5
t54.5 3.5t54.5 -3.5t44.5 -10.5v-65q-18 -1 -44.5 -1.5t-54.5 -0.5t-54.5 0.5t-44.5 1.5q6 -27 9.5 -65t3.5 -78q0 -86 -13 -144q27 2 66 3t79 1t79.5 -1t66.5 -3q3 -14 3 -36t-3 -36q-46 -14 -111.5 -21t-134.5 -7t-134.5 7t-112.5 21z" />
    <glyph glyph-name="f" unicode="f" horiz-adv-x="520" 
d="M59 0q-7 68 -11.5 163.5t-4.5 196.5t4.5 196.5t11.5 163.5q42 4 102.5 7t124.5 3t124.5 -3t102.5 -7q5 -15 5 -36t-5 -36q-24 -9 -57.5 -13t-68.5 -4t-68.5 4t-57.5 13v-224q17 2 42 2h51h50.5t41.5 -2q3 -12 3 -32q0 -21 -3 -33q-17 -1 -41.5 -1.5t-50.5 -0.5t-51 0.5
t-42 1.5q7 -34 10 -81.5t3 -97.5t-3 -98t-10 -82q-19 -6 -46 -8.5t-55 -2.5t-55 2.5t-46 8.5z" />
    <glyph glyph-name="g" unicode="g" horiz-adv-x="658" 
d="M432 359q-9 -1 -22.5 -1.5t-27.5 -0.5t-27.5 0.5t-22.5 1.5q0 6 -0.5 15t-0.5 18t0.5 17.5t0.5 14.5q27 9 64.5 13.5t77.5 4.5t78 -4.5t65 -13.5q8 -40 12.5 -96t4.5 -116t-4.5 -116t-12.5 -96q-6 -2 -14.5 -2h-17.5h-17.5t-14.5 2q-6 8 -13 24t-9 26q-63 -66 -141 -66
q-18 0 -36 3q-6 0 -11.5 -0.5t-10.5 -0.5q-145 0 -224 88t-79 249q0 7 0.5 15t0.5 15t-0.5 13.5t-0.5 13.5q0 77 22.5 143t66 113.5t107 73t146.5 22.5q8 1 15.5 1.5t15.5 0.5q42 0 77 -15t60 -40t39 -58t14 -69v-15t-2 -15q-14 -13 -42 -23.5t-47 -10.5v34q-1 68 -34.5 106
t-85.5 39q-32 -3 -54.5 -13.5t-37.5 -43t-24.5 -94.5t-16.5 -168q2 -99 8.5 -157t18.5 -88.5t30.5 -39.5t43.5 -10q35 3 57.5 24.5t25.5 61.5q-6 21 -9 50t-3 60t3 60t9 50z" />
    <glyph glyph-name="h" unicode="h" horiz-adv-x="686" 
d="M425 0q-7 34 -10 82t-3 98t3 97.5t10 81.5q-15 -5 -37.5 -6.5t-45.5 -1.5t-45 1.5t-37 6.5q4 -34 6 -81.5t2 -97.5t-2 -98t-6 -82q-19 -2 -45.5 -3t-54.5 -1t-55 1t-46 3q-24 68 -36 163.5t-12 196.5t12 196.5t36 163.5q19 8 46 11t55 3t54.5 -3t45.5 -11v-296q15 2 37 2
h45h45.5t37.5 -2q-13 60 -13 148t13 148q19 2 46 2h55h54.5t45.5 -2q14 -68 20.5 -163.5t6.5 -196.5t-6.5 -196.5t-20.5 -163.5q-19 -6 -45.5 -8.5t-54.5 -2.5t-55 2.5t-46 8.5z" />
    <glyph glyph-name="i" unicode="i" horiz-adv-x="321" 
d="M60 0q-16 68 -24 163.5t-8 196.5t8 196.5t24 163.5q20 2 47 2h55h55t46 -2q13 -68 20 -163.5t7 -196.5t-7 -196.5t-20 -163.5q-19 -6 -46 -8.5t-55 -2.5t-55 2.5t-47 8.5z" />
    <glyph glyph-name="j" unicode="j" horiz-adv-x="432" 
d="M175 158q-6 52 -9.5 127t-3.5 154t3.5 154t9.5 127q19 2 46 3t55 1t54.5 -1t45.5 -3q15 -44 23 -105.5t8 -126.5t-8 -126.5t-23 -104.5q3 -22 4 -41.5t1 -37.5q0 -196 -157 -196q-8 0 -16 0.5t-17 1.5q-35 0 -70 11.5t-62.5 32.5t-45 52t-17.5 70q-3 44 16 103
q13 7 36 13.5t37 7.5q-5 -37 -10 -64t-6 -43q9 -114 67 -118q27 5 39 109z" />
    <glyph glyph-name="k" unicode="k" horiz-adv-x="668" 
d="M261 399q17 35 45.5 79.5t62.5 90t68.5 85.5t63.5 66q9 2 21 3t26 1q30 0 46 -4q-14 -23 -35.5 -54t-45.5 -63t-48 -61.5t-43 -48.5q29 -43 65.5 -107.5t72.5 -134t67.5 -136t50.5 -115.5q-21 -8 -51.5 -11.5t-61.5 -3.5t-61.5 3.5t-51.5 11.5q-26 24 -53 63t-50 83
t-39 89t-20 80q-5 -6 -14.5 -16.5t-14.5 -16.5q1 -26 2 -63.5t1 -77.5t-1 -77.5t-2 -63.5q-19 -4 -46 -6.5t-55 -2.5t-55 2.5t-46 6.5q-5 68 -7 163.5t-2 196.5t2 196.5t7 163.5q42 8 101 8t101 -8q9 -30 13.5 -72.5t4.5 -87.5t-4.5 -88t-13.5 -73z" />
    <glyph glyph-name="l" unicode="l" horiz-adv-x="529" 
d="M60 0q0 68 -0.5 163.5t-0.5 196.5t0.5 196.5t0.5 163.5q19 2 45.5 2h55.5h55.5t45.5 -2q14 -61 21 -146.5t7 -177.5t-7 -177.5t-21 -146.5q27 2 64.5 3t77.5 1t78 -1t65 -3q3 -14 3 -36t-3 -36q-46 -14 -110.5 -20.5t-132.5 -6.5t-133 6.5t-111 20.5z" />
    <glyph glyph-name="m" unicode="m" horiz-adv-x="764" 
d="M261 720q23 -36 44 -88.5t38 -111t28.5 -117t14.5 -106.5q2 48 12.5 106.5t28 117t39 111t45.5 88.5q18 4 44 6t53 2t53 -2t44 -6q13 -68 20.5 -163.5t7.5 -196.5t-7.5 -196.5t-20.5 -163.5q-18 -4 -44 -6t-53 -2t-53 2t-44 6q-13 46 -19.5 111.5t-6.5 135.5q0 61 5 119
t15 104q-9 -50 -24 -113.5t-33 -129t-37 -125.5t-36 -102q-22 -8 -56 -8t-56 8q-24 33 -46 80.5t-40 101.5t-30.5 110t-17.5 107q1 -34 1.5 -72t0.5 -76q0 -71 -1.5 -137.5t-4.5 -113.5q-12 -3 -34 -3t-34 3q-5 68 -7 163.5t-2 196.5t2 196.5t7 163.5q42 8 102 8t102 -8z
M127 486h-2q0 -4 0.5 -10t0.5 -11v10.5t1 10.5zM509 495l-2 -12t-2 -13q1 7 3 13t3 12h-2z" />
    <glyph glyph-name="n" unicode="n" horiz-adv-x="624" 
d="M501 228q-6 46 -8.5 111.5t-2.5 134.5t2.5 134.5t8.5 111.5q6 1 15 1.5t18 0.5t18.5 -0.5t15.5 -1.5q24 -68 36 -163.5t12 -196.5t-12 -196.5t-36 -163.5q-15 -6 -35.5 -8.5t-42.5 -2.5t-42.5 2.5t-35.5 8.5q-27 43 -65 103.5t-78.5 124.5t-78.5 124.5t-65 103.5
q3 -43 4 -103.5t1 -124.5t-1 -124.5t-4 -103.5q-12 -3 -35 -3q-22 0 -34 3q-4 68 -6.5 163.5t-2.5 196.5t2.5 196.5t6.5 163.5q12 2 29 3t35 1t34.5 -1t28.5 -3q43 -37 92.5 -98t94 -130t80 -139t51.5 -125z" />
    <glyph glyph-name="o" unicode="o" horiz-adv-x="678" 
d="M345 732q11 1 21 1.5t20 0.5q264 0 264 -305q0 -32 -3 -68v-21q0 -360 -309 -353q-9 -1 -17.5 -1h-16.5q-276 0 -276 323q0 14 0.5 29t1.5 31q-2 20 -3 39.5t-1 37.5q0 289 265 289q25 0 54 -3zM338 675q-16 -3 -29 -13.5t-24.5 -43t-22 -93t-21.5 -164.5
q11 -104 21.5 -165.5t22.5 -93.5t25 -43t28 -14q26 0 44.5 9t30.5 41.5t18 95t6 170.5q-2 107 -9 169t-19 94t-29.5 41t-41.5 10z" />
    <glyph glyph-name="p" unicode="p" horiz-adv-x="623" 
d="M262 295q10 -28 15 -67t5 -80t-5 -80.5t-15 -67.5h-202q-4 68 -6 163.5t-2 196.5t2 196.5t6 163.5q62 13 150 13q42 0 81 -3.5t68 -9.5q262 6 256 -211q1 -6 1 -12v-12q0 -192 -237 -192q-11 0 -23 0.5t-24 1.5q-7 -1 -16 -2.5t-19 -1.5t-19 1.5t-16 2.5zM307 654
q-12 -2 -23 -2q-10 0 -22 2q8 -27 11.5 -66t3.5 -80t-3.5 -80.5t-11.5 -66.5q4 0 10 0.5t12 0.5t12 -0.5t11 -0.5q104 5 110 152q-18 126 -110 141z" />
    <glyph glyph-name="q" unicode="q" horiz-adv-x="673" 
d="M343 732q9 1 18 1h17q270 0 270 -312v-29t-2 -31q6 -43 6 -82q0 -209 -166 -261q29 -62 61 -65q18 1 29.5 9t12.5 31q-2 6 -2.5 14.5t-0.5 15.5q11 0 28 -6.5t25 -14.5q1 -10 2.5 -22.5t1.5 -18.5q1 -50 -30 -84.5t-93 -33.5q-129 -12 -144 144h-19q-11 -1 -22 -1h-21
q-144 0 -215.5 76.5t-71.5 245.5q0 14 0.5 29.5t1.5 31.5q-2 20 -3 39.5t-1 37.5q0 289 264 289q25 0 54 -3zM336 675q-20 -2 -35 -11.5t-26.5 -42t-20 -94t-14.5 -166.5q7 -44 10 -81t3 -66q0 -18 -1.5 -33t-3.5 -29q2 4 6 6q24 24 37.5 38.5t41.5 14.5q52 3 83 -64
q1 -1 2 -4t2 -5h3q-1 0 -1 28q0 18 0.5 43.5t2 53t4 53.5t5.5 45q-6 105 -14.5 166.5t-20 94t-27 42t-36.5 11.5zM319 134q-13 -2 -27 -14t-28 -29q12 -29 30.5 -37t41.5 -9q10 1 18.5 2.5t14.5 2.5v5q-5 36 -23.5 55.5t-26.5 23.5z" />
    <glyph glyph-name="r" unicode="r" horiz-adv-x="658" 
d="M262 346q7 -32 10.5 -78t3.5 -95t-3.5 -95t-10.5 -78q-40 -8 -101 -8t-101 8q-19 68 -28.5 163.5t-9.5 196.5t9.5 196.5t28.5 163.5q28 3 67 5t81 2t81.5 -2t67.5 -5h21q112 0 176 -50t61 -137q3 -18 3 -33q0 -120 -152 -137q76 -18 106 -43t30 -84q0 -16 -2 -35t-5 -41
q0 -61 12.5 -100.5t25.5 -59.5q-21 -2 -49.5 -2h-59.5h-60t-50 2q-10 20 -17 42.5t-7 50.5q0 7 0.5 15t1.5 16q-1 9 -1.5 22.5t-0.5 26.5t0.5 26.5t1.5 22.5q-4 63 -26.5 91.5t-68.5 32.5q-17 -6 -35 0zM301 654h-39q2 -23 3 -56t1 -68t-1 -68.5t-3 -56.5q20 2 39 0
q101 15 116 125q-10 115 -116 124z" />
    <glyph glyph-name="s" unicode="s" horiz-adv-x="572" 
d="M513 519q-17 -5 -46 -11t-47 -8q5 31 6 49q-15 108 -148 126q-107 -9 -115 -86q9 -57 130 -112q250 -64 250 -238v-12.5t-1 -13.5q1 -8 1.5 -16.5t0.5 -15.5q0 -91 -58 -143.5t-158 -52.5q-10 0 -20.5 0.5t-21.5 1.5q-7 0 -13.5 -0.5t-13.5 -0.5q-239 0 -230 208
q-1 15 2 42q17 10 47 16.5t50 4.5q2 -23 -2.5 -43.5t-9.5 -35.5q0 -134 148 -134q116 3 119 97q-11 60 -141 126q-212 72 -206 250q0 5 -0.5 10t-0.5 10q0 49 17 85.5t46.5 61t69.5 37t86 12.5h15t15 -1q12 2 23.5 2h22.5q185 0 185 -176q0 -9 -0.5 -18.5t-1.5 -20.5z" />
    <glyph glyph-name="t" unicode="t" horiz-adv-x="539" 
d="M-7 648q-5 15 -5 36t5 36q53 20 126 29.5t151 9.5t151 -9.5t126 -29.5v-72q-17 -2 -39 -2h-46h-47t-39 2q14 -61 21 -146.5t7 -177.5t-7 -177.5t-21 -146.5q-20 -2 -48 -2.5t-58 -0.5t-59 0.5t-48 2.5q-12 61 -18 146.5t-6 177.5t6 177.5t18 146.5q-17 -4 -39 -7t-46 -3
t-46 3t-39 7z" />
    <glyph glyph-name="u" unicode="u" horiz-adv-x="630" 
d="M515 236q-5 45 -8 109.5t-3 132.5t3 132.5t8 109.5q6 1 15 1.5t18 0.5t18 -0.5t15 -1.5q17 -45 24.5 -109.5t7.5 -132.5t-7.5 -132.5t-24.5 -109.5q1 -15 2.5 -29t1.5 -27q0 -196 -203 -196q-15 0 -31.5 1t-33.5 3q-264 0 -264 248q-3 45 -4.5 109.5t-1.5 132.5
t1.5 132.5t4.5 109.5q19 4 46 6.5t55 2.5t54.5 -2.5t45.5 -6.5q3 -46 4.5 -111t1.5 -134t-1.5 -134t-4.5 -111q3 -45 10.5 -76t21.5 -50t36 -28t55 -11q119 15 138 171z" />
    <glyph glyph-name="v" unicode="v" horiz-adv-x="553" 
d="M198 720q25 -41 48 -100.5t41 -126t30.5 -134t16.5 -124.5q2 58 15 126t33.5 134.5t46.5 125.5t55 99h76q-15 -69 -39.5 -165t-53 -197.5t-57 -196.5t-51.5 -161q-17 -4 -41 -6t-49 -2t-49 2t-41 6q-22 66 -49 161t-53 196.5t-48 197.5t-35 165q42 8 102 8t102 -8z" />
    <glyph glyph-name="w" unicode="w" horiz-adv-x="813" 
d="M629 282q2 43 12.5 102.5t26 121t34.5 118.5t38 96q15 3 40 3t40 -3q1 -72 -15 -170t-43 -199.5t-61.5 -194.5t-70.5 -156q-12 -2 -30 -2.5t-36 -0.5t-35.5 0.5t-29.5 2.5q-13 36 -28 87.5t-28.5 106.5t-24 107.5t-15.5 90.5q1 -7 1 -14.5v-15.5q0 -41 -8 -91.5
t-21.5 -100.5t-31.5 -95t-38 -75q-12 -4 -30 -6.5t-37 -2.5t-36.5 2.5t-29.5 6.5q-17 68 -41 163.5t-49 196.5t-48.5 196.5t-39.5 163.5q20 2 47 2h55h55t47 -2q19 -39 37.5 -95.5t33 -118.5t23.5 -121t9 -102q7 42 19.5 100.5t27.5 119.5t30.5 119t28.5 98q11 2 27 3t32 1
t32 -1t27 -3q21 -36 40 -88.5t33.5 -110t23 -115t8.5 -102.5q0 -6 -0.5 -11.5t-0.5 -10.5z" />
    <glyph glyph-name="x" unicode="x" horiz-adv-x="595" 
d="M340 485q8 25 24 57.5t34.5 65.5t39 62.5t37.5 49.5q8 2 19.5 3t23.5 1t24 -1t20 -3q-14 -31 -36 -73t-47.5 -85.5t-51 -83.5t-45.5 -67q25 -36 56.5 -89.5t62.5 -111.5t58 -113.5t44 -96.5q-21 -8 -51 -11.5t-62 -3.5t-61.5 3.5t-50.5 11.5q-21 19 -43 50.5t-41 67
t-32 71t-16 64.5q-14 -24 -33.5 -57.5t-40.5 -69t-40.5 -69t-33.5 -57.5q-9 0 -21 -0.5t-25 -0.5t-24.5 0.5t-20.5 0.5q11 35 34 81t50.5 92t57 87.5t55.5 68.5q-22 35 -51 86.5t-58.5 106.5t-56.5 107.5t-44 90.5q21 4 50.5 6t61.5 2t61 -2t50 -6q18 -19 37.5 -48.5
t37 -62.5t30.5 -66t18 -58z" />
    <glyph glyph-name="y" unicode="y" horiz-adv-x="531" 
d="M338 373q8 34 23 80.5t33 95.5t37 94.5t35 76.5q8 3 18.5 4t21.5 1t21.5 -1t17.5 -4q0 -48 -14.5 -111.5t-38 -127t-54 -121t-62.5 -94.5v-266q-19 -2 -45.5 -2h-54.5h-55t-46 2q-6 25 -9 60.5t-3 72.5t3 72.5t9 60.5q-20 41 -46.5 101t-52.5 123.5t-49.5 124.5
t-38.5 105q42 8 104 8q63 0 105 -8q23 -28 46.5 -72.5t43.5 -93t34 -97t17 -84.5z" />
    <glyph glyph-name="z" unicode="z" horiz-adv-x="570" 
d="M53 648q-1 7 -1 16.5v19.5v19.5t1 16.5q48 5 115.5 7.5t138.5 2.5t138.5 -2.5t115.5 -7.5q5 -13 5 -33t-5 -33q-11 -66 -45 -149.5t-81 -165t-101.5 -153t-105.5 -114.5h310q0 -7 0.5 -16.5t0.5 -19.5t-0.5 -19.5t-0.5 -16.5q-50 -12 -120.5 -17.5t-145.5 -5.5
t-146.5 5.5t-120.5 17.5q0 7 -0.5 16.5t-0.5 19.5t0.5 19.5t0.5 16.5q20 60 58.5 139.5t85 160.5t95.5 154.5t91 121.5q-58 -16 -141 -16t-141 16z" />
    <glyph glyph-name="braceleft" unicode="{" horiz-adv-x="468" 
d="M220 357q63 -39 62 -124q0 -17 0.5 -39.5t0.5 -47.5t-0.5 -48.5t-0.5 -39.5q1 -56 42 -58q7 0 16.5 0.5t19.5 0.5t19.5 -0.5t16.5 -0.5q3 -9 3 -26q0 -16 -3 -25q-15 -3 -35.5 -4.5t-42.5 -1.5q-47 0 -77 6q-58 -5 -85.5 20t-27.5 96v12.5t1 14.5q-3 15 -4.5 37t-1.5 45
t1.5 45t4.5 37q-5 34 -16.5 59.5t-33.5 27.5q-2 17 0 34q25 1 37 24t13 52q-6 15 -8.5 37.5t-2.5 45.5t2.5 45.5t8.5 37.5q-3 25 -3 46q0 57 22 82t68 25h12t13 -1h155q0 -5 0.5 -11t0.5 -14t-0.5 -15t-0.5 -11q-14 -3 -36 -3t-36 3q-40 -1 -42 -64q3 -16 5 -39.5t2 -48.5
t-2 -47.5t-5 -39.5q1 -7 1.5 -13t0.5 -12q0 -69 -64 -99z" />
    <glyph glyph-name="bar" unicode="|" horiz-adv-x="498" 
d="M347 -60q-18 -4 -44 -6t-54 -2t-54 2t-44 6q-5 79 -8 190.5t-3 229.5t3 229.5t8 190.5q38 8 98 8t98 -8q23 -79 35 -190.5t12 -229.5t-12 -229.5t-35 -190.5z" />
    <glyph glyph-name="braceright" unicode="}" horiz-adv-x="468" 
d="M248 357q-63 42 -62 124q0 17 -0.5 39.5t-0.5 47.5t0.5 48.5t0.5 39.5q-3 63 -42 64q-7 0 -16.5 -0.5t-19.5 -0.5t-19.5 0.5t-16.5 0.5q-3 9 -3 26q0 16 3 25q15 3 35.5 4.5t42.5 1.5q47 0 77 -6q57 4 85 -23.5t28 -98.5v-14.5t-1 -15.5q3 -15 4.5 -37.5t1.5 -45.5
t-1.5 -45.5t-4.5 -37.5q4 -28 15.5 -51t34.5 -25q2 -17 0 -34q-25 -1 -37 -26.5t-13 -60.5q6 -15 8.5 -37t2.5 -45t-2.5 -45t-8.5 -37q3 -24 3 -44q0 -56 -21.5 -78.5t-65.5 -22.5q-7 0 -14 0.5t-14 1.5h-155q0 5 -0.5 11t-0.5 14t0.5 15t0.5 11q14 3 36 3t36 -3q41 2 42 58
q-3 16 -5 39.5t-2 48.5t2 47.5t5 39.5q-1 7 -1.5 13.5t-0.5 12.5q0 69 64 98z" />
    <glyph glyph-name="asciitilde" unicode="~" horiz-adv-x="498" 
d="M105 309q-17 3 -41.5 17t-35.5 27q36 88 113 88q15 0 31 -3q28 0 49 -4.5t39 -9.5t35 -9.5t37 -4.5q14 1 33 9t29 19q16 -4 39.5 -17.5t36.5 -24.5q-54 -90 -144 -87q-5 -1 -10.5 -1h-10.5q-37 0 -68 12.5t-73 17.5q-13 -3 -29 -9.5t-30 -19.5z" />
    <glyph glyph-name="currency" unicode="&#xa4;" horiz-adv-x="626" 
d="M459 565l77 77l59 -58l-77 -77q46 -61 46 -146q0 -83 -47 -148l78 -77l-59 -58l-77 77q-65 -47 -147 -47q-79 0 -146 47l-77 -77l-59 58l78 77q-47 65 -47 148q0 82 46 146l-77 77l59 58l78 -77q70 47 145 47q76 0 147 -47zM312 490q-52 0 -88.5 -38t-36.5 -91
q0 -55 36.5 -93t88.5 -38q26 0 49 10t40.5 28t27.5 42t10 51q0 54 -37.5 91.5t-89.5 37.5z" />
    <glyph glyph-name="brokenbar" unicode="&#xa6;" horiz-adv-x="498" 
d="M347 419q-38 -11 -98 -11t-98 11q-7 34 -10.5 82t-3.5 99t3.5 98.5t10.5 81.5q18 2 44 3t54 1t54 -1t44 -3q5 -34 7 -81.5t2 -98.5t-2 -99t-7 -82zM347 -60q-18 -6 -44 -9t-54 -3t-54 3t-44 9q-5 34 -6.5 81.5t-1.5 98.5t1.5 98.5t6.5 81.5q18 0 44 0.5t54 0.5t54 -0.5
t44 -0.5q0 -34 0.5 -81.5t0.5 -98.5t-0.5 -98.5t-0.5 -81.5z" />
    <glyph glyph-name="section" unicode="&#xa7;" horiz-adv-x="659" 
d="M97 44q18 9 49.5 19.5t50.5 14.5q-3 -13 -4.5 -24t-2.5 -20q4 -50 38.5 -75t96.5 -30q132 13 141 87q-12 40 -114 85q-82 14 -136 29.5t-85.5 35t-44 44t-12.5 55.5v12t1 13q-3 15 -3 30q0 71 79 125q-45 30 -45 80q0 6 0.5 12t1.5 12q-1 5 -1 10v10q0 80 51.5 127
t148.5 47h15t16 -1q103 2 164.5 -38.5t60.5 -112.5q-17 -9 -46 -18t-48 -11q1 7 2.5 13.5t2.5 13.5q-7 40 -40 62.5t-99 32.5q-102 -14 -111 -72q5 -36 118 -84q12 -4 28 -9.5t33.5 -11.5t33.5 -12.5t27 -10.5q127 -46 127 -140q1 -8 1.5 -14.5t0.5 -13.5q0 -40 -20.5 -70.5
t-60.5 -53.5q32 -22 49 -50t12 -64q2 -56 -14.5 -96t-47.5 -65.5t-73 -38t-90 -12.5q-5 0 -10.5 0.5t-10.5 0.5q-9 -1 -17.5 -1h-16.5q-102 0 -151.5 38.5t-44.5 139.5zM260 298q8 -2 21 -6.5t21 -8.5q21 -4 53.5 -15t51.5 -21q19 -6 36.5 -14t30.5 -18q6 13 14.5 28
t11.5 26q-2 8 -11 17.5t-34 23t-70 32.5t-119 46q-28 6 -49 13t-32 17q-24 -26 -26 -49q6 -26 101 -71z" />
    <glyph glyph-name="copyright" unicode="&#xa9;" horiz-adv-x="822" 
d="M523 323l59 -15q2 -10 2 -17.5v-14.5q0 -139 -168 -139q-192 0 -192 216q0 47 13.5 88.5t39 73t63 50t85.5 18.5q143 0 143 -138l-62 -27q1 10 1 19v17q0 91 -68 91q-77 0 -77 -199q0 -171 85 -171q82 0 82 99q0 8 -2 20.5t-4 28.5zM411 734q77 0 145 -29.5t119 -80.5
t80.5 -119t29.5 -145t-29.5 -145.5t-80.5 -119.5t-119 -80.5t-145 -29.5t-145 30t-119 81t-81 119.5t-30 144.5t30 144t81 119t119 81t145 30zM411 682q-66 0 -124 -25.5t-101 -69.5t-68 -102.5t-25 -124.5t25 -124.5t68 -102.5t101 -69.5t124 -25.5t124 25.5t101.5 69.5
t68.5 102.5t25 124.5t-25 124.5t-68.5 102.5t-101.5 69.5t-124 25.5z" />
    <glyph glyph-name="guillemotleft" unicode="&#xab;" horiz-adv-x="431" 
d="M384 485q-5 -21 -15 -49t-21.5 -57.5t-24 -56.5t-22.5 -46q8 -20 19.5 -47.5t23 -57.5t22 -58t18.5 -48h-101q-13 15 -27.5 39t-27.5 51t-22.5 53t-12.5 46q-1 4 -1 10v12v12t1 10q6 18 17 43.5t24 52t25.5 50.5t23.5 41q9 1 23 1.5t28 0.5t27.5 -0.5t22.5 -1.5zM229 485
q-2 -22 -10 -51t-20 -58.5t-26 -56t-28 -43.5q12 -18 25 -45t25 -57t21 -59t13 -50q-9 0 -22.5 -0.5t-27.5 -0.5t-27.5 0.5t-22.5 0.5q-12 16 -26 40.5t-27 51t-23.5 52t-15.5 45.5q0 4 -0.5 10t-0.5 12t0.5 12t0.5 10q1 21 10 47.5t22 52.5t28.5 49.5t31.5 37.5q18 6 50 6
t50 -6z" />
    <glyph glyph-name="logicalnot" unicode="&#xac;" horiz-adv-x="529" 
d="M479 433v-212h-165v91h-272v121h437z" />
    <glyph glyph-name="registered" unicode="&#xae;" horiz-adv-x="822" 
d="M376 347v-204h-132v432h186q161 0 161 -112q0 -77 -84 -102q63 -27 69 -91l6 -57q2 -22 8 -40t17 -30h-144q-13 33 -14 79l-2 63q-2 62 -55 62h-16zM397 532h-21v-142h21q67 0 67 71t-67 71zM411 734q77 0 145 -29.5t119 -80.5t80.5 -119t29.5 -145t-29.5 -145.5
t-80.5 -119.5t-119 -80.5t-145 -29.5t-145 30t-119 81t-81 119.5t-30 144.5t30 144t81 119t119 81t145 30zM411 682q-66 0 -124 -25.5t-101 -69.5t-68 -102.5t-25 -124.5t25 -124.5t68 -102.5t101 -69.5t124 -25.5t124 25.5t101.5 69.5t68.5 102.5t25 124.5t-25 124.5
t-68.5 102.5t-101.5 69.5t-124 25.5z" />
    <glyph glyph-name="degree" unicode="&#xb0;" horiz-adv-x="481" 
d="M241 734q35 3 64.5 -7t50 -30t30.5 -49.5t6 -65.5q3 -34 -7.5 -63t-31 -49.5t-49.5 -31t-63 -7.5q-33 -1 -61 10t-48.5 31.5t-32 48.5t-9.5 61q-2 34 9 62.5t31.5 49t49 31.5t61.5 9zM241 669q-74 -10 -85 -87q5 -82 85 -86q84 0 84 86q0 87 -84 87z" />
    <glyph glyph-name="plusminus" unicode="&#xb1;" horiz-adv-x="529" 
d="M466 401v-80h-162v-162h-80v162h-161v80h161v161h80v-161h162zM63 0v82h403v-82h-403z" />
    <glyph glyph-name="mu" unicode="&#xb5;" horiz-adv-x="529" 
d="M485 545v-545h-162v84q-19 -46 -41 -65t-39 -19q-6 0 -17 3t-20 10v-153l-161 47v625q23 0 63.5 3t97.5 10v-409q0 -27 13 -42.5t32 -15.5q72 0 72 186v268q41 2 81.5 5t80.5 8z" />
    <glyph glyph-name="paragraph" unicode="&#xb6;" horiz-adv-x="529" 
d="M300 648v-734h-70v379h-56q-162 0 -162 212q0 96 39.5 155.5t100.5 59.5h342v-72h-65v-734h-69v734h-60z" />
    <glyph glyph-name="guillemotright" unicode="&#xbb;" horiz-adv-x="431" 
d="M48 65q5 21 15 49.5t21.5 58t24 57t22.5 46.5q-8 20 -19.5 47.5t-23 56.5t-22 57t-18.5 48h99q13 -15 28 -38.5t28 -50t22.5 -52.5t13.5 -46q1 -4 1 -10v-12v-12t-1 -10q-7 -19 -18 -44.5t-24 -52t-26 -51t-24 -41.5q-9 -1 -22 -1.5t-27 -0.5t-27.5 0.5t-22.5 1.5z
M201 65q2 23 10.5 52t20.5 58.5t26.5 56.5t28.5 44q-12 18 -26 45t-26 56t-21 58t-13 50q9 0 23 0.5t28 0.5t27.5 -0.5t22.5 -0.5q12 -16 25.5 -40t26.5 -50t23.5 -52t15.5 -45q0 -4 0.5 -10t0.5 -12t-0.5 -12t-0.5 -10q-1 -21 -10 -48t-21.5 -53.5t-28 -50t-31.5 -37.5
q-18 -6 -50 -6q-14 0 -28 1.5t-23 4.5z" />
    <glyph glyph-name="Agrave" unicode="&#xc0;" horiz-adv-x="562" 
d="M-7 0q-3 74 13.5 173t45.5 200t67.5 193.5t79.5 153.5q17 2 40 3t48 1t48 -1t40 -3q19 -67 45.5 -162.5t54 -196.5t52.5 -197t42 -164q-19 0 -46 -0.5t-55 -0.5t-55 0.5t-46 0.5q-8 14 -15.5 34t-13.5 42t-9.5 43t-3.5 37q-19 -4 -47.5 -6t-57.5 -2t-57.5 2t-47.5 6
q-3 -15 -8 -36t-11 -43t-12.5 -42.5t-12.5 -34.5q-7 -2 -17.5 -2h-21.5h-21.5t-17.5 2zM306 228q-13 28 -26.5 70t-25 87t-19.5 88t-10 75h-4q-6 -32 -16 -76t-22 -89t-24 -86.5t-23 -68.5q34 13 85 13t85 -13z" />
    <glyph glyph-name="Agrave" unicode="&#x410;" horiz-adv-x="562" 
d="M-7 0q-3 74 13.5 173t45.5 200t67.5 193.5t79.5 153.5q17 2 40 3t48 1t48 -1t40 -3q19 -67 45.5 -162.5t54 -196.5t52.5 -197t42 -164q-19 0 -46 -0.5t-55 -0.5t-55 0.5t-46 0.5q-8 14 -15.5 34t-13.5 42t-9.5 43t-3.5 37q-19 -4 -47.5 -6t-57.5 -2t-57.5 2t-47.5 6
q-3 -15 -8 -36t-11 -43t-12.5 -42.5t-12.5 -34.5q-7 -2 -17.5 -2h-21.5h-21.5t-17.5 2zM306 228q-13 28 -26.5 70t-25 87t-19.5 88t-10 75h-4q-6 -32 -16 -76t-22 -89t-24 -86.5t-23 -68.5q34 13 85 13t85 -13z" />
    <glyph glyph-name="Aacute" unicode="&#xc1;" horiz-adv-x="632" 
d="M60 720q46 18 112 27.5t136 9.5t136 -9.5t113 -27.5q5 -15 5 -36t-5 -36q-28 -3 -67 -5t-80 -2t-80.5 2t-67.5 5q0 -21 0.5 -50.5t0.5 -61.5t-0.5 -61.5t-0.5 -50.5h70q33 3 63 3q222 0 222 -184q0 -7 -0.5 -15.5t-1.5 -16.5q1 -7 1 -13.5v-12.5q0 -187 -214 -187
q-10 0 -21 0.5t-22 1.5q-29 -3 -68 -4.5t-81 -1.5t-82 1.5t-68 4.5q-9 68 -13 163.5t-4 196.5t4 196.5t13 163.5zM262 359q9 -27 13 -66.5t4 -80.5t-4 -80.5t-13 -66.5q4 1 10 1h12h12t11 -1q107 3 110 142q-11 144 -110 152q-5 0 -11 -0.5t-12 -0.5t-12 0.5t-10 0.5z" />
    <glyph glyph-name="Aacute" unicode="&#x411;" horiz-adv-x="632" 
d="M60 720q46 18 112 27.5t136 9.5t136 -9.5t113 -27.5q5 -15 5 -36t-5 -36q-28 -3 -67 -5t-80 -2t-80.5 2t-67.5 5q0 -21 0.5 -50.5t0.5 -61.5t-0.5 -61.5t-0.5 -50.5h70q33 3 63 3q222 0 222 -184q0 -7 -0.5 -15.5t-1.5 -16.5q1 -7 1 -13.5v-12.5q0 -187 -214 -187
q-10 0 -21 0.5t-22 1.5q-29 -3 -68 -4.5t-81 -1.5t-82 1.5t-68 4.5q-9 68 -13 163.5t-4 196.5t4 196.5t13 163.5zM262 359q9 -27 13 -66.5t4 -80.5t-4 -80.5t-13 -66.5q4 1 10 1h12h12t11 -1q107 3 110 142q-11 144 -110 152q-5 0 -11 -0.5t-12 -0.5t-12 0.5t-10 0.5z" />
    <glyph glyph-name="Acircumflex" unicode="&#xc2;" horiz-adv-x="655" 
d="M403 0q-32 -4 -78 -6t-94 -2t-94 2t-78 6q-1 68 -2 163.5t-1 196.5t1 196.5t2 163.5q29 0 70 0.5t85 0.5t85 -0.5t70 -0.5q29 3 54 3q185 0 185 -154v-12.5t-1 -13.5q1 -5 1 -10.5v-10.5q0 -118 -146 -140q182 -27 175 -190q9 -193 -208 -193q-6 0 -12.5 0.5t-13.5 0.5z
M316 347q-5 0 -12.5 -0.5t-15.5 -0.5t-15 0.5t-12 0.5q5 -27 7.5 -65t2.5 -79t-2.5 -79t-7.5 -65q5 0 13 0.5t16 0.5t15.5 -0.5t12.5 -0.5q94 17 114 135q-18 139 -116 153zM317 660q-5 -2 -13 -3t-15 -1t-15 1t-13 3q11 -50 11 -126q0 -36 -3 -69.5t-8 -57.5q6 1 14 2.5
t17 1.5t17 -1.5t14 -2.5q71 11 86 131q-11 114 -92 122z" />
    <glyph glyph-name="Acircumflex" unicode="&#x412;" horiz-adv-x="655" 
d="M403 0q-32 -4 -78 -6t-94 -2t-94 2t-78 6q-1 68 -2 163.5t-1 196.5t1 196.5t2 163.5q29 0 70 0.5t85 0.5t85 -0.5t70 -0.5q29 3 54 3q185 0 185 -154v-12.5t-1 -13.5q1 -5 1 -10.5v-10.5q0 -118 -146 -140q182 -27 175 -190q9 -193 -208 -193q-6 0 -12.5 0.5t-13.5 0.5z
M316 347q-5 0 -12.5 -0.5t-15.5 -0.5t-15 0.5t-12 0.5q5 -27 7.5 -65t2.5 -79t-2.5 -79t-7.5 -65q5 0 13 0.5t16 0.5t15.5 -0.5t12.5 -0.5q94 17 114 135q-18 139 -116 153zM317 660q-5 -2 -13 -3t-15 -1t-15 1t-13 3q11 -50 11 -126q0 -36 -3 -69.5t-8 -57.5q6 1 14 2.5
t17 1.5t17 -1.5t14 -2.5q71 11 86 131q-11 114 -92 122z" />
    <glyph glyph-name="Atilde" unicode="&#xc3;" horiz-adv-x="505" 
d="M59 0q-1 68 -2 163.5t-1 196.5t1 196.5t2 163.5q42 1 102.5 1.5t124.5 0.5t124.5 -0.5t102.5 -1.5q1 -7 2.5 -16.5t1.5 -19.5t-1.5 -19.5t-2.5 -16.5q-24 -5 -57.5 -7.5t-68.5 -2.5t-68.5 2.5t-57.5 7.5q7 -61 10 -146.5t3 -177.5t-3 -177.5t-10 -146.5q-19 -2 -46 -3
t-55 -1t-55 1t-46 3z" />
    <glyph glyph-name="Atilde" unicode="&#x413;" horiz-adv-x="505" 
d="M59 0q-1 68 -2 163.5t-1 196.5t1 196.5t2 163.5q42 1 102.5 1.5t124.5 0.5t124.5 -0.5t102.5 -1.5q1 -7 2.5 -16.5t1.5 -19.5t-1.5 -19.5t-2.5 -16.5q-24 -5 -57.5 -7.5t-68.5 -2.5t-68.5 2.5t-57.5 7.5q7 -61 10 -146.5t3 -177.5t-3 -177.5t-10 -146.5q-19 -2 -46 -3
t-55 -1t-55 1t-46 3z" />
    <glyph glyph-name="Adieresis" unicode="&#xc4;" horiz-adv-x="612" 
d="M535 -127q-3 12 -4 28.5t-1 34.5t1 35t4 29q-43 -3 -105.5 -4t-127.5 -1t-127.5 1t-105.5 4q5 -27 5 -64q0 -36 -5 -63q-13 5 -35 15t-34 17q-13 34 -13 83q0 50 13 84q9 3 25 3t25 -3q16 2 32 36.5t19 87.5q-1 50 -1.5 119t-0.5 143t0.5 143t1.5 119q41 1 98.5 1.5
t118.5 0.5t118.5 -0.5t98.5 -1.5q17 -61 25.5 -146.5t8.5 -177.5t-8.5 -177.5t-25.5 -146.5q12 3 35 3q22 0 34 -3q2 -16 3 -38.5t1 -45.5t-1 -45t-3 -38q-12 -7 -34 -17t-35 -15zM170 648q10 -40 15.5 -97.5t5.5 -118.5t-5.5 -118.5t-15.5 -98.5q6 -29 6 -52q0 -59 -32 -91
q18 4 43 6t52 2t52 -2t43 -6q-18 54 -26.5 130.5t-8.5 157.5t8.5 157.5t26.5 130.5q-33 -10 -82 -10t-82 10z" />
    <glyph glyph-name="Adieresis" unicode="&#x414;" horiz-adv-x="612" 
d="M535 -127q-3 12 -4 28.5t-1 34.5t1 35t4 29q-43 -3 -105.5 -4t-127.5 -1t-127.5 1t-105.5 4q5 -27 5 -64q0 -36 -5 -63q-13 5 -35 15t-34 17q-13 34 -13 83q0 50 13 84q9 3 25 3t25 -3q16 2 32 36.5t19 87.5q-1 50 -1.5 119t-0.5 143t0.5 143t1.5 119q41 1 98.5 1.5
t118.5 0.5t118.5 -0.5t98.5 -1.5q17 -61 25.5 -146.5t8.5 -177.5t-8.5 -177.5t-25.5 -146.5q12 3 35 3q22 0 34 -3q2 -16 3 -38.5t1 -45.5t-1 -45t-3 -38q-12 -7 -34 -17t-35 -15zM170 648q10 -40 15.5 -97.5t5.5 -118.5t-5.5 -118.5t-15.5 -98.5q6 -29 6 -52q0 -59 -32 -91
q18 4 43 6t52 2t52 -2t43 -6q-18 54 -26.5 130.5t-8.5 157.5t8.5 157.5t26.5 130.5q-33 -10 -82 -10t-82 10z" />
    <glyph glyph-name="Aring" unicode="&#xc5;" horiz-adv-x="555" 
d="M59 0q-5 68 -6.5 163.5t-1.5 196.5t1.5 196.5t6.5 163.5q42 8 102 12t123 4t123.5 -4t102.5 -12q1 -7 1.5 -16.5t0.5 -19.5t-0.5 -19.5t-1.5 -16.5q-49 -19 -124 -19q-35 0 -68.5 5t-56.5 14q7 -21 10 -50.5t3 -61.5t-3 -61.5t-10 -50.5q18 2 44.5 3t54.5 1t54.5 -1
t44.5 -3v-65q-18 0 -44.5 -0.5t-54.5 -0.5t-54.5 0.5t-44.5 0.5q7 -27 11 -65t4 -78t-4 -78.5t-11 -65.5q27 6 66 9t79 3t79.5 -3t66.5 -9q1 -7 1.5 -16.5t0.5 -19.5t-0.5 -19.5t-1.5 -16.5q-46 -6 -111.5 -9t-134.5 -3t-134.5 3t-112.5 9z" />
    <glyph glyph-name="Aring" unicode="&#x415;" horiz-adv-x="555" 
d="M59 0q-5 68 -6.5 163.5t-1.5 196.5t1.5 196.5t6.5 163.5q42 8 102 12t123 4t123.5 -4t102.5 -12q1 -7 1.5 -16.5t0.5 -19.5t-0.5 -19.5t-1.5 -16.5q-49 -19 -124 -19q-35 0 -68.5 5t-56.5 14q7 -21 10 -50.5t3 -61.5t-3 -61.5t-10 -50.5q18 2 44.5 3t54.5 1t54.5 -1
t44.5 -3v-65q-18 0 -44.5 -0.5t-54.5 -0.5t-54.5 0.5t-44.5 0.5q7 -27 11 -65t4 -78t-4 -78.5t-11 -65.5q27 6 66 9t79 3t79.5 -3t66.5 -9q1 -7 1.5 -16.5t0.5 -19.5t-0.5 -19.5t-1.5 -16.5q-46 -6 -111.5 -9t-134.5 -3t-134.5 3t-112.5 9z" />
    <glyph glyph-name="AE" unicode="&#xc6;" horiz-adv-x="1008" 
d="M75 720q9 1 21 1.5t26 0.5t25.5 -0.5t20.5 -1.5q29 -26 64 -66t68.5 -85t62 -90t44.5 -80q-7 30 -11.5 73t-4.5 88t4.5 87.5t11.5 72.5q18 8 44 11t53 3t52.5 -3t43.5 -11q7 -30 10.5 -72.5t3.5 -87.5t-3.5 -88t-10.5 -73q13 37 39.5 83.5t60.5 91.5t70.5 84t68.5 62
q9 3 21 4t26 1t26 -1t21 -4q-12 -25 -32.5 -57t-44.5 -64t-49.5 -60t-46.5 -46q27 -45 62.5 -109.5t71.5 -134t69 -135.5t54 -114q-45 -8 -112 -8t-112 8q-18 28 -41.5 69t-46.5 85t-43.5 87t-32.5 74q-3 -8 -12 -18.5t-17 -14.5q9 -26 13 -63.5t4 -77.5t-4 -77.5t-13 -63.5
q-18 -2 -43.5 -3t-52.5 -1t-53 1t-44 3q0 26 -0.5 63.5t-0.5 77.5t0.5 77.5t0.5 63.5q-5 6 -14.5 16.5t-14.5 16.5q-7 -34 -24.5 -78t-40.5 -88t-48.5 -84t-49.5 -65q-21 -4 -50 -6.5t-61 -2.5t-61.5 2.5t-50.5 6.5q19 49 50 115.5t67 136t72.5 134t65.5 107.5
q-19 19 -43 48t-48 61t-46 63.5t-35 54.5z" />
    <glyph glyph-name="AE" unicode="&#x416;" horiz-adv-x="1008" 
d="M75 720q9 1 21 1.5t26 0.5t25.5 -0.5t20.5 -1.5q29 -26 64 -66t68.5 -85t62 -90t44.5 -80q-7 30 -11.5 73t-4.5 88t4.5 87.5t11.5 72.5q18 8 44 11t53 3t52.5 -3t43.5 -11q7 -30 10.5 -72.5t3.5 -87.5t-3.5 -88t-10.5 -73q13 37 39.5 83.5t60.5 91.5t70.5 84t68.5 62
q9 3 21 4t26 1t26 -1t21 -4q-12 -25 -32.5 -57t-44.5 -64t-49.5 -60t-46.5 -46q27 -45 62.5 -109.5t71.5 -134t69 -135.5t54 -114q-45 -8 -112 -8t-112 8q-18 28 -41.5 69t-46.5 85t-43.5 87t-32.5 74q-3 -8 -12 -18.5t-17 -14.5q9 -26 13 -63.5t4 -77.5t-4 -77.5t-13 -63.5
q-18 -2 -43.5 -3t-52.5 -1t-53 1t-44 3q0 26 -0.5 63.5t-0.5 77.5t0.5 77.5t0.5 63.5q-5 6 -14.5 16.5t-14.5 16.5q-7 -34 -24.5 -78t-40.5 -88t-48.5 -84t-49.5 -65q-21 -4 -50 -6.5t-61 -2.5t-61.5 2.5t-50.5 6.5q19 49 50 115.5t67 136t72.5 134t65.5 107.5
q-19 19 -43 48t-48 61t-46 63.5t-35 54.5z" />
    <glyph glyph-name="Ccedilla" unicode="&#xc7;" horiz-adv-x="579" 
d="M27 239q17 6 46 14.5t46 12.5q-1 -22 -5 -52t-8 -45q6 -53 34.5 -81.5t83.5 -34.5q100 18 121 141q-6 73 -40 104t-105 37q-9 -3 -23 -3t-23 3q-3 7 -4 19t-1 24t1 23t4 19q16 4 31 0q44 1 73.5 8.5t46.5 23.5t24.5 41t8.5 60q-7 108 -109 115q-103 -5 -107 -103
q4 -7 6.5 -23t2.5 -33v-11t-1 -10q-20 0 -49 10t-45 22q-5 103 47.5 157.5t163.5 54.5h20q263 1 262 -186q1 -124 -149 -166q170 -21 170 -153q0 -7 -0.5 -14t-1.5 -15q1 -6 1 -12v-12q0 -189 -231 -189q-12 0 -24.5 0.5t-25.5 1.5q-7 0 -13.5 -0.5t-13.5 -0.5
q-231 0 -223 176q-3 35 9 77z" />
    <glyph glyph-name="Ccedilla" unicode="&#x417;" horiz-adv-x="579" 
d="M27 239q17 6 46 14.5t46 12.5q-1 -22 -5 -52t-8 -45q6 -53 34.5 -81.5t83.5 -34.5q100 18 121 141q-6 73 -40 104t-105 37q-9 -3 -23 -3t-23 3q-3 7 -4 19t-1 24t1 23t4 19q16 4 31 0q44 1 73.5 8.5t46.5 23.5t24.5 41t8.5 60q-7 108 -109 115q-103 -5 -107 -103
q4 -7 6.5 -23t2.5 -33v-11t-1 -10q-20 0 -49 10t-45 22q-5 103 47.5 157.5t163.5 54.5h20q263 1 262 -186q1 -124 -149 -166q170 -21 170 -153q0 -7 -0.5 -14t-1.5 -15q1 -6 1 -12v-12q0 -189 -231 -189q-12 0 -24.5 0.5t-25.5 1.5q-7 0 -13.5 -0.5t-13.5 -0.5
q-231 0 -223 176q-3 35 9 77z" />
    <glyph glyph-name="Egrave" unicode="&#xc8;" horiz-adv-x="705" 
d="M444 530h-3q-7 -53 -26.5 -125t-45 -146.5t-54 -143.5t-54.5 -115q-19 -2 -46 -3t-55 -1t-55 1t-46 3q-27 68 -40 163.5t-13 196.5t13 196.5t40 163.5q19 6 46 9t55 3t55 -3t46 -9q6 -50 9.5 -120t3.5 -145t-3.5 -145t-9.5 -120h2q16 50 39.5 120.5t49.5 145t50 144.5
t42 120q19 5 45.5 7.5t54.5 2.5t55 -2.5t46 -7.5q15 -68 22 -163.5t7 -196.5t-7 -196.5t-22 -163.5q-19 -2 -46 -3t-55 -1t-54.5 1t-45.5 3q-6 50 -9.5 120t-3.5 145t3.5 145t9.5 120z" />
    <glyph glyph-name="Egrave" unicode="&#x418;" horiz-adv-x="705" 
d="M444 530h-3q-7 -53 -26.5 -125t-45 -146.5t-54 -143.5t-54.5 -115q-19 -2 -46 -3t-55 -1t-55 1t-46 3q-27 68 -40 163.5t-13 196.5t13 196.5t40 163.5q19 6 46 9t55 3t55 -3t46 -9q6 -50 9.5 -120t3.5 -145t-3.5 -145t-9.5 -120h2q16 50 39.5 120.5t49.5 145t50 144.5
t42 120q19 5 45.5 7.5t54.5 2.5t55 -2.5t46 -7.5q15 -68 22 -163.5t7 -196.5t-7 -196.5t-22 -163.5q-19 -2 -46 -3t-55 -1t-54.5 1t-45.5 3q-6 50 -9.5 120t-3.5 145t3.5 145t9.5 120z" />
    <glyph glyph-name="Eacute" unicode="&#xc9;" horiz-adv-x="705" 
d="M444 530h-3q-7 -53 -26.5 -125t-45 -146.5t-54 -143.5t-54.5 -115q-19 -2 -46 -3t-55 -1t-55 1t-46 3q-27 68 -40 163.5t-13 196.5t13 196.5t40 163.5q19 6 46 9t55 3t55 -3t46 -9q6 -50 9.5 -120t3.5 -145t-3.5 -145t-9.5 -120h2q16 50 39.5 120.5t49.5 145t50 144.5
t42 120q19 5 45.5 7.5t54.5 2.5t55 -2.5t46 -7.5q15 -68 22 -163.5t7 -196.5t-7 -196.5t-22 -163.5q-19 -2 -46 -3t-55 -1t-54.5 1t-45.5 3q-6 50 -9.5 120t-3.5 145t3.5 145t9.5 120zM190 863q11 10 33.5 21t37.5 14q14 -74 91 -87q85 8 92 87q16 -2 38.5 -13t33.5 -22
q-4 -52 -37 -81.5t-93 -29.5h-16.5t-17.5 2q-6 -1 -12 -1h-12q-62 0 -97 29.5t-41 80.5z" />
    <glyph glyph-name="Eacute" unicode="&#x419;" horiz-adv-x="705" 
d="M444 530h-3q-7 -53 -26.5 -125t-45 -146.5t-54 -143.5t-54.5 -115q-19 -2 -46 -3t-55 -1t-55 1t-46 3q-27 68 -40 163.5t-13 196.5t13 196.5t40 163.5q19 6 46 9t55 3t55 -3t46 -9q6 -50 9.5 -120t3.5 -145t-3.5 -145t-9.5 -120h2q16 50 39.5 120.5t49.5 145t50 144.5
t42 120q19 5 45.5 7.5t54.5 2.5t55 -2.5t46 -7.5q15 -68 22 -163.5t7 -196.5t-7 -196.5t-22 -163.5q-19 -2 -46 -3t-55 -1t-54.5 1t-45.5 3q-6 50 -9.5 120t-3.5 145t3.5 145t9.5 120zM190 863q11 10 33.5 21t37.5 14q14 -74 91 -87q85 8 92 87q16 -2 38.5 -13t33.5 -22
q-4 -52 -37 -81.5t-93 -29.5h-16.5t-17.5 2q-6 -1 -12 -1h-12q-62 0 -97 29.5t-41 80.5z" />
    <glyph glyph-name="Ecircumflex" unicode="&#xca;" horiz-adv-x="668" 
d="M261 399q21 31 52 74.5t64.5 88.5t66.5 87t57 71q18 3 47 3q28 0 46 -3q-14 -23 -35.5 -54t-46 -63t-48.5 -61.5t-42 -48.5q42 -37 85.5 -97.5t79.5 -130t60.5 -139.5t30.5 -126q-21 -7 -51.5 -10.5t-61.5 -3.5t-61.5 3.5t-51.5 10.5q-19 28 -42 69t-46 85t-42.5 87
t-31.5 74q-5 -6 -14.5 -16.5t-14.5 -16.5q0 -26 0.5 -63.5t0.5 -77.5t-0.5 -77.5t-0.5 -63.5q-19 -5 -46 -7.5t-55 -2.5t-55 2.5t-46 7.5q-15 68 -22 163.5t-7 196.5t7 196.5t22 163.5q19 2 46 3t55 1t55 -1t46 -3q4 -30 5.5 -72.5t1.5 -87.5t-1.5 -88t-5.5 -73z" />
    <glyph glyph-name="Ecircumflex" unicode="&#x41a;" horiz-adv-x="668" 
d="M261 399q21 31 52 74.5t64.5 88.5t66.5 87t57 71q18 3 47 3q28 0 46 -3q-14 -23 -35.5 -54t-46 -63t-48.5 -61.5t-42 -48.5q42 -37 85.5 -97.5t79.5 -130t60.5 -139.5t30.5 -126q-21 -7 -51.5 -10.5t-61.5 -3.5t-61.5 3.5t-51.5 10.5q-19 28 -42 69t-46 85t-42.5 87
t-31.5 74q-5 -6 -14.5 -16.5t-14.5 -16.5q0 -26 0.5 -63.5t0.5 -77.5t-0.5 -77.5t-0.5 -63.5q-19 -5 -46 -7.5t-55 -2.5t-55 2.5t-46 7.5q-15 68 -22 163.5t-7 196.5t7 196.5t22 163.5q19 2 46 3t55 1t55 -1t46 -3q4 -30 5.5 -72.5t1.5 -87.5t-1.5 -88t-5.5 -73z" />
    <glyph glyph-name="Edieresis" unicode="&#xcb;" horiz-adv-x="672" 
d="M179 158q-17 52 -25 127t-8 154t8 154t25 127q41 9 98.5 13t118.5 4t118.5 -4t97.5 -13q4 -68 6 -163.5t2 -196.5t-2 -196.5t-6 -163.5q-19 -3 -45.5 -5t-54.5 -2t-55 2t-46 5q-6 61 -9.5 146.5t-3.5 177.5t3.5 177.5t9.5 146.5q-15 -6 -37 -9t-45 -3t-45 3t-37 9
q13 -40 19.5 -97.5t6.5 -118.5t-6.5 -118.5t-19.5 -98.5q1 -12 1 -23.5v-22.5q0 -102 -26 -145t-88 -40q-66 -1 -100.5 39t-33.5 118q0 46 16 104q13 7 36 14t38 7q-9 -76 -18 -108q2 -56 19 -82t50 -27q34 2 38 109z" />
    <glyph glyph-name="Edieresis" unicode="&#x41b;" horiz-adv-x="672" 
d="M179 158q-17 52 -25 127t-8 154t8 154t25 127q41 9 98.5 13t118.5 4t118.5 -4t97.5 -13q4 -68 6 -163.5t2 -196.5t-2 -196.5t-6 -163.5q-19 -3 -45.5 -5t-54.5 -2t-55 2t-46 5q-6 61 -9.5 146.5t-3.5 177.5t3.5 177.5t9.5 146.5q-15 -6 -37 -9t-45 -3t-45 3t-37 9
q13 -40 19.5 -97.5t6.5 -118.5t-6.5 -118.5t-19.5 -98.5q1 -12 1 -23.5v-22.5q0 -102 -26 -145t-88 -40q-66 -1 -100.5 39t-33.5 118q0 46 16 104q13 7 36 14t38 7q-9 -76 -18 -108q2 -56 19 -82t50 -27q34 2 38 109z" />
    <glyph glyph-name="Igrave" unicode="&#xcc;" horiz-adv-x="764" 
d="M387 264q-2 46 7.5 108.5t27 127t41 123t48.5 97.5q18 6 44 8.5t53 2.5t53 -2.5t44 -8.5q15 -68 22 -163.5t7 -196.5t-7 -196.5t-22 -163.5q-18 -2 -44 -2h-53h-53t-44 2q-8 45 -12.5 108.5t-4.5 131.5v30.5t1 30.5q-9 -43 -21.5 -85.5t-28 -82t-33.5 -73.5t-37 -60
q-11 -3 -25.5 -5t-30.5 -2t-30.5 2t-25.5 5q-18 44 -39 107.5t-40 132t-34.5 134t-22.5 112.5h-2q1 -46 1 -110.5v-132.5v-132.5t-1 -110.5q-6 -2 -15 -3t-19 -1t-19 1t-15 3q-15 68 -22 163.5t-7 196.5t7 196.5t22 163.5q19 2 46 3t56 1t56 -1t46 -3q17 -41 36.5 -101
t37.5 -124t32 -125.5t20 -105.5zM511 495h-2q0 -2 0.5 -4.5t0.5 -4.5q0 6 1 9z" />
    <glyph glyph-name="Igrave" unicode="&#x41c;" horiz-adv-x="764" 
d="M387 264q-2 46 7.5 108.5t27 127t41 123t48.5 97.5q18 6 44 8.5t53 2.5t53 -2.5t44 -8.5q15 -68 22 -163.5t7 -196.5t-7 -196.5t-22 -163.5q-18 -2 -44 -2h-53h-53t-44 2q-8 45 -12.5 108.5t-4.5 131.5v30.5t1 30.5q-9 -43 -21.5 -85.5t-28 -82t-33.5 -73.5t-37 -60
q-11 -3 -25.5 -5t-30.5 -2t-30.5 2t-25.5 5q-18 44 -39 107.5t-40 132t-34.5 134t-22.5 112.5h-2q1 -46 1 -110.5v-132.5v-132.5t-1 -110.5q-6 -2 -15 -3t-19 -1t-19 1t-15 3q-15 68 -22 163.5t-7 196.5t7 196.5t22 163.5q19 2 46 3t56 1t56 -1t46 -3q17 -41 36.5 -101
t37.5 -124t32 -125.5t20 -105.5zM511 495h-2q0 -2 0.5 -4.5t0.5 -4.5q0 6 1 9z" />
    <glyph glyph-name="Iacute" unicode="&#xcd;" horiz-adv-x="686" 
d="M425 0q-1 34 -2.5 82t-1.5 98t1.5 97.5t2.5 81.5q-15 -3 -37.5 -4.5t-45.5 -1.5t-45 1.5t-37 4.5q3 -34 5 -81.5t2 -97.5t-2 -98t-5 -82q-19 -8 -45.5 -11.5t-54.5 -3.5t-55 3.5t-46 11.5q-23 68 -33.5 163.5t-10.5 196.5t10.5 196.5t33.5 163.5q19 2 46 3t55 1t54.5 -1
t45.5 -3q1 -28 1.5 -67t0.5 -81t-0.5 -81t-1.5 -67q15 0 37 0.5t45 0.5t45.5 -0.5t37.5 -0.5q-16 59 -16 148t16 148q19 4 46 6t55 2t54.5 -2t45.5 -6q8 -68 11.5 -163.5t3.5 -196.5t-3.5 -196.5t-11.5 -163.5q-19 -2 -45.5 -3t-54.5 -1t-55 1t-46 3z" />
    <glyph glyph-name="Iacute" unicode="&#x41d;" horiz-adv-x="686" 
d="M425 0q-1 34 -2.5 82t-1.5 98t1.5 97.5t2.5 81.5q-15 -3 -37.5 -4.5t-45.5 -1.5t-45 1.5t-37 4.5q3 -34 5 -81.5t2 -97.5t-2 -98t-5 -82q-19 -8 -45.5 -11.5t-54.5 -3.5t-55 3.5t-46 11.5q-23 68 -33.5 163.5t-10.5 196.5t10.5 196.5t33.5 163.5q19 2 46 3t55 1t54.5 -1
t45.5 -3q1 -28 1.5 -67t0.5 -81t-0.5 -81t-1.5 -67q15 0 37 0.5t45 0.5t45.5 -0.5t37.5 -0.5q-16 59 -16 148t16 148q19 4 46 6t55 2t54.5 -2t45.5 -6q8 -68 11.5 -163.5t3.5 -196.5t-3.5 -196.5t-11.5 -163.5q-19 -2 -45.5 -3t-54.5 -1t-55 1t-46 3z" />
    <glyph glyph-name="Icircumflex" unicode="&#xce;" horiz-adv-x="678" 
d="M345 732q12 2 24 2h23q259 0 259 -295q0 -18 -1 -38t-3 -40q1 -17 1.5 -32t0.5 -30q0 -314 -272 -314q-10 0 -19.5 0.5t-19.5 1.5h-21q-288 0 -288 345v18t1 19q-1 10 -1 19.5v18.5q0 326 291 326q6 0 12.5 -0.5t12.5 -0.5zM338 675q-16 -3 -30 -13.5t-25.5 -42.5
t-21.5 -93t-20 -165q4 -107 11 -169t18.5 -94.5t28.5 -42t39 -10.5q25 0 43 9.5t30.5 41.5t18.5 95t7 170q0 107 -6.5 169.5t-18.5 94.5t-30.5 41t-43.5 9z" />
    <glyph glyph-name="Icircumflex" unicode="&#x41e;" horiz-adv-x="678" 
d="M345 732q12 2 24 2h23q259 0 259 -295q0 -18 -1 -38t-3 -40q1 -17 1.5 -32t0.5 -30q0 -314 -272 -314q-10 0 -19.5 0.5t-19.5 1.5h-21q-288 0 -288 345v18t1 19q-1 10 -1 19.5v18.5q0 326 291 326q6 0 12.5 -0.5t12.5 -0.5zM338 675q-16 -3 -30 -13.5t-25.5 -42.5
t-21.5 -93t-20 -165q4 -107 11 -169t18.5 -94.5t28.5 -42t39 -10.5q25 0 43 9.5t30.5 41.5t18.5 95t7 170q0 107 -6.5 169.5t-18.5 94.5t-30.5 41t-43.5 9z" />
    <glyph glyph-name="Idieresis" unicode="&#xcf;" horiz-adv-x="687" 
d="M426 0q-20 61 -30 146.5t-10 177.5t10 177.5t30 146.5q-15 -2 -37 -3t-45 -1t-45.5 1t-37.5 3q1 -61 1.5 -146.5t0.5 -177.5t-0.5 -177.5t-1.5 -146.5q-19 0 -46 -0.5t-55 -0.5t-54.5 0.5t-45.5 0.5q-19 68 -28.5 163.5t-9.5 196.5t9.5 196.5t28.5 163.5
q53 12 128.5 17.5t155.5 5.5t155 -5.5t128 -17.5q7 -68 11 -163.5t4 -196.5t-4 -196.5t-11 -163.5q-19 -2 -46 -3t-55 -1t-54.5 1t-45.5 3z" />
    <glyph glyph-name="Idieresis" unicode="&#x41f;" horiz-adv-x="687" 
d="M426 0q-20 61 -30 146.5t-10 177.5t10 177.5t30 146.5q-15 -2 -37 -3t-45 -1t-45.5 1t-37.5 3q1 -61 1.5 -146.5t0.5 -177.5t-0.5 -177.5t-1.5 -146.5q-19 0 -46 -0.5t-55 -0.5t-54.5 0.5t-45.5 0.5q-19 68 -28.5 163.5t-9.5 196.5t9.5 196.5t28.5 163.5
q53 12 128.5 17.5t155.5 5.5t155 -5.5t128 -17.5q7 -68 11 -163.5t4 -196.5t-4 -196.5t-11 -163.5q-19 -2 -46 -3t-55 -1t-54.5 1t-45.5 3z" />
    <glyph glyph-name="Eth" unicode="&#xd0;" horiz-adv-x="623" 
d="M262 295q3 -28 5 -67t2 -80t-2 -80.5t-5 -67.5q-19 0 -45.5 -0.5t-55.5 -0.5t-55.5 0.5t-45.5 0.5q-1 68 -1.5 163.5t-0.5 196.5t0.5 196.5t1.5 163.5q61 16 150 16q88 0 149 -16q11 1 22 1.5t21 0.5q214 0 214 -187v-12.5t-1 -13.5q9 -215 -254 -215q-7 0 -14 0.5
t-15 0.5q-7 -1 -16 -1h-19h-19t-16 1zM307 654q-5 0 -11 -0.5t-12 -0.5t-12 0.5t-10 0.5q5 -27 7.5 -66t2.5 -80t-2.5 -80.5t-7.5 -66.5q4 0 10 0.5t12 0.5t12 -0.5t11 -0.5q87 17 110 152q-16 127 -110 141z" />
    <glyph glyph-name="Eth" unicode="&#x420;" horiz-adv-x="623" 
d="M262 295q3 -28 5 -67t2 -80t-2 -80.5t-5 -67.5q-19 0 -45.5 -0.5t-55.5 -0.5t-55.5 0.5t-45.5 0.5q-1 68 -1.5 163.5t-0.5 196.5t0.5 196.5t1.5 163.5q61 16 150 16q88 0 149 -16q11 1 22 1.5t21 0.5q214 0 214 -187v-12.5t-1 -13.5q9 -215 -254 -215q-7 0 -14 0.5
t-15 0.5q-7 -1 -16 -1h-19h-19t-16 1zM307 654q-5 0 -11 -0.5t-12 -0.5t-12 0.5t-10 0.5q5 -27 7.5 -66t2.5 -80t-2.5 -80.5t-7.5 -66.5q4 0 10 0.5t12 0.5t12 -0.5t11 -0.5q87 17 110 152q-16 127 -110 141z" />
    <glyph glyph-name="Ntilde" unicode="&#xd1;" horiz-adv-x="624" 
d="M519 266q17 -2 44.5 -10t43.5 -17q0 -5 0.5 -10.5t0.5 -11.5t-0.5 -11.5t-0.5 -10.5q4 -38 -8.5 -75.5t-41.5 -67t-76 -48t-113 -18.5h-15t-15 1q-309 -12 -309 332q0 7 0.5 14t0.5 15q-7 42 -7 86q0 66 18 121.5t52.5 95.5t85.5 62.5t118 22.5q13 0 27.5 -1t29.5 -3
q10 1 19.5 1.5t19.5 0.5q94 0 142 -48.5t48 -127.5q0 -18 -3 -38q-16 -8 -44 -18t-45 -14q2 16 2.5 28t0.5 21q0 137 -123 137q-94 -13 -130 -339q24 -278 143 -290q60 3 99.5 43.5t42.5 107.5q-2 11 -4 29t-3 41z" />
    <glyph glyph-name="Ntilde" unicode="&#x421;" horiz-adv-x="624" 
d="M519 266q17 -2 44.5 -10t43.5 -17q0 -5 0.5 -10.5t0.5 -11.5t-0.5 -11.5t-0.5 -10.5q4 -38 -8.5 -75.5t-41.5 -67t-76 -48t-113 -18.5h-15t-15 1q-309 -12 -309 332q0 7 0.5 14t0.5 15q-7 42 -7 86q0 66 18 121.5t52.5 95.5t85.5 62.5t118 22.5q13 0 27.5 -1t29.5 -3
q10 1 19.5 1.5t19.5 0.5q94 0 142 -48.5t48 -127.5q0 -18 -3 -38q-16 -8 -44 -18t-45 -14q2 16 2.5 28t0.5 21q0 137 -123 137q-94 -13 -130 -339q24 -278 143 -290q60 3 99.5 43.5t42.5 107.5q-2 11 -4 29t-3 41z" />
    <glyph glyph-name="Ograve" unicode="&#xd2;" horiz-adv-x="539" 
d="M-7 648q-5 15 -5 36t5 36q53 6 126 9.5t151 3.5t151 -3.5t126 -9.5v-72q-17 0 -39 -0.5t-46 -0.5t-47 0.5t-39 0.5q16 -61 25 -146.5t9 -177.5t-9 -177.5t-25 -146.5q-20 -4 -48 -6t-58 -2t-59 2t-48 6q-7 61 -10 146.5t-3 177.5t3 177.5t10 146.5q-17 -2 -39 -3t-46 -1
t-46 1t-39 3z" />
    <glyph glyph-name="Ograve" unicode="&#x422;" horiz-adv-x="539" 
d="M-7 648q-5 15 -5 36t5 36q53 6 126 9.5t151 3.5t151 -3.5t126 -9.5v-72q-17 0 -39 -0.5t-46 -0.5t-47 0.5t-39 0.5q16 -61 25 -146.5t9 -177.5t-9 -177.5t-25 -146.5q-20 -4 -48 -6t-58 -2t-59 2t-48 6q-7 61 -10 146.5t-3 177.5t3 177.5t10 146.5q-17 -2 -39 -3t-46 -1
t-46 1t-39 3z" />
    <glyph glyph-name="Oacute" unicode="&#xd3;" horiz-adv-x="550" 
d="M349 373q2 36 15 84.5t32 97t42 93t46 72.5q15 3 40 3q26 0 41 -3q-18 -56 -46.5 -134t-60 -160t-63.5 -159t-56 -130q-26 -85 -60.5 -119.5t-89.5 -34.5h-10.5t-10.5 1q-50 -2 -77.5 27t-25.5 85q-9 30 12 65q11 7 31 13t33 6q-8 -19 -14.5 -39.5t-8.5 -36.5
q0 -39 13 -54t35 -15q41 0 59 22.5t18 53.5q-4 11 -6 27t-12 48q-33 45 -70 114t-70.5 144t-59.5 148t-37 128q20 2 48 3t58 1t58 -1t48 -3q18 -31 40 -76t43 -93.5t38.5 -95.5t27.5 -82z" />
    <glyph glyph-name="Oacute" unicode="&#x423;" horiz-adv-x="550" 
d="M349 373q2 36 15 84.5t32 97t42 93t46 72.5q15 3 40 3q26 0 41 -3q-18 -56 -46.5 -134t-60 -160t-63.5 -159t-56 -130q-26 -85 -60.5 -119.5t-89.5 -34.5h-10.5t-10.5 1q-50 -2 -77.5 27t-25.5 85q-9 30 12 65q11 7 31 13t33 6q-8 -19 -14.5 -39.5t-8.5 -36.5
q0 -39 13 -54t35 -15q41 0 59 22.5t18 53.5q-4 11 -6 27t-12 48q-33 45 -70 114t-70.5 144t-59.5 148t-37 128q20 2 48 3t58 1t58 -1t48 -3q18 -31 40 -76t43 -93.5t38.5 -95.5t27.5 -82z" />
    <glyph glyph-name="Ocircumflex" unicode="&#xd4;" horiz-adv-x="920" 
d="M557 0q-39 -13 -97 -13t-97 13q-6 14 -8.5 34.5t-2.5 41.5t2.5 41.5t8.5 34.5q-12 -3 -35 -3t-35 3q-12 -1 -23.5 -1.5t-22.5 -0.5q-120 0 -180 55t-60 153v15t1 15q0 106 64 167t192 61q9 2 22.5 3t27.5 1t27 -1t22 -3q-1 10 -1.5 23.5t-0.5 28.5t0.5 28.5t1.5 23.5
q18 3 44 4t53 1t53 -1t44 -4q1 -10 1.5 -23.5t0.5 -28.5t-0.5 -28.5t-1.5 -23.5q9 2 22 2h27h26.5t21.5 -2q11 1 21.5 1.5t20.5 0.5q109 0 162 -52t53 -145q0 -8 -0.5 -16.5t-1.5 -16.5q1 -8 1 -15v-15q0 -97 -59.5 -152.5t-180.5 -55.5q-10 0 -21.5 0.5t-22.5 1.5
q-6 -1 -15 -1.5t-19 -0.5t-19.5 0.5t-15.5 1.5q5 -32 5 -76t-5 -76zM590 551q-16 -4 -33 0q7 -31 10.5 -75.5t3.5 -91.5t-3.5 -91.5t-10.5 -75.5q17 4 33 0q47 6 79.5 46t41.5 122q-2 86 -34.5 125.5t-86.5 40.5zM329 217q17 2 34 0q0 31 -0.5 75.5t-0.5 91.5t0.5 91.5
t0.5 75.5q-17 -2 -34 0q-43 -8 -77 -47.5t-45 -118.5q7 -83 41 -123t81 -45z" />
    <glyph glyph-name="Ocircumflex" unicode="&#x424;" horiz-adv-x="920" 
d="M557 0q-39 -13 -97 -13t-97 13q-6 14 -8.5 34.5t-2.5 41.5t2.5 41.5t8.5 34.5q-12 -3 -35 -3t-35 3q-12 -1 -23.5 -1.5t-22.5 -0.5q-120 0 -180 55t-60 153v15t1 15q0 106 64 167t192 61q9 2 22.5 3t27.5 1t27 -1t22 -3q-1 10 -1.5 23.5t-0.5 28.5t0.5 28.5t1.5 23.5
q18 3 44 4t53 1t53 -1t44 -4q1 -10 1.5 -23.5t0.5 -28.5t-0.5 -28.5t-1.5 -23.5q9 2 22 2h27h26.5t21.5 -2q11 1 21.5 1.5t20.5 0.5q109 0 162 -52t53 -145q0 -8 -0.5 -16.5t-1.5 -16.5q1 -8 1 -15v-15q0 -97 -59.5 -152.5t-180.5 -55.5q-10 0 -21.5 0.5t-22.5 1.5
q-6 -1 -15 -1.5t-19 -0.5t-19.5 0.5t-15.5 1.5q5 -32 5 -76t-5 -76zM590 551q-16 -4 -33 0q7 -31 10.5 -75.5t3.5 -91.5t-3.5 -91.5t-10.5 -75.5q17 4 33 0q47 6 79.5 46t41.5 122q-2 86 -34.5 125.5t-86.5 40.5zM329 217q17 2 34 0q0 31 -0.5 75.5t-0.5 91.5t0.5 91.5
t0.5 75.5q-17 -2 -34 0q-43 -8 -77 -47.5t-45 -118.5q7 -83 41 -123t81 -45z" />
    <glyph glyph-name="Otilde" unicode="&#xd5;" horiz-adv-x="595" 
d="M340 485q8 25 24 57.5t34.5 65.5t39 62.5t37.5 49.5q8 2 19.5 3t23.5 1t24 -1t20 -3q-16 -29 -40 -70t-49.5 -84.5t-49.5 -84.5t-41 -70q31 -33 65 -85t65 -109.5t55.5 -115t35.5 -101.5q-21 -3 -51 -4t-62 -1t-61.5 1t-50.5 4q-16 22 -35 54.5t-37.5 68t-34.5 70.5
t-25 60q-11 -25 -29.5 -59.5t-39.5 -70t-42 -68.5t-37 -55q-9 -2 -21 -2h-25h-24.5t-20.5 2q11 36 33 82t50 92t58 87.5t56 67.5q-28 32 -60 82t-61.5 104.5t-53.5 109t-35 95.5q21 2 50.5 3t61.5 1t61 -1t50 -3q15 -20 33 -50.5t35.5 -63.5t32 -65t22.5 -56z" />
    <glyph glyph-name="Otilde" unicode="&#x425;" horiz-adv-x="595" 
d="M340 485q8 25 24 57.5t34.5 65.5t39 62.5t37.5 49.5q8 2 19.5 3t23.5 1t24 -1t20 -3q-16 -29 -40 -70t-49.5 -84.5t-49.5 -84.5t-41 -70q31 -33 65 -85t65 -109.5t55.5 -115t35.5 -101.5q-21 -3 -51 -4t-62 -1t-61.5 1t-50.5 4q-16 22 -35 54.5t-37.5 68t-34.5 70.5
t-25 60q-11 -25 -29.5 -59.5t-39.5 -70t-42 -68.5t-37 -55q-9 -2 -21 -2h-25h-24.5t-20.5 2q11 36 33 82t50 92t58 87.5t56 67.5q-28 32 -60 82t-61.5 104.5t-53.5 109t-35 95.5q21 2 50.5 3t61.5 1t61 -1t50 -3q15 -20 33 -50.5t35.5 -63.5t32 -65t22.5 -56z" />
    <glyph glyph-name="Odieresis" unicode="&#xd6;" horiz-adv-x="686" 
d="M261 720q12 -61 18.5 -146.5t6.5 -177.5t-6.5 -177.5t-18.5 -146.5q15 3 35 5t42 2t42.5 -2t35.5 -5q0 61 -0.5 146.5t-0.5 177.5t0.5 177.5t0.5 146.5q19 4 45.5 7t54.5 3q59 0 101 -10q7 -61 11.5 -146.5t4.5 -177.5t-4.5 -177.5t-11.5 -146.5q6 2 15.5 2h19.5h19
t15 -2q2 -16 3 -38.5t1 -45.5t-1 -45t-3 -38q-12 -7 -34 -17t-35 -15q-6 24 -6 63q0 40 6 64q-53 -12 -126.5 -18t-152.5 -6t-152.5 6t-126.5 18q-6 68 -9 163.5t-3 196.5t3 196.5t9 163.5q19 3 46 4.5t55 1.5t55 -1.5t46 -4.5z" />
    <glyph glyph-name="Odieresis" unicode="&#x426;" horiz-adv-x="686" 
d="M261 720q12 -61 18.5 -146.5t6.5 -177.5t-6.5 -177.5t-18.5 -146.5q15 3 35 5t42 2t42.5 -2t35.5 -5q0 61 -0.5 146.5t-0.5 177.5t0.5 177.5t0.5 146.5q19 4 45.5 7t54.5 3q59 0 101 -10q7 -61 11.5 -146.5t4.5 -177.5t-4.5 -177.5t-11.5 -146.5q6 2 15.5 2h19.5h19
t15 -2q2 -16 3 -38.5t1 -45.5t-1 -45t-3 -38q-12 -7 -34 -17t-35 -15q-6 24 -6 63q0 40 6 64q-53 -12 -126.5 -18t-152.5 -6t-152.5 6t-126.5 18q-6 68 -9 163.5t-3 196.5t3 196.5t9 163.5q19 3 46 4.5t55 1.5t55 -1.5t46 -4.5z" />
    <glyph glyph-name="multiply" unicode="&#xd7;" horiz-adv-x="636" 
d="M375 374q-7 32 -10 78t-3 95t3 95t10 78q19 4 46 6.5t55 2.5t54.5 -2.5t45.5 -6.5q0 -68 0.5 -163.5t0.5 -196.5t-0.5 -196.5t-0.5 -163.5q-19 -4 -45.5 -7t-54.5 -3q-59 0 -101 10q-4 28 -5.5 68.5t-1.5 83.5t1.5 83.5t5.5 69.5q-14 -5 -35.5 -8t-40.5 -3h-11.5t-10.5 1
q-8 0 -15.5 -0.5t-15.5 -0.5q-64 0 -106.5 11.5t-68 35.5t-36.5 60.5t-11 85.5v22q-2 19 -3 47t-1 58t1 58t3 48q18 4 44.5 6.5t53.5 2.5t53 -2.5t44 -6.5q5 -20 7 -47.5t2 -56.5t-2 -56.5t-7 -46.5q2 -86 24 -115.5t68 -30.5q16 2 33.5 4.5t30.5 2.5z" />
    <glyph glyph-name="multiply" unicode="&#x427;" horiz-adv-x="636" 
d="M375 374q-7 32 -10 78t-3 95t3 95t10 78q19 4 46 6.5t55 2.5t54.5 -2.5t45.5 -6.5q0 -68 0.5 -163.5t0.5 -196.5t-0.5 -196.5t-0.5 -163.5q-19 -4 -45.5 -7t-54.5 -3q-59 0 -101 10q-4 28 -5.5 68.5t-1.5 83.5t1.5 83.5t5.5 69.5q-14 -5 -35.5 -8t-40.5 -3h-11.5t-10.5 1
q-8 0 -15.5 -0.5t-15.5 -0.5q-64 0 -106.5 11.5t-68 35.5t-36.5 60.5t-11 85.5v22q-2 19 -3 47t-1 58t1 58t3 48q18 4 44.5 6.5t53.5 2.5t53 -2.5t44 -6.5q5 -20 7 -47.5t2 -56.5t-2 -56.5t-7 -46.5q2 -86 24 -115.5t68 -30.5q16 2 33.5 4.5t30.5 2.5z" />
    <glyph glyph-name="Oslash" unicode="&#xd8;" horiz-adv-x="899" 
d="M485 72q30 6 77 6q22 0 42.5 -1.5t35.5 -4.5q-15 61 -22 146.5t-7 177.5t7 177.5t22 146.5h200q18 -68 26.5 -163.5t8.5 -196.5t-8.5 -196.5t-26.5 -163.5q-74 -9 -177 -14t-213 -5t-213 5t-177 14q-10 68 -15 163.5t-5 196.5t5 196.5t15 163.5q19 2 45.5 3t55.5 1
t55.5 -1t45.5 -3q8 -61 11 -146.5t3 -177.5t-3 -177.5t-11 -146.5q30 8 77 8t77 -8q-12 52 -18 126.5t-6 152.5t6 152.5t18 126.5q6 1 15 1.5t19 0.5t19.5 -0.5t15.5 -1.5q9 -52 13 -126.5t4 -152.5t-4 -152.5t-13 -126.5z" />
    <glyph glyph-name="Oslash" unicode="&#x428;" horiz-adv-x="899" 
d="M485 72q30 6 77 6q22 0 42.5 -1.5t35.5 -4.5q-15 61 -22 146.5t-7 177.5t7 177.5t22 146.5h200q18 -68 26.5 -163.5t8.5 -196.5t-8.5 -196.5t-26.5 -163.5q-74 -9 -177 -14t-213 -5t-213 5t-177 14q-10 68 -15 163.5t-5 196.5t5 196.5t15 163.5q19 2 45.5 3t55.5 1
t55.5 -1t45.5 -3q8 -61 11 -146.5t3 -177.5t-3 -177.5t-11 -146.5q30 8 77 8t77 -8q-12 52 -18 126.5t-6 152.5t6 152.5t18 126.5q6 1 15 1.5t19 0.5t19.5 -0.5t15.5 -1.5q9 -52 13 -126.5t4 -152.5t-4 -152.5t-13 -126.5z" />
    <glyph glyph-name="Ugrave" unicode="&#xd9;" horiz-adv-x="909" 
d="M485 72q15 4 35 6t42 2t42.5 -2t35.5 -6q-4 61 -6.5 146.5t-2.5 177.5t2.5 177.5t6.5 146.5q39 14 100 14t100 -14q24 -61 35.5 -146.5t11.5 -177.5t-11.5 -177.5t-35.5 -146.5q12 3 34 3q23 0 35 -3q4 -16 5.5 -38.5t1.5 -45.5t-1.5 -45t-5.5 -38q-13 -6 -34.5 -16
t-34.5 -16q-6 24 -6 63q0 40 6 64q-74 -9 -177 -14t-213 -5t-213 5t-177 14q-10 68 -15 163.5t-5 196.5t5 196.5t15 163.5q19 2 45.5 3t55.5 1t55.5 -1t45.5 -3q8 -61 11 -146.5t3 -177.5t-3 -177.5t-11 -146.5q30 8 77 8t77 -8q-12 52 -18 126.5t-6 152.5t6 152.5t18 126.5
q6 1 15 1.5t19 0.5t19.5 -0.5t15.5 -1.5q9 -52 13 -126.5t4 -152.5t-4 -152.5t-13 -126.5z" />
    <glyph glyph-name="Ugrave" unicode="&#x429;" horiz-adv-x="909" 
d="M485 72q15 4 35 6t42 2t42.5 -2t35.5 -6q-4 61 -6.5 146.5t-2.5 177.5t2.5 177.5t6.5 146.5q39 14 100 14t100 -14q24 -61 35.5 -146.5t11.5 -177.5t-11.5 -177.5t-35.5 -146.5q12 3 34 3q23 0 35 -3q4 -16 5.5 -38.5t1.5 -45.5t-1.5 -45t-5.5 -38q-13 -6 -34.5 -16
t-34.5 -16q-6 24 -6 63q0 40 6 64q-74 -9 -177 -14t-213 -5t-213 5t-177 14q-10 68 -15 163.5t-5 196.5t5 196.5t15 163.5q19 2 45.5 3t55.5 1t55.5 -1t45.5 -3q8 -61 11 -146.5t3 -177.5t-3 -177.5t-11 -146.5q30 8 77 8t77 -8q-12 52 -18 126.5t-6 152.5t6 152.5t18 126.5
q6 1 15 1.5t19 0.5t19.5 -0.5t15.5 -1.5q9 -52 13 -126.5t4 -152.5t-4 -152.5t-13 -126.5z" />
    <glyph glyph-name="Uacute" unicode="&#xda;" horiz-adv-x="711" 
d="M-7 720q33 9 78.5 13t94.5 4t95 -4t79 -13q8 -59 8 -148t-8 -148q7 2 16 2h19h19t16 -2q8 0 15 0.5t14 0.5q264 0 255 -214q9 -211 -232 -211h-23q-29 -8 -68.5 -11t-82.5 -3t-82.5 3t-68.5 11q-14 61 -21.5 146.5t-7.5 177.5t7.5 177.5t21.5 146.5q-13 -2 -32.5 -2
h-39.5h-39.5t-32.5 2q-1 7 -1.5 16.5t-0.5 19.5t0.5 19.5t1.5 16.5zM340 359q10 -27 15 -66.5t5 -80.5t-5 -80.5t-15 -66.5q9 3 22 3q14 0 23 -3q100 9 110 142q-14 141 -110 152h-45z" />
    <glyph glyph-name="Uacute" unicode="&#x42a;" horiz-adv-x="711" 
d="M-7 720q33 9 78.5 13t94.5 4t95 -4t79 -13q8 -59 8 -148t-8 -148q7 2 16 2h19h19t16 -2q8 0 15 0.5t14 0.5q264 0 255 -214q9 -211 -232 -211h-23q-29 -8 -68.5 -11t-82.5 -3t-82.5 3t-68.5 11q-14 61 -21.5 146.5t-7.5 177.5t7.5 177.5t21.5 146.5q-13 -2 -32.5 -2
h-39.5h-39.5t-32.5 2q-1 7 -1.5 16.5t-0.5 19.5t0.5 19.5t1.5 16.5zM340 359q10 -27 15 -66.5t5 -80.5t-5 -80.5t-15 -66.5q9 3 22 3q14 0 23 -3q100 9 110 142q-14 141 -110 152h-45z" />
    <glyph glyph-name="Ucircumflex" unicode="&#xdb;" horiz-adv-x="938" 
d="M60 720q19 3 45.5 4.5t55.5 1.5t55.5 -1.5t45.5 -4.5q3 -28 5 -67t2 -81t-2 -81t-5 -67q7 1 16 1.5t19 0.5t19 -0.5t16 -1.5q30 3 58 3q227 0 227 -188v-14t-1 -14q1 -7 1 -13.5v-13.5q0 -186 -212 -186q-11 0 -22 0.5t-23 1.5q-28 -3 -68 -4t-82 -1t-82 1t-68 4
q-11 68 -16.5 163.5t-5.5 196.5t5.5 196.5t16.5 163.5zM262 359q6 -27 8.5 -66.5t2.5 -80.5t-2.5 -80.5t-8.5 -66.5q4 1 10 1.5t12 0.5t12 -0.5t11 -1.5q110 0 110 142q-15 141 -110 152q-5 0 -11 -0.5t-12 -0.5t-12 0.5t-10 0.5zM677 0q-19 68 -28 163.5t-9 196.5t9 196.5
t28 163.5q19 2 46 2.5t55 0.5t54.5 -0.5t45.5 -2.5q24 -68 36 -163.5t12 -196.5t-12 -196.5t-36 -163.5q-19 -8 -45.5 -11t-54.5 -3t-55 3t-46 11z" />
    <glyph glyph-name="Ucircumflex" unicode="&#x42b;" horiz-adv-x="938" 
d="M60 720q19 3 45.5 4.5t55.5 1.5t55.5 -1.5t45.5 -4.5q3 -28 5 -67t2 -81t-2 -81t-5 -67q7 1 16 1.5t19 0.5t19 -0.5t16 -1.5q30 3 58 3q227 0 227 -188v-14t-1 -14q1 -7 1 -13.5v-13.5q0 -186 -212 -186q-11 0 -22 0.5t-23 1.5q-28 -3 -68 -4t-82 -1t-82 1t-68 4
q-11 68 -16.5 163.5t-5.5 196.5t5.5 196.5t16.5 163.5zM262 359q6 -27 8.5 -66.5t2.5 -80.5t-2.5 -80.5t-8.5 -66.5q4 1 10 1.5t12 0.5t12 -0.5t11 -1.5q110 0 110 142q-15 141 -110 152q-5 0 -11 -0.5t-12 -0.5t-12 0.5t-10 0.5zM677 0q-19 68 -28 163.5t-9 196.5t9 196.5
t28 163.5q19 2 46 2.5t55 0.5t54.5 -0.5t45.5 -2.5q24 -68 36 -163.5t12 -196.5t-12 -196.5t-36 -163.5q-19 -8 -45.5 -11t-54.5 -3t-55 3t-46 11z" />
    <glyph glyph-name="Udieresis" unicode="&#xdc;" horiz-adv-x="631" 
d="M59 720q19 3 46 4.5t55 1.5t55 -1.5t46 -4.5q3 -28 5 -67t2 -81t-2 -81t-5 -67q6 1 15.5 1.5t19.5 0.5t19.5 -0.5t15.5 -1.5q30 3 58 3q227 0 227 -188v-14t-1 -14q1 -7 1 -13.5v-13.5q0 -186 -212 -186q-10 0 -21.5 0.5t-23.5 1.5q-29 -3 -68.5 -4t-81.5 -1t-81.5 1
t-68.5 4q-11 68 -17 163.5t-6 196.5t6 196.5t17 163.5zM261 359q6 -27 8.5 -66.5t2.5 -80.5t-2.5 -80.5t-8.5 -66.5q5 1 11 1.5t12 0.5t12 -0.5t10 -1.5q110 0 110 142q-15 141 -110 152q-4 0 -10 -0.5t-12 -0.5t-12 0.5t-11 0.5z" />
    <glyph glyph-name="Udieresis" unicode="&#x42c;" horiz-adv-x="631" 
d="M59 720q19 3 46 4.5t55 1.5t55 -1.5t46 -4.5q3 -28 5 -67t2 -81t-2 -81t-5 -67q6 1 15.5 1.5t19.5 0.5t19.5 -0.5t15.5 -1.5q30 3 58 3q227 0 227 -188v-14t-1 -14q1 -7 1 -13.5v-13.5q0 -186 -212 -186q-10 0 -21.5 0.5t-23.5 1.5q-29 -3 -68.5 -4t-81.5 -1t-81.5 1
t-68.5 4q-11 68 -17 163.5t-6 196.5t6 196.5t17 163.5zM261 359q6 -27 8.5 -66.5t2.5 -80.5t-2.5 -80.5t-8.5 -66.5q5 1 11 1.5t12 0.5t12 -0.5t10 -1.5q110 0 110 142q-15 141 -110 152q-4 0 -10 -0.5t-12 -0.5t-12 0.5t-11 0.5z" />
    <glyph glyph-name="Yacute" unicode="&#xdd;" horiz-adv-x="624" 
d="M240 359q-3 12 -3 33q0 20 3 32q14 2 33 2h39h39t32 -2q-9 65 -23 110.5t-31 75t-36.5 45t-39.5 19.5q-103 -18 -123 -137q2 -9 3 -21t0 -28q-18 2 -46 12t-43 20q0 44 14 83t42.5 67.5t71 45t99.5 16.5q11 1 22 1.5t22 0.5q137 0 210 -82t73 -236q0 -32 -3 -68
q1 -10 1 -19.5v-18.5q0 -324 -285 -324q-6 0 -12.5 0.5t-12.5 0.5t-12 -0.5t-12 -0.5q-67 0 -114.5 18.5t-77 48.5t-42 67.5t-9.5 74.5q0 5 -0.5 10.5t-0.5 11.5t0.5 11.5t0.5 10.5q16 7 42.5 15.5t43.5 11.5q-1 -23 -2.5 -41t-4.5 -29q7 -64 46.5 -104.5t95.5 -46.5
q70 2 104 83t39 231q-30 -5 -71 -5q-42 0 -72 5z" />
    <glyph glyph-name="Yacute" unicode="&#x42d;" horiz-adv-x="624" 
d="M240 359q-3 12 -3 33q0 20 3 32q14 2 33 2h39h39t32 -2q-9 65 -23 110.5t-31 75t-36.5 45t-39.5 19.5q-103 -18 -123 -137q2 -9 3 -21t0 -28q-18 2 -46 12t-43 20q0 44 14 83t42.5 67.5t71 45t99.5 16.5q11 1 22 1.5t22 0.5q137 0 210 -82t73 -236q0 -32 -3 -68
q1 -10 1 -19.5v-18.5q0 -324 -285 -324q-6 0 -12.5 0.5t-12.5 0.5t-12 -0.5t-12 -0.5q-67 0 -114.5 18.5t-77 48.5t-42 67.5t-9.5 74.5q0 5 -0.5 10.5t-0.5 11.5t0.5 11.5t0.5 10.5q16 7 42.5 15.5t43.5 11.5q-1 -23 -2.5 -41t-4.5 -29q7 -64 46.5 -104.5t95.5 -46.5
q70 2 104 83t39 231q-30 -5 -71 -5q-42 0 -72 5z" />
    <glyph glyph-name="Thorn" unicode="&#xde;" horiz-adv-x="945" 
d="M59 0q-17 68 -24.5 163.5t-7.5 196.5t7.5 196.5t24.5 163.5h202q7 -28 10.5 -67t3.5 -81t-3.5 -81t-10.5 -67q7 2 17.5 2h21.5h21.5t17.5 -2q6 308 262 308h13.5t13.5 -1h20q272 0 272 -333v-18.5t-1 -19.5q1 -10 1 -19.5v-18.5q0 -346 -292 -334q-10 -1 -20 -1.5
t-20 -0.5q-255 0 -255 301q0 35 3 72q-15 -3 -38 -3q-22 0 -37 3q3 -34 4.5 -81.5t1.5 -97.5t-1.5 -98t-4.5 -82q-19 -3 -46 -4.5t-55 -1.5t-55 1.5t-46 4.5zM628 673q-71 -3 -80 -313q42 -303 80 -314q34 12 79 314q-24 307 -79 313z" />
    <glyph glyph-name="Thorn" unicode="&#x42e;" horiz-adv-x="945" 
d="M59 0q-17 68 -24.5 163.5t-7.5 196.5t7.5 196.5t24.5 163.5h202q7 -28 10.5 -67t3.5 -81t-3.5 -81t-10.5 -67q7 2 17.5 2h21.5h21.5t17.5 -2q6 308 262 308h13.5t13.5 -1h20q272 0 272 -333v-18.5t-1 -19.5q1 -10 1 -19.5v-18.5q0 -346 -292 -334q-10 -1 -20 -1.5
t-20 -0.5q-255 0 -255 301q0 35 3 72q-15 -3 -38 -3q-22 0 -37 3q3 -34 4.5 -81.5t1.5 -97.5t-1.5 -98t-4.5 -82q-19 -3 -46 -4.5t-55 -1.5t-55 1.5t-46 4.5zM628 673q-71 -3 -80 -313q42 -303 80 -314q34 12 79 314q-24 307 -79 313z" />
    <glyph glyph-name="germandbls" unicode="&#xdf;" horiz-adv-x="658" 
d="M597 0q-19 -8 -45 -11t-55 -3t-55 3t-45 11q-6 30 -9 72.5t-3 87.5t3 87.5t9 72.5q-17 -4 -34 0q-52 0 -75.5 -23t-23.5 -75q2 -9 3 -22.5t1 -26.5t-1 -26.5t-3 -22.5q1 -7 1 -13v-12q0 -29 -5.5 -53.5t-16.5 -45.5q-21 -3 -50 -4.5t-60 -1.5t-60 1.5t-50 4.5
q13 20 24.5 60t15.5 100q0 6 -0.5 12t-0.5 12q0 75 28.5 110.5t102.5 50.5q-64 8 -103 47t-39 102v10.5t1 11.5q-1 7 -1 13.5v12.5q0 79 51.5 129t161.5 50h17.5t18.5 -1q28 3 67 4t81 1t81.5 -1t67.5 -4q11 -68 17 -163.5t6 -196.5t-6 -196.5t-17 -163.5zM397 379
q-6 25 -9 61.5t-3 75.5t3 75.5t9 62.5q-5 -2 -10 -2h-11h-11t-10 2q-50 -6 -78.5 -44t-35.5 -94q2 -61 30.5 -98.5t83.5 -38.5q9 3 21 3t21 -3z" />
    <glyph glyph-name="germandbls" unicode="&#x42f;" horiz-adv-x="658" 
d="M597 0q-19 -8 -45 -11t-55 -3t-55 3t-45 11q-6 30 -9 72.5t-3 87.5t3 87.5t9 72.5q-17 -4 -34 0q-52 0 -75.5 -23t-23.5 -75q2 -9 3 -22.5t1 -26.5t-1 -26.5t-3 -22.5q1 -7 1 -13v-12q0 -29 -5.5 -53.5t-16.5 -45.5q-21 -3 -50 -4.5t-60 -1.5t-60 1.5t-50 4.5
q13 20 24.5 60t15.5 100q0 6 -0.5 12t-0.5 12q0 75 28.5 110.5t102.5 50.5q-64 8 -103 47t-39 102v10.5t1 11.5q-1 7 -1 13.5v12.5q0 79 51.5 129t161.5 50h17.5t18.5 -1q28 3 67 4t81 1t81.5 -1t67.5 -4q11 -68 17 -163.5t6 -196.5t-6 -196.5t-17 -163.5zM397 379
q-6 25 -9 61.5t-3 75.5t3 75.5t9 62.5q-5 -2 -10 -2h-11h-11t-10 2q-50 -6 -78.5 -44t-35.5 -94q2 -61 30.5 -98.5t83.5 -38.5q9 3 21 3t21 -3z" />
    <glyph glyph-name="agrave" unicode="&#xe0;" horiz-adv-x="562" 
d="M-7 0q11 70 33.5 167t51.5 198t61 195.5t60 159.5q17 3 40 4t48 1t48 -1t40 -4q26 -65 56 -159.5t57 -196t49 -198t32 -166.5q-19 -2 -46 -3t-55 -1t-55 1t-46 3q-7 14 -14.5 34t-13.5 42t-10 43t-4 37q-19 -4 -47.5 -6.5t-57.5 -2.5t-57.5 2.5t-47.5 6.5
q-3 -15 -8.5 -36t-11.5 -43t-12.5 -42.5t-11.5 -34.5q-7 -2 -17.5 -2h-21.5h-21.5t-17.5 2zM306 228q-15 28 -29 69.5t-25.5 86.5t-19 88.5t-7.5 75.5q-8 -30 -20 -72.5t-24.5 -87.5t-24 -87.5t-20.5 -72.5q16 4 38.5 6t46.5 2t46.5 -2t38.5 -6z" />
    <glyph glyph-name="agrave" unicode="&#x430;" horiz-adv-x="562" 
d="M-7 0q11 70 33.5 167t51.5 198t61 195.5t60 159.5q17 3 40 4t48 1t48 -1t40 -4q26 -65 56 -159.5t57 -196t49 -198t32 -166.5q-19 -2 -46 -3t-55 -1t-55 1t-46 3q-7 14 -14.5 34t-13.5 42t-10 43t-4 37q-19 -4 -47.5 -6.5t-57.5 -2.5t-57.5 2.5t-47.5 6.5
q-3 -15 -8.5 -36t-11.5 -43t-12.5 -42.5t-11.5 -34.5q-7 -2 -17.5 -2h-21.5h-21.5t-17.5 2zM306 228q-15 28 -29 69.5t-25.5 86.5t-19 88.5t-7.5 75.5q-8 -30 -20 -72.5t-24.5 -87.5t-24 -87.5t-20.5 -72.5q16 4 38.5 6t46.5 2t46.5 -2t38.5 -6z" />
    <glyph glyph-name="aacute" unicode="&#xe1;" horiz-adv-x="632" 
d="M60 720q46 12 112 18t136 6t136 -6t113 -18q1 -7 1 -16.5v-19.5v-19.5t-1 -16.5q-28 -4 -67 -6t-80 -2t-80.5 2t-67.5 6q3 -21 4 -50.5t1 -61.5t-1 -61.5t-4 -50.5q7 1 16 1.5t19 0.5t19 -0.5t16 -1.5q30 3 58 3q226 0 226 -188v-14t-1 -14q1 -7 1 -14v-14
q0 -185 -211 -185q-11 0 -22.5 0.5t-23.5 1.5q-29 -3 -68 -4t-81 -1t-82 1t-68 4q-11 68 -16.5 163.5t-5.5 196.5t5.5 196.5t16.5 163.5zM262 359q10 -27 15 -66.5t5 -80.5t-5 -80.5t-15 -66.5q9 3 22 3q14 0 23 -3q100 9 110 142q-14 141 -110 152h-45z" />
    <glyph glyph-name="aacute" unicode="&#x431;" horiz-adv-x="632" 
d="M60 720q46 12 112 18t136 6t136 -6t113 -18q1 -7 1 -16.5v-19.5v-19.5t-1 -16.5q-28 -4 -67 -6t-80 -2t-80.5 2t-67.5 6q3 -21 4 -50.5t1 -61.5t-1 -61.5t-4 -50.5q7 1 16 1.5t19 0.5t19 -0.5t16 -1.5q30 3 58 3q226 0 226 -188v-14t-1 -14q1 -7 1 -14v-14
q0 -185 -211 -185q-11 0 -22.5 0.5t-23.5 1.5q-29 -3 -68 -4t-81 -1t-82 1t-68 4q-11 68 -16.5 163.5t-5.5 196.5t5.5 196.5t16.5 163.5zM262 359q10 -27 15 -66.5t5 -80.5t-5 -80.5t-15 -66.5q9 3 22 3q14 0 23 -3q100 9 110 142q-14 141 -110 152h-45z" />
    <glyph glyph-name="acircumflex" unicode="&#xe2;" horiz-adv-x="655" 
d="M403 0q-32 -4 -78 -7t-94 -3t-94 3t-78 7q-7 68 -11.5 163.5t-4.5 196.5t4.5 196.5t11.5 163.5q29 3 70 5t85 2t85 -2t70 -5q13 2 25.5 2h23.5q190 0 190 -155v-12t-1 -12q1 -5 1 -10.5v-10.5q0 -118 -146 -140q181 -28 175 -190q10 -193 -202 -193h-15.5t-16.5 1z
M316 347q-5 -1 -12.5 -1.5t-15.5 -0.5t-15 0.5t-12 1.5q13 -59 13 -144q0 -86 -13 -144h57q100 11 114 135q-7 147 -116 153zM317 660q-11 -3 -28 -3t-28 3q13 -52 13 -126q0 -75 -13 -127q6 0 14 0.5t17 0.5t17 -0.5t14 -0.5q68 12 86 131q-18 108 -92 122z" />
    <glyph glyph-name="acircumflex" unicode="&#x432;" horiz-adv-x="655" 
d="M403 0q-32 -4 -78 -7t-94 -3t-94 3t-78 7q-7 68 -11.5 163.5t-4.5 196.5t4.5 196.5t11.5 163.5q29 3 70 5t85 2t85 -2t70 -5q13 2 25.5 2h23.5q190 0 190 -155v-12t-1 -12q1 -5 1 -10.5v-10.5q0 -118 -146 -140q181 -28 175 -190q10 -193 -202 -193h-15.5t-16.5 1z
M316 347q-5 -1 -12.5 -1.5t-15.5 -0.5t-15 0.5t-12 1.5q13 -59 13 -144q0 -86 -13 -144h57q100 11 114 135q-7 147 -116 153zM317 660q-11 -3 -28 -3t-28 3q13 -52 13 -126q0 -75 -13 -127q6 0 14 0.5t17 0.5t17 -0.5t14 -0.5q68 12 86 131q-18 108 -92 122z" />
    <glyph glyph-name="atilde" unicode="&#xe3;" horiz-adv-x="505" 
d="M59 0q-7 68 -11.5 163.5t-4.5 196.5t4.5 196.5t11.5 163.5q42 4 102.5 7t124.5 3t124.5 -3t102.5 -7q1 -7 2.5 -16.5t1.5 -19.5t-1.5 -19.5t-2.5 -16.5q-24 -6 -57.5 -8.5t-68.5 -2.5t-68.5 2.5t-57.5 8.5q5 -61 8 -146.5t3 -177.5t-3 -177.5t-8 -146.5q-19 -3 -46 -4.5
t-55 -1.5t-55 1.5t-46 4.5z" />
    <glyph glyph-name="atilde" unicode="&#x433;" horiz-adv-x="505" 
d="M59 0q-7 68 -11.5 163.5t-4.5 196.5t4.5 196.5t11.5 163.5q42 4 102.5 7t124.5 3t124.5 -3t102.5 -7q1 -7 2.5 -16.5t1.5 -19.5t-1.5 -19.5t-2.5 -16.5q-24 -6 -57.5 -8.5t-68.5 -2.5t-68.5 2.5t-57.5 8.5q5 -61 8 -146.5t3 -177.5t-3 -177.5t-8 -146.5q-19 -3 -46 -4.5
t-55 -1.5t-55 1.5t-46 4.5z" />
    <glyph glyph-name="adieresis" unicode="&#xe4;" horiz-adv-x="612" 
d="M535 -127q-9 24 -9 63q0 40 9 64q-43 -9 -105.5 -13.5t-127.5 -4.5t-127.5 4.5t-105.5 13.5q6 -24 6 -64q0 -39 -6 -63q-13 6 -34.5 16t-34.5 16q-4 16 -6 38t-2 45t2 45.5t6 38.5q12 2 25 2t25 -2q15 2 31 36.5t20 87.5q-6 50 -8.5 119t-2.5 143t2.5 143t8.5 119
q41 4 98.5 7t118.5 3t118.5 -3t98.5 -7q15 -61 23 -146.5t8 -177.5t-8 -177.5t-23 -146.5q12 3 35 3q22 0 34 -3q2 -16 2.5 -38.5t0.5 -45.5t-0.5 -45t-2.5 -38q-12 -8 -33.5 -18t-35.5 -14zM170 648q9 -40 14 -97.5t5 -118.5t-5 -118.5t-14 -98.5q2 -12 3 -22.5t1 -21.5
q0 -63 -30 -99q40 10 95 10t95 -10q-4 54 -6 130.5t-2 157.5t2 157.5t6 130.5q-15 -6 -37 -8.5t-45 -2.5t-45 2.5t-37 8.5z" />
    <glyph glyph-name="adieresis" unicode="&#x434;" horiz-adv-x="612" 
d="M535 -127q-9 24 -9 63q0 40 9 64q-43 -9 -105.5 -13.5t-127.5 -4.5t-127.5 4.5t-105.5 13.5q6 -24 6 -64q0 -39 -6 -63q-13 6 -34.5 16t-34.5 16q-4 16 -6 38t-2 45t2 45.5t6 38.5q12 2 25 2t25 -2q15 2 31 36.5t20 87.5q-6 50 -8.5 119t-2.5 143t2.5 143t8.5 119
q41 4 98.5 7t118.5 3t118.5 -3t98.5 -7q15 -61 23 -146.5t8 -177.5t-8 -177.5t-23 -146.5q12 3 35 3q22 0 34 -3q2 -16 2.5 -38.5t0.5 -45.5t-0.5 -45t-2.5 -38q-12 -8 -33.5 -18t-35.5 -14zM170 648q9 -40 14 -97.5t5 -118.5t-5 -118.5t-14 -98.5q2 -12 3 -22.5t1 -21.5
q0 -63 -30 -99q40 10 95 10t95 -10q-4 54 -6 130.5t-2 157.5t2 157.5t6 130.5q-15 -6 -37 -8.5t-45 -2.5t-45 2.5t-37 8.5z" />
    <glyph glyph-name="aring" unicode="&#xe5;" horiz-adv-x="555" 
d="M59 0q-13 68 -20.5 163.5t-7.5 196.5t7.5 196.5t20.5 163.5q42 10 102 15t123 5t123.5 -5t102.5 -15v-72q-23 -6 -56 -9t-68 -3t-68.5 3t-56.5 9q3 -21 4 -50.5t1 -61.5t-1 -61.5t-4 -50.5q18 3 44.5 4t54.5 1t54.5 -1t44.5 -4q1 -6 1 -14.5v-17.5v-18t-1 -15
q-40 -5 -99 -5t-99 5q7 -27 10 -65t3 -78t-3 -78.5t-10 -65.5q59 13 145 13q40 0 79.5 -3.5t66.5 -9.5q1 -7 1.5 -16.5t0.5 -19.5t-0.5 -19.5t-1.5 -16.5q-46 -8 -111.5 -11.5t-134.5 -3.5t-134.5 3.5t-112.5 11.5z" />
    <glyph glyph-name="aring" unicode="&#x435;" horiz-adv-x="555" 
d="M59 0q-13 68 -20.5 163.5t-7.5 196.5t7.5 196.5t20.5 163.5q42 10 102 15t123 5t123.5 -5t102.5 -15v-72q-23 -6 -56 -9t-68 -3t-68.5 3t-56.5 9q3 -21 4 -50.5t1 -61.5t-1 -61.5t-4 -50.5q18 3 44.5 4t54.5 1t54.5 -1t44.5 -4q1 -6 1 -14.5v-17.5v-18t-1 -15
q-40 -5 -99 -5t-99 5q7 -27 10 -65t3 -78t-3 -78.5t-10 -65.5q59 13 145 13q40 0 79.5 -3.5t66.5 -9.5q1 -7 1.5 -16.5t0.5 -19.5t-0.5 -19.5t-1.5 -16.5q-46 -8 -111.5 -11.5t-134.5 -3.5t-134.5 3.5t-112.5 11.5z" />
    <glyph glyph-name="ae" unicode="&#xe6;" horiz-adv-x="1008" 
d="M75 720q9 2 21 3t26 1t25.5 -1t20.5 -3q28 -26 62.5 -66.5t68 -85.5t62.5 -90t46 -79q-7 30 -10 73t-3 88t3 87.5t10 72.5q40 10 97 10q56 0 96 -10q8 -30 12 -72.5t4 -87.5t-4 -88t-12 -73q20 32 50.5 75.5t64.5 88.5t66.5 87t57.5 70q18 6 47 6t47 -6q-8 -28 -27 -61
t-43 -65t-51.5 -59t-51.5 -42q34 -41 73 -104t75 -132.5t65 -137.5t44 -119q-21 -4 -51 -7t-61 -3t-61 3t-51 7q-16 29 -38 71t-45 86t-44.5 86t-36.5 72q-4 -7 -13 -18t-16 -15q3 -26 5 -63.5t2 -77.5t-2 -77.5t-5 -63.5q-18 -3 -43.5 -4t-52.5 -1t-53 1t-44 4
q-3 26 -4.5 63.5t-1.5 77.5t1.5 77.5t4.5 63.5q-6 5 -15.5 15.5t-13.5 17.5q-8 -33 -26 -77t-41 -88t-48 -84t-48 -66q-21 -4 -50 -7t-61 -3t-61.5 3t-50.5 7q20 48 51.5 114.5t67.5 136t72 134t64 108.5q-19 19 -44 47.5t-49 60.5t-45 63.5t-34 55.5z" />
    <glyph glyph-name="ae" unicode="&#x436;" horiz-adv-x="1008" 
d="M75 720q9 2 21 3t26 1t25.5 -1t20.5 -3q28 -26 62.5 -66.5t68 -85.5t62.5 -90t46 -79q-7 30 -10 73t-3 88t3 87.5t10 72.5q40 10 97 10q56 0 96 -10q8 -30 12 -72.5t4 -87.5t-4 -88t-12 -73q20 32 50.5 75.5t64.5 88.5t66.5 87t57.5 70q18 6 47 6t47 -6q-8 -28 -27 -61
t-43 -65t-51.5 -59t-51.5 -42q34 -41 73 -104t75 -132.5t65 -137.5t44 -119q-21 -4 -51 -7t-61 -3t-61 3t-51 7q-16 29 -38 71t-45 86t-44.5 86t-36.5 72q-4 -7 -13 -18t-16 -15q3 -26 5 -63.5t2 -77.5t-2 -77.5t-5 -63.5q-18 -3 -43.5 -4t-52.5 -1t-53 1t-44 4
q-3 26 -4.5 63.5t-1.5 77.5t1.5 77.5t4.5 63.5q-6 5 -15.5 15.5t-13.5 17.5q-8 -33 -26 -77t-41 -88t-48 -84t-48 -66q-21 -4 -50 -7t-61 -3t-61.5 3t-50.5 7q20 48 51.5 114.5t67.5 136t72 134t64 108.5q-19 19 -44 47.5t-49 60.5t-45 63.5t-34 55.5z" />
    <glyph glyph-name="ccedilla" unicode="&#xe7;" horiz-adv-x="579" 
d="M27 239q16 9 44.5 17.5t47.5 9.5q-1 -22 -5 -52t-8 -45q10 -106 118 -116q106 12 121 141q-7 71 -41 102.5t-104 38.5q-4 0 -10.5 -0.5t-12.5 -0.5t-12.5 0.5t-10.5 0.5q-6 15 -6 43q0 27 6 42q16 6 31 0q85 6 116.5 36.5t36.5 96.5q-10 105 -109 115q-107 0 -107 -103
q4 -11 6 -35t2 -42q-19 4 -48.5 14t-45.5 18q0 5 -0.5 10t-0.5 10q0 93 51.5 143t155.5 50q6 0 12 -0.5t13 -0.5t15 0.5t15 0.5q240 0 232 -187q7 -128 -149 -166q169 -22 169 -157v-12t-1 -13q1 -7 1 -13.5v-12.5q0 -187 -228 -187q-13 0 -26 0.5t-27 1.5h-23
q-233 0 -227 175q-5 35 9 77z" />
    <glyph glyph-name="ccedilla" unicode="&#x437;" horiz-adv-x="579" 
d="M27 239q16 9 44.5 17.5t47.5 9.5q-1 -22 -5 -52t-8 -45q10 -106 118 -116q106 12 121 141q-7 71 -41 102.5t-104 38.5q-4 0 -10.5 -0.5t-12.5 -0.5t-12.5 0.5t-10.5 0.5q-6 15 -6 43q0 27 6 42q16 6 31 0q85 6 116.5 36.5t36.5 96.5q-10 105 -109 115q-107 0 -107 -103
q4 -11 6 -35t2 -42q-19 4 -48.5 14t-45.5 18q0 5 -0.5 10t-0.5 10q0 93 51.5 143t155.5 50q6 0 12 -0.5t13 -0.5t15 0.5t15 0.5q240 0 232 -187q7 -128 -149 -166q169 -22 169 -157v-12t-1 -13q1 -7 1 -13.5v-12.5q0 -187 -228 -187q-13 0 -26 0.5t-27 1.5h-23
q-233 0 -227 175q-5 35 9 77z" />
    <glyph glyph-name="egrave" unicode="&#xe8;" horiz-adv-x="705" 
d="M444 530h-3q-5 -54 -23 -126t-43 -146.5t-55 -143t-59 -114.5h-202q-18 68 -26.5 163.5t-8.5 196.5t8.5 196.5t26.5 163.5q19 3 46 4t55 1t55 -1t46 -4q7 -50 11 -120t4 -145t-4 -145t-11 -120h2q11 52 32 123.5t46.5 146t52.5 143.5t50 117q19 4 45.5 7t54.5 3
q59 0 101 -10q16 -68 23.5 -163.5t7.5 -196.5t-7.5 -196.5t-23.5 -163.5q-19 -2 -46 -2.5t-55 -0.5t-54.5 0.5t-45.5 2.5q-8 50 -12 120t-4 145t4 145t12 120z" />
    <glyph glyph-name="egrave" unicode="&#x438;" horiz-adv-x="705" 
d="M444 530h-3q-5 -54 -23 -126t-43 -146.5t-55 -143t-59 -114.5h-202q-18 68 -26.5 163.5t-8.5 196.5t8.5 196.5t26.5 163.5q19 3 46 4t55 1t55 -1t46 -4q7 -50 11 -120t4 -145t-4 -145t-11 -120h2q11 52 32 123.5t46.5 146t52.5 143.5t50 117q19 4 45.5 7t54.5 3
q59 0 101 -10q16 -68 23.5 -163.5t7.5 -196.5t-7.5 -196.5t-23.5 -163.5q-19 -2 -46 -2.5t-55 -0.5t-54.5 0.5t-45.5 2.5q-8 50 -12 120t-4 145t4 145t12 120z" />
    <glyph glyph-name="eacute" unicode="&#xe9;" horiz-adv-x="705" 
d="M444 530h-3q-5 -54 -23 -126t-43 -146.5t-55 -143t-59 -114.5h-202q-18 68 -26.5 163.5t-8.5 196.5t8.5 196.5t26.5 163.5q19 3 46 4t55 1t55 -1t46 -4q7 -50 11 -120t4 -145t-4 -145t-11 -120h2q11 52 32 123.5t46.5 146t52.5 143.5t50 117q19 4 45.5 7t54.5 3
q59 0 101 -10q16 -68 23.5 -163.5t7.5 -196.5t-7.5 -196.5t-23.5 -163.5q-19 -2 -46 -2.5t-55 -0.5t-54.5 0.5t-45.5 2.5q-8 50 -12 120t-4 145t4 145t12 120zM190 863q12 10 34 20.5t37 14.5q9 -78 91 -87q81 9 90 87q14 -5 37 -16.5l37 -18.5q-3 -53 -35.5 -82.5
t-90.5 -29.5q-18 0 -38 3q-21 -3 -39 -3q-58 0 -89.5 29.5t-33.5 82.5z" />
    <glyph glyph-name="eacute" unicode="&#x439;" horiz-adv-x="705" 
d="M444 530h-3q-5 -54 -23 -126t-43 -146.5t-55 -143t-59 -114.5h-202q-18 68 -26.5 163.5t-8.5 196.5t8.5 196.5t26.5 163.5q19 3 46 4t55 1t55 -1t46 -4q7 -50 11 -120t4 -145t-4 -145t-11 -120h2q11 52 32 123.5t46.5 146t52.5 143.5t50 117q19 4 45.5 7t54.5 3
q59 0 101 -10q16 -68 23.5 -163.5t7.5 -196.5t-7.5 -196.5t-23.5 -163.5q-19 -2 -46 -2.5t-55 -0.5t-54.5 0.5t-45.5 2.5q-8 50 -12 120t-4 145t4 145t12 120zM190 863q12 10 34 20.5t37 14.5q9 -78 91 -87q81 9 90 87q14 -5 37 -16.5l37 -18.5q-3 -53 -35.5 -82.5
t-90.5 -29.5q-18 0 -38 3q-21 -3 -39 -3q-58 0 -89.5 29.5t-33.5 82.5z" />
    <glyph glyph-name="ecircumflex" unicode="&#xea;" horiz-adv-x="668" 
d="M261 399q17 35 45.5 80t62.5 90t68.5 85t63.5 66q9 2 21 3t26 1q30 0 46 -4q-16 -21 -39 -51.5t-47 -62.5t-47 -62t-39 -51q36 -40 76 -102.5t76 -131.5t64 -138t40 -121q-21 -3 -51.5 -4t-61.5 -1t-61.5 1t-51.5 4q-20 27 -43.5 68t-46 85t-42 87t-30.5 75
q-4 -7 -13.5 -17.5t-15.5 -15.5q3 -26 4.5 -63.5t1.5 -77.5t-1.5 -77.5t-4.5 -63.5q-43 -10 -101 -10t-101 10q-16 68 -23.5 163.5t-7.5 196.5t7.5 196.5t23.5 163.5q19 2 46 2.5t55 0.5t55 -0.5t46 -2.5q5 -30 7.5 -72.5t2.5 -87.5t-2.5 -88t-7.5 -73z" />
    <glyph glyph-name="ecircumflex" unicode="&#x43a;" horiz-adv-x="668" 
d="M261 399q17 35 45.5 80t62.5 90t68.5 85t63.5 66q9 2 21 3t26 1q30 0 46 -4q-16 -21 -39 -51.5t-47 -62.5t-47 -62t-39 -51q36 -40 76 -102.5t76 -131.5t64 -138t40 -121q-21 -3 -51.5 -4t-61.5 -1t-61.5 1t-51.5 4q-20 27 -43.5 68t-46 85t-42 87t-30.5 75
q-4 -7 -13.5 -17.5t-15.5 -15.5q3 -26 4.5 -63.5t1.5 -77.5t-1.5 -77.5t-4.5 -63.5q-43 -10 -101 -10t-101 10q-16 68 -23.5 163.5t-7.5 196.5t7.5 196.5t23.5 163.5q19 2 46 2.5t55 0.5t55 -0.5t46 -2.5q5 -30 7.5 -72.5t2.5 -87.5t-2.5 -88t-7.5 -73z" />
    <glyph glyph-name="edieresis" unicode="&#xeb;" horiz-adv-x="672" 
d="M179 158q-19 52 -28 127t-9 154t9 154t28 127q41 16 98.5 24t118.5 8t118.5 -8t97.5 -24q14 -68 21 -163.5t7 -196.5t-7 -196.5t-21 -163.5q-19 -4 -45.5 -6.5t-54.5 -2.5t-55 2.5t-46 6.5q0 61 -0.5 146.5t-0.5 177.5t0.5 177.5t0.5 146.5q-15 -4 -37 -6t-45 -2t-45 2
t-37 6q5 -40 8 -97.5t3 -118.5t-3 -118.5t-8 -98.5q1 -15 1.5 -28.5t0.5 -26.5q0 -98 -26.5 -138.5t-88.5 -37.5q-69 -3 -103.5 37t-30.5 120q-5 45 16 104q13 7 36 13.5t38 7.5q-9 -76 -18 -108q2 -56 18.5 -82t50.5 -27q31 3 38 109z" />
    <glyph glyph-name="edieresis" unicode="&#x43b;" horiz-adv-x="672" 
d="M179 158q-19 52 -28 127t-9 154t9 154t28 127q41 16 98.5 24t118.5 8t118.5 -8t97.5 -24q14 -68 21 -163.5t7 -196.5t-7 -196.5t-21 -163.5q-19 -4 -45.5 -6.5t-54.5 -2.5t-55 2.5t-46 6.5q0 61 -0.5 146.5t-0.5 177.5t0.5 177.5t0.5 146.5q-15 -4 -37 -6t-45 -2t-45 2
t-37 6q5 -40 8 -97.5t3 -118.5t-3 -118.5t-8 -98.5q1 -15 1.5 -28.5t0.5 -26.5q0 -98 -26.5 -138.5t-88.5 -37.5q-69 -3 -103.5 37t-30.5 120q-5 45 16 104q13 7 36 13.5t38 7.5q-9 -76 -18 -108q2 -56 18.5 -82t50.5 -27q31 3 38 109z" />
    <glyph glyph-name="igrave" unicode="&#xec;" horiz-adv-x="764" 
d="M387 264q8 44 23 104.5t32.5 125t35.5 124.5t33 102q39 13 97 13t97 -13q26 -68 39.5 -163.5t13.5 -196.5t-13.5 -196.5t-39.5 -163.5q-18 -4 -44 -6t-53 -2t-53 2t-44 6q-11 46 -16.5 110.5t-5.5 133.5q0 54 3 107q-9 -47 -22 -96.5t-28.5 -96t-32.5 -87.5t-34 -71
q-21 -3 -56 -3t-56 3q-19 44 -40.5 107.5t-41 131.5t-34 133.5t-20.5 113.5h-2q5 -46 8 -110.5t3 -132.5t-3 -132.5t-8 -110.5q-12 -3 -34 -3t-34 3q-16 68 -23.5 163.5t-7.5 196.5t7.5 196.5t23.5 163.5q19 2 46 3t56 1t56 -1t46 -3q19 -41 39 -100.5t38 -123.5t31 -125.5
t18 -106.5zM509 495v-12q1 3 1 6t1 6h-2z" />
    <glyph glyph-name="igrave" unicode="&#x43c;" horiz-adv-x="764" 
d="M387 264q8 44 23 104.5t32.5 125t35.5 124.5t33 102q39 13 97 13t97 -13q26 -68 39.5 -163.5t13.5 -196.5t-13.5 -196.5t-39.5 -163.5q-18 -4 -44 -6t-53 -2t-53 2t-44 6q-11 46 -16.5 110.5t-5.5 133.5q0 54 3 107q-9 -47 -22 -96.5t-28.5 -96t-32.5 -87.5t-34 -71
q-21 -3 -56 -3t-56 3q-19 44 -40.5 107.5t-41 131.5t-34 133.5t-20.5 113.5h-2q5 -46 8 -110.5t3 -132.5t-3 -132.5t-8 -110.5q-12 -3 -34 -3t-34 3q-16 68 -23.5 163.5t-7.5 196.5t7.5 196.5t23.5 163.5q19 2 46 3t56 1t56 -1t46 -3q19 -41 39 -100.5t38 -123.5t31 -125.5
t18 -106.5zM509 495v-12q1 3 1 6t1 6h-2z" />
    <glyph glyph-name="iacute" unicode="&#xed;" horiz-adv-x="686" 
d="M425 0q-7 34 -10 82t-3 98t3 97.5t10 81.5q-15 -4 -37.5 -5.5t-45.5 -1.5t-45 1.5t-37 5.5q0 -34 0.5 -81.5t0.5 -97.5t-0.5 -98t-0.5 -82q-19 -4 -45.5 -7t-54.5 -3q-59 0 -101 10q-9 68 -13 163.5t-4 196.5t4 196.5t13 163.5q19 3 46 4t55 1t54.5 -1t45.5 -4
q3 -28 5 -67t2 -81t-2 -81t-5 -67q15 2 37 3t45 1t45.5 -1t37.5 -3q-7 28 -10.5 67t-3.5 81t3.5 81t10.5 67q19 4 46 6.5t55 2.5t54.5 -2.5t45.5 -6.5q6 -68 9 -163.5t3 -196.5t-3 -196.5t-9 -163.5q-19 -3 -45.5 -4.5t-54.5 -1.5t-55 1.5t-46 4.5z" />
    <glyph glyph-name="iacute" unicode="&#x43d;" horiz-adv-x="686" 
d="M425 0q-7 34 -10 82t-3 98t3 97.5t10 81.5q-15 -4 -37.5 -5.5t-45.5 -1.5t-45 1.5t-37 5.5q0 -34 0.5 -81.5t0.5 -97.5t-0.5 -98t-0.5 -82q-19 -4 -45.5 -7t-54.5 -3q-59 0 -101 10q-9 68 -13 163.5t-4 196.5t4 196.5t13 163.5q19 3 46 4t55 1t54.5 -1t45.5 -4
q3 -28 5 -67t2 -81t-2 -81t-5 -67q15 2 37 3t45 1t45.5 -1t37.5 -3q-7 28 -10.5 67t-3.5 81t3.5 81t10.5 67q19 4 46 6.5t55 2.5t54.5 -2.5t45.5 -6.5q6 -68 9 -163.5t3 -196.5t-3 -196.5t-9 -163.5q-19 -3 -45.5 -4.5t-54.5 -1.5t-55 1.5t-46 4.5z" />
    <glyph glyph-name="icircumflex" unicode="&#xee;" horiz-adv-x="678" 
d="M345 732q11 1 22 1.5t21 0.5q262 0 262 -303q0 -33 -3 -70q3 -35 3 -67q0 -309 -270 -309q-10 0 -21 0.5t-21 1.5q-308 -11 -308 354v28q-1 12 -1 23.5v22.5q0 318 284 318h15.5t16.5 -1zM338 675q-22 -1 -39 -10.5t-28.5 -41.5t-18.5 -94t-11 -168q5 -106 12.5 -168
t19 -94.5t27.5 -42.5t38 -11q22 1 39 10.5t29 42t20 94.5t11 169q-3 106 -11 168t-20 94t-29 41.5t-39 10.5z" />
    <glyph glyph-name="icircumflex" unicode="&#x43e;" horiz-adv-x="678" 
d="M345 732q11 1 22 1.5t21 0.5q262 0 262 -303q0 -33 -3 -70q3 -35 3 -67q0 -309 -270 -309q-10 0 -21 0.5t-21 1.5q-308 -11 -308 354v28q-1 12 -1 23.5v22.5q0 318 284 318h15.5t16.5 -1zM338 675q-22 -1 -39 -10.5t-28.5 -41.5t-18.5 -94t-11 -168q5 -106 12.5 -168
t19 -94.5t27.5 -42.5t38 -11q22 1 39 10.5t29 42t20 94.5t11 169q-3 106 -11 168t-20 94t-29 41.5t-39 10.5z" />
    <glyph glyph-name="idieresis" unicode="&#xef;" horiz-adv-x="687" 
d="M426 0q-8 61 -12 146.5t-4 177.5t4 177.5t12 146.5q-15 -2 -37 -3t-45 -1t-45.5 1t-37.5 3q7 -61 10.5 -146.5t3.5 -177.5t-3.5 -177.5t-10.5 -146.5q-19 -2 -46 -3t-55 -1t-54.5 1t-45.5 3q-16 68 -25 163.5t-9 196.5t9 196.5t25 163.5q53 12 128.5 18.5t155.5 6.5
t155 -6.5t128 -18.5q6 -68 9 -163.5t3 -196.5t-3 -196.5t-9 -163.5q-19 -3 -46 -4.5t-55 -1.5t-54.5 1.5t-45.5 4.5z" />
    <glyph glyph-name="idieresis" unicode="&#x43f;" horiz-adv-x="687" 
d="M426 0q-8 61 -12 146.5t-4 177.5t4 177.5t12 146.5q-15 -2 -37 -3t-45 -1t-45.5 1t-37.5 3q7 -61 10.5 -146.5t3.5 -177.5t-3.5 -177.5t-10.5 -146.5q-19 -2 -46 -3t-55 -1t-54.5 1t-45.5 3q-16 68 -25 163.5t-9 196.5t9 196.5t25 163.5q53 12 128.5 18.5t155.5 6.5
t155 -6.5t128 -18.5q6 -68 9 -163.5t3 -196.5t-3 -196.5t-9 -163.5q-19 -3 -46 -4.5t-55 -1.5t-54.5 1.5t-45.5 4.5z" />
    <glyph glyph-name="eth" unicode="&#xf0;" horiz-adv-x="623" 
d="M262 295q4 -28 6 -67t2 -80t-2 -80.5t-6 -67.5q-19 -2 -45.5 -3t-55.5 -1t-55.5 1t-45.5 3q-8 68 -12 163.5t-4 196.5t4 196.5t12 163.5q28 8 68 11t82 3t81 -3t68 -11q12 1 23.5 1.5t22.5 0.5q211 0 211 -185v-14t-1 -14q7 -214 -261 -214h-22q-7 -1 -16 -1.5t-19 -0.5
t-19 0.5t-16 1.5zM307 654q-12 -2 -23 -2q-10 0 -22 2q7 -27 10.5 -66t3.5 -80t-3.5 -80.5t-10.5 -66.5h45q95 11 110 152q-7 135 -110 141z" />
    <glyph glyph-name="eth" unicode="&#x440;" horiz-adv-x="623" 
d="M262 295q4 -28 6 -67t2 -80t-2 -80.5t-6 -67.5q-19 -2 -45.5 -3t-55.5 -1t-55.5 1t-45.5 3q-8 68 -12 163.5t-4 196.5t4 196.5t12 163.5q28 8 68 11t82 3t81 -3t68 -11q12 1 23.5 1.5t22.5 0.5q211 0 211 -185v-14t-1 -14q7 -214 -261 -214h-22q-7 -1 -16 -1.5t-19 -0.5
t-19 0.5t-16 1.5zM307 654q-12 -2 -23 -2q-10 0 -22 2q7 -27 10.5 -66t3.5 -80t-3.5 -80.5t-10.5 -66.5h45q95 11 110 152q-7 135 -110 141z" />
    <glyph glyph-name="ntilde" unicode="&#xf1;" horiz-adv-x="624" 
d="M519 266q19 2 46.5 -7t41.5 -20q1 -5 1 -10.5v-11.5v-11.5t-1 -10.5q1 -5 1 -11v-11q0 -36 -14 -70t-42.5 -60t-72.5 -42t-104 -16q-9 0 -18 0.5t-19 1.5q-309 -2 -308 361q-3 30 -3 60q0 70 19 130t55.5 103.5t90.5 68t124 24.5q9 0 18.5 -0.5t19.5 -1.5
q59 3 102.5 -12.5t72 -44t41.5 -68.5t10 -87q-16 -8 -44 -18t-45 -14q1 16 1.5 28t1.5 21q-6 131 -123 137q-98 -12 -130 -339q26 -278 143 -290q61 2 100.5 42.5t41.5 108.5q-2 11 -4 29t-3 41z" />
    <glyph glyph-name="ntilde" unicode="&#x441;" horiz-adv-x="624" 
d="M519 266q19 2 46.5 -7t41.5 -20q1 -5 1 -10.5v-11.5v-11.5t-1 -10.5q1 -5 1 -11v-11q0 -36 -14 -70t-42.5 -60t-72.5 -42t-104 -16q-9 0 -18 0.5t-19 1.5q-309 -2 -308 361q-3 30 -3 60q0 70 19 130t55.5 103.5t90.5 68t124 24.5q9 0 18.5 -0.5t19.5 -1.5
q59 3 102.5 -12.5t72 -44t41.5 -68.5t10 -87q-16 -8 -44 -18t-45 -14q1 16 1.5 28t1.5 21q-6 131 -123 137q-98 -12 -130 -339q26 -278 143 -290q61 2 100.5 42.5t41.5 108.5q-2 11 -4 29t-3 41z" />
    <glyph glyph-name="ograve" unicode="&#xf2;" horiz-adv-x="539" 
d="M-7 648q-1 7 -1 16.5v19.5v19.5t1 16.5q53 8 126 12t151 4t151 -4t126 -12q1 -7 1 -16.5v-19.5v-19.5t-1 -16.5q-17 -2 -39 -3t-46 -1t-47 1t-39 3q15 -61 23 -146.5t8 -177.5t-8 -177.5t-23 -146.5q-20 -4 -48 -6.5t-58 -2.5t-59 2.5t-48 6.5q-5 61 -8 146.5t-3 177.5
t3 177.5t8 146.5q-17 -3 -39 -4t-46 -1t-46 1t-39 4z" />
    <glyph glyph-name="ograve" unicode="&#x442;" horiz-adv-x="539" 
d="M-7 648q-1 7 -1 16.5v19.5v19.5t1 16.5q53 8 126 12t151 4t151 -4t126 -12q1 -7 1 -16.5v-19.5v-19.5t-1 -16.5q-17 -2 -39 -3t-46 -1t-47 1t-39 3q15 -61 23 -146.5t8 -177.5t-8 -177.5t-23 -146.5q-20 -4 -48 -6.5t-58 -2.5t-59 2.5t-48 6.5q-5 61 -8 146.5t-3 177.5
t3 177.5t8 146.5q-17 -3 -39 -4t-46 -1t-46 1t-39 4z" />
    <glyph glyph-name="oacute" unicode="&#xf3;" horiz-adv-x="550" 
d="M349 373q1 37 13 85.5t31 97t43 92.5t48 72q15 6 40 6q26 0 41 -6q-10 -59 -34.5 -138.5t-56.5 -161.5t-67.5 -157.5t-67.5 -125.5q-24 -85 -57.5 -120t-87.5 -35q-6 0 -12.5 0.5t-13.5 1.5q-48 0 -75.5 29t-27.5 83q-6 29 12 65q11 5 31 11t33 8q-7 -19 -14 -39.5
t-9 -36.5q2 -38 15 -53t33 -16q40 1 58 24t19 52q-4 11 -6 27t-12 48q-34 45 -71 113.5t-70.5 143.5t-59.5 148.5t-36 128.5q20 2 48 3t58 1t58 -1t48 -3q20 -30 42 -75t43 -94t38 -96t26 -82z" />
    <glyph glyph-name="oacute" unicode="&#x443;" horiz-adv-x="550" 
d="M349 373q1 37 13 85.5t31 97t43 92.5t48 72q15 6 40 6q26 0 41 -6q-10 -59 -34.5 -138.5t-56.5 -161.5t-67.5 -157.5t-67.5 -125.5q-24 -85 -57.5 -120t-87.5 -35q-6 0 -12.5 0.5t-13.5 1.5q-48 0 -75.5 29t-27.5 83q-6 29 12 65q11 5 31 11t33 8q-7 -19 -14 -39.5
t-9 -36.5q2 -38 15 -53t33 -16q40 1 58 24t19 52q-4 11 -6 27t-12 48q-34 45 -71 113.5t-70.5 143.5t-59.5 148.5t-36 128.5q20 2 48 3t58 1t58 -1t48 -3q20 -30 42 -75t43 -94t38 -96t26 -82z" />
    <glyph glyph-name="ocircumflex" unicode="&#xf4;" horiz-adv-x="920" 
d="M557 0q-39 -13 -97 -13t-97 13q-6 14 -8.5 34.5t-2.5 41.5t2.5 41.5t8.5 34.5q-12 -3 -35 -3t-35 3q-12 -1 -23.5 -1.5t-22.5 -0.5q-120 0 -180 55t-60 153v15t1 15q0 106 64 167t192 61q9 2 22.5 3t27.5 1t27 -1t22 -3q-1 10 -1.5 23.5t-0.5 28.5t0.5 28.5t1.5 23.5
q18 3 44 4t53 1t53 -1t44 -4q1 -10 1.5 -23.5t0.5 -28.5t-0.5 -28.5t-1.5 -23.5q9 2 22 2h27h26.5t21.5 -2q11 1 21.5 1.5t20.5 0.5q109 0 162 -52t53 -145q0 -8 -0.5 -16.5t-1.5 -16.5q1 -8 1 -15v-15q0 -97 -59.5 -152.5t-180.5 -55.5q-10 0 -21.5 0.5t-22.5 1.5
q-6 -1 -15 -1.5t-19 -0.5t-19.5 0.5t-15.5 1.5q5 -32 5 -76t-5 -76zM590 551q-16 -4 -33 0q7 -31 10.5 -75.5t3.5 -91.5t-3.5 -91.5t-10.5 -75.5q17 4 33 0q47 6 79.5 46t41.5 122q-2 86 -34.5 125.5t-86.5 40.5zM329 217q17 2 34 0q0 31 -0.5 75.5t-0.5 91.5t0.5 91.5
t0.5 75.5q-17 -2 -34 0q-43 -8 -77 -47.5t-45 -118.5q7 -83 41 -123t81 -45z" />
    <glyph glyph-name="ocircumflex" unicode="&#x444;" horiz-adv-x="920" 
d="M557 0q-39 -13 -97 -13t-97 13q-6 14 -8.5 34.5t-2.5 41.5t2.5 41.5t8.5 34.5q-12 -3 -35 -3t-35 3q-12 -1 -23.5 -1.5t-22.5 -0.5q-120 0 -180 55t-60 153v15t1 15q0 106 64 167t192 61q9 2 22.5 3t27.5 1t27 -1t22 -3q-1 10 -1.5 23.5t-0.5 28.5t0.5 28.5t1.5 23.5
q18 3 44 4t53 1t53 -1t44 -4q1 -10 1.5 -23.5t0.5 -28.5t-0.5 -28.5t-1.5 -23.5q9 2 22 2h27h26.5t21.5 -2q11 1 21.5 1.5t20.5 0.5q109 0 162 -52t53 -145q0 -8 -0.5 -16.5t-1.5 -16.5q1 -8 1 -15v-15q0 -97 -59.5 -152.5t-180.5 -55.5q-10 0 -21.5 0.5t-22.5 1.5
q-6 -1 -15 -1.5t-19 -0.5t-19.5 0.5t-15.5 1.5q5 -32 5 -76t-5 -76zM590 551q-16 -4 -33 0q7 -31 10.5 -75.5t3.5 -91.5t-3.5 -91.5t-10.5 -75.5q17 4 33 0q47 6 79.5 46t41.5 122q-2 86 -34.5 125.5t-86.5 40.5zM329 217q17 2 34 0q0 31 -0.5 75.5t-0.5 91.5t0.5 91.5
t0.5 75.5q-17 -2 -34 0q-43 -8 -77 -47.5t-45 -118.5q7 -83 41 -123t81 -45z" />
    <glyph glyph-name="otilde" unicode="&#xf5;" horiz-adv-x="595" 
d="M340 485q8 25 24 57.5t34.5 65.5t39 62.5t37.5 49.5q8 2 19.5 3t23.5 1t24 -1t20 -3q-16 -29 -40 -70t-49.5 -84.5t-49.5 -84.5t-41 -70q31 -33 65 -85t65 -109.5t55.5 -115t35.5 -101.5q-21 -3 -51 -4t-62 -1t-61.5 1t-50.5 4q-16 22 -35 54.5t-37.5 68t-34.5 70.5
t-25 60q-11 -25 -29.5 -59.5t-39.5 -70t-42 -68.5t-37 -55q-9 -2 -21 -2h-25h-24.5t-20.5 2q11 36 33 82t50 92t58 87.5t56 67.5q-28 32 -60 82t-61.5 104.5t-53.5 109t-35 95.5q21 2 50.5 3t61.5 1t61 -1t50 -3q15 -20 33 -50.5t35.5 -63.5t32 -65t22.5 -56z" />
    <glyph glyph-name="otilde" unicode="&#x445;" horiz-adv-x="595" 
d="M340 485q8 25 24 57.5t34.5 65.5t39 62.5t37.5 49.5q8 2 19.5 3t23.5 1t24 -1t20 -3q-16 -29 -40 -70t-49.5 -84.5t-49.5 -84.5t-41 -70q31 -33 65 -85t65 -109.5t55.5 -115t35.5 -101.5q-21 -3 -51 -4t-62 -1t-61.5 1t-50.5 4q-16 22 -35 54.5t-37.5 68t-34.5 70.5
t-25 60q-11 -25 -29.5 -59.5t-39.5 -70t-42 -68.5t-37 -55q-9 -2 -21 -2h-25h-24.5t-20.5 2q11 36 33 82t50 92t58 87.5t56 67.5q-28 32 -60 82t-61.5 104.5t-53.5 109t-35 95.5q21 2 50.5 3t61.5 1t61 -1t50 -3q15 -20 33 -50.5t35.5 -63.5t32 -65t22.5 -56z" />
    <glyph glyph-name="odieresis" unicode="&#xf6;" horiz-adv-x="686" 
d="M261 720q12 -61 18.5 -146.5t6.5 -177.5t-6.5 -177.5t-18.5 -146.5q15 3 35 5t42 2t42.5 -2t35.5 -5q0 61 -0.5 146.5t-0.5 177.5t0.5 177.5t0.5 146.5q19 4 45.5 7t54.5 3q59 0 101 -10q7 -61 11.5 -146.5t4.5 -177.5t-4.5 -177.5t-11.5 -146.5q6 2 15.5 2h19.5h19
t15 -2q2 -16 3 -38.5t1 -45.5t-1 -45t-3 -38q-12 -7 -34 -17t-35 -15q-6 24 -6 63q0 40 6 64q-53 -12 -126.5 -18t-152.5 -6t-152.5 6t-126.5 18q-6 68 -9 163.5t-3 196.5t3 196.5t9 163.5q19 3 46 4.5t55 1.5t55 -1.5t46 -4.5z" />
    <glyph glyph-name="odieresis" unicode="&#x446;" horiz-adv-x="686" 
d="M261 720q12 -61 18.5 -146.5t6.5 -177.5t-6.5 -177.5t-18.5 -146.5q15 3 35 5t42 2t42.5 -2t35.5 -5q0 61 -0.5 146.5t-0.5 177.5t0.5 177.5t0.5 146.5q19 4 45.5 7t54.5 3q59 0 101 -10q7 -61 11.5 -146.5t4.5 -177.5t-4.5 -177.5t-11.5 -146.5q6 2 15.5 2h19.5h19
t15 -2q2 -16 3 -38.5t1 -45.5t-1 -45t-3 -38q-12 -7 -34 -17t-35 -15q-6 24 -6 63q0 40 6 64q-53 -12 -126.5 -18t-152.5 -6t-152.5 6t-126.5 18q-6 68 -9 163.5t-3 196.5t3 196.5t9 163.5q19 3 46 4.5t55 1.5t55 -1.5t46 -4.5z" />
    <glyph glyph-name="divide" unicode="&#xf7;" horiz-adv-x="636" 
d="M375 374q-7 32 -10 78t-3 95t3 95t10 78q19 4 46 6.5t55 2.5t54.5 -2.5t45.5 -6.5q0 -68 0.5 -163.5t0.5 -196.5t-0.5 -196.5t-0.5 -163.5q-19 -4 -45.5 -7t-54.5 -3q-59 0 -101 10q-4 28 -5.5 68.5t-1.5 83.5t1.5 83.5t5.5 69.5q-14 -5 -35.5 -8t-40.5 -3h-11.5t-10.5 1
q-8 0 -15.5 -0.5t-15.5 -0.5q-64 0 -106.5 11.5t-68 35.5t-36.5 60.5t-11 85.5v22q-2 19 -3 47t-1 58t1 58t3 48q18 4 44.5 6.5t53.5 2.5t53 -2.5t44 -6.5q5 -20 7 -47.5t2 -56.5t-2 -56.5t-7 -46.5q2 -86 24 -115.5t68 -30.5q16 2 33.5 4.5t30.5 2.5z" />
    <glyph glyph-name="divide" unicode="&#x447;" horiz-adv-x="636" 
d="M375 374q-7 32 -10 78t-3 95t3 95t10 78q19 4 46 6.5t55 2.5t54.5 -2.5t45.5 -6.5q0 -68 0.5 -163.5t0.5 -196.5t-0.5 -196.5t-0.5 -163.5q-19 -4 -45.5 -7t-54.5 -3q-59 0 -101 10q-4 28 -5.5 68.5t-1.5 83.5t1.5 83.5t5.5 69.5q-14 -5 -35.5 -8t-40.5 -3h-11.5t-10.5 1
q-8 0 -15.5 -0.5t-15.5 -0.5q-64 0 -106.5 11.5t-68 35.5t-36.5 60.5t-11 85.5v22q-2 19 -3 47t-1 58t1 58t3 48q18 4 44.5 6.5t53.5 2.5t53 -2.5t44 -6.5q5 -20 7 -47.5t2 -56.5t-2 -56.5t-7 -46.5q2 -86 24 -115.5t68 -30.5q16 2 33.5 4.5t30.5 2.5z" />
    <glyph glyph-name="oslash" unicode="&#xf8;" horiz-adv-x="899" 
d="M485 72q30 6 77 6q22 0 42.5 -1.5t35.5 -4.5q-15 61 -22 146.5t-7 177.5t7 177.5t22 146.5h200q18 -68 26.5 -163.5t8.5 -196.5t-8.5 -196.5t-26.5 -163.5q-74 -9 -177 -14t-213 -5t-213 5t-177 14q-10 68 -15 163.5t-5 196.5t5 196.5t15 163.5q19 2 45.5 3t55.5 1
t55.5 -1t45.5 -3q8 -61 11 -146.5t3 -177.5t-3 -177.5t-11 -146.5q30 8 77 8t77 -8q-12 52 -18 126.5t-6 152.5t6 152.5t18 126.5q6 1 15 1.5t19 0.5t19.5 -0.5t15.5 -1.5q9 -52 13 -126.5t4 -152.5t-4 -152.5t-13 -126.5z" />
    <glyph glyph-name="oslash" unicode="&#x448;" horiz-adv-x="899" 
d="M485 72q30 6 77 6q22 0 42.5 -1.5t35.5 -4.5q-15 61 -22 146.5t-7 177.5t7 177.5t22 146.5h200q18 -68 26.5 -163.5t8.5 -196.5t-8.5 -196.5t-26.5 -163.5q-74 -9 -177 -14t-213 -5t-213 5t-177 14q-10 68 -15 163.5t-5 196.5t5 196.5t15 163.5q19 2 45.5 3t55.5 1
t55.5 -1t45.5 -3q8 -61 11 -146.5t3 -177.5t-3 -177.5t-11 -146.5q30 8 77 8t77 -8q-12 52 -18 126.5t-6 152.5t6 152.5t18 126.5q6 1 15 1.5t19 0.5t19.5 -0.5t15.5 -1.5q9 -52 13 -126.5t4 -152.5t-4 -152.5t-13 -126.5z" />
    <glyph glyph-name="ugrave" unicode="&#xf9;" horiz-adv-x="909" 
d="M485 72q15 4 35 6t42 2t42.5 -2t35.5 -6q-4 61 -6.5 146.5t-2.5 177.5t2.5 177.5t6.5 146.5q39 14 100 14t100 -14q24 -61 35.5 -146.5t11.5 -177.5t-11.5 -177.5t-35.5 -146.5q12 3 34 3q23 0 35 -3q4 -16 5.5 -38.5t1.5 -45.5t-1.5 -45t-5.5 -38q-13 -6 -34.5 -16
t-34.5 -16q-6 24 -6 63q0 40 6 64q-74 -9 -177 -14t-213 -5t-213 5t-177 14q-10 68 -15 163.5t-5 196.5t5 196.5t15 163.5q19 2 45.5 3t55.5 1t55.5 -1t45.5 -3q8 -61 11 -146.5t3 -177.5t-3 -177.5t-11 -146.5q30 8 77 8t77 -8q-12 52 -18 126.5t-6 152.5t6 152.5t18 126.5
q6 1 15 1.5t19 0.5t19.5 -0.5t15.5 -1.5q9 -52 13 -126.5t4 -152.5t-4 -152.5t-13 -126.5z" />
    <glyph glyph-name="ugrave" unicode="&#x449;" horiz-adv-x="909" 
d="M485 72q15 4 35 6t42 2t42.5 -2t35.5 -6q-4 61 -6.5 146.5t-2.5 177.5t2.5 177.5t6.5 146.5q39 14 100 14t100 -14q24 -61 35.5 -146.5t11.5 -177.5t-11.5 -177.5t-35.5 -146.5q12 3 34 3q23 0 35 -3q4 -16 5.5 -38.5t1.5 -45.5t-1.5 -45t-5.5 -38q-13 -6 -34.5 -16
t-34.5 -16q-6 24 -6 63q0 40 6 64q-74 -9 -177 -14t-213 -5t-213 5t-177 14q-10 68 -15 163.5t-5 196.5t5 196.5t15 163.5q19 2 45.5 3t55.5 1t55.5 -1t45.5 -3q8 -61 11 -146.5t3 -177.5t-3 -177.5t-11 -146.5q30 8 77 8t77 -8q-12 52 -18 126.5t-6 152.5t6 152.5t18 126.5
q6 1 15 1.5t19 0.5t19.5 -0.5t15.5 -1.5q9 -52 13 -126.5t4 -152.5t-4 -152.5t-13 -126.5z" />
    <glyph glyph-name="uacute" unicode="&#xfa;" horiz-adv-x="711" 
d="M-7 720q33 4 78.5 7t94.5 3t95 -3t79 -7q3 -28 4 -67t1 -81t-1 -81t-4 -67q7 2 16 3t19 1t19 -1t16 -3q8 1 16 1h16q262 0 252 -214q6 -217 -255 -211q-29 -8 -68.5 -12t-82.5 -4t-82.5 4t-68.5 12q-23 61 -35 146.5t-12 177.5t12 177.5t35 146.5h-144q-3 7 -4 16.5
t-1 19.5t1 19.5t4 16.5zM340 359q2 -27 2.5 -66.5t0.5 -80.5t-0.5 -80.5t-2.5 -66.5q9 3 22 3q14 0 23 -3q107 3 110 142q-9 146 -110 152q-9 -3 -23 -3q-13 0 -22 3z" />
    <glyph glyph-name="uacute" unicode="&#x44a;" horiz-adv-x="711" 
d="M-7 720q33 4 78.5 7t94.5 3t95 -3t79 -7q3 -28 4 -67t1 -81t-1 -81t-4 -67q7 2 16 3t19 1t19 -1t16 -3q8 1 16 1h16q262 0 252 -214q6 -217 -255 -211q-29 -8 -68.5 -12t-82.5 -4t-82.5 4t-68.5 12q-23 61 -35 146.5t-12 177.5t12 177.5t35 146.5h-144q-3 7 -4 16.5
t-1 19.5t1 19.5t4 16.5zM340 359q2 -27 2.5 -66.5t0.5 -80.5t-0.5 -80.5t-2.5 -66.5q9 3 22 3q14 0 23 -3q107 3 110 142q-9 146 -110 152q-9 -3 -23 -3q-13 0 -22 3z" />
    <glyph glyph-name="ucircumflex" unicode="&#xfb;" horiz-adv-x="938" 
d="M60 720q19 6 45.5 8.5t55.5 2.5t55.5 -2.5t45.5 -8.5q8 -59 8 -148t-8 -148q7 0 16 0.5t19 0.5t19 -0.5t16 -0.5q17 2 33.5 3t32.5 1q220 0 220 -183q0 -8 -0.5 -16.5t-1.5 -17.5q3 -23 3 -44q0 -172 -192 -172q-16 0 -32.5 1.5t-34.5 3.5h-300q-27 68 -40.5 163.5
t-13.5 196.5t13.5 196.5t40.5 163.5zM262 359q2 -27 2.5 -66.5t0.5 -80.5t-0.5 -80.5t-2.5 -66.5q4 1 10 1h12h12t11 -1q89 17 110 142q-9 146 -110 152q-5 0 -11 -0.5t-12 -0.5t-12 0.5t-10 0.5zM677 0q-3 68 -5 163.5t-2 196.5t2 196.5t5 163.5q19 2 46 2h55h54.5t45.5 -2
q4 -68 6 -163.5t2 -196.5t-2 -196.5t-6 -163.5q-19 -8 -45.5 -11.5t-54.5 -3.5t-55 3.5t-46 11.5z" />
    <glyph glyph-name="ucircumflex" unicode="&#x44b;" horiz-adv-x="938" 
d="M60 720q19 6 45.5 8.5t55.5 2.5t55.5 -2.5t45.5 -8.5q8 -59 8 -148t-8 -148q7 0 16 0.5t19 0.5t19 -0.5t16 -0.5q17 2 33.5 3t32.5 1q220 0 220 -183q0 -8 -0.5 -16.5t-1.5 -17.5q3 -23 3 -44q0 -172 -192 -172q-16 0 -32.5 1.5t-34.5 3.5h-300q-27 68 -40.5 163.5
t-13.5 196.5t13.5 196.5t40.5 163.5zM262 359q2 -27 2.5 -66.5t0.5 -80.5t-0.5 -80.5t-2.5 -66.5q4 1 10 1h12h12t11 -1q89 17 110 142q-9 146 -110 152q-5 0 -11 -0.5t-12 -0.5t-12 0.5t-10 0.5zM677 0q-3 68 -5 163.5t-2 196.5t2 196.5t5 163.5q19 2 46 2h55h54.5t45.5 -2
q4 -68 6 -163.5t2 -196.5t-2 -196.5t-6 -163.5q-19 -8 -45.5 -11.5t-54.5 -3.5t-55 3.5t-46 11.5z" />
    <glyph glyph-name="udieresis" unicode="&#xfc;" horiz-adv-x="631" 
d="M59 720q19 6 46 8.5t55 2.5t55 -2.5t46 -8.5q4 -28 5.5 -67t1.5 -81t-1.5 -81t-5.5 -67q6 0 15.5 0.5t19.5 0.5t19.5 -0.5t15.5 -0.5q17 2 33.5 3t32.5 1q220 0 220 -183q0 -8 -0.5 -16.5t-1.5 -17.5q3 -23 3 -44q0 -172 -192 -172q-16 0 -32.5 1.5t-34.5 3.5h-300
q-27 68 -40.5 163.5t-13.5 196.5t13.5 196.5t40.5 163.5zM261 359q1 -27 2 -66.5t1 -80.5t-1 -80.5t-2 -66.5q5 1 11 1h12h12t10 -1q89 17 110 142q-9 146 -110 152q-4 0 -10 -0.5t-12 -0.5t-12 0.5t-11 0.5z" />
    <glyph glyph-name="udieresis" unicode="&#x44c;" horiz-adv-x="631" 
d="M59 720q19 6 46 8.5t55 2.5t55 -2.5t46 -8.5q4 -28 5.5 -67t1.5 -81t-1.5 -81t-5.5 -67q6 0 15.5 0.5t19.5 0.5t19.5 -0.5t15.5 -0.5q17 2 33.5 3t32.5 1q220 0 220 -183q0 -8 -0.5 -16.5t-1.5 -17.5q3 -23 3 -44q0 -172 -192 -172q-16 0 -32.5 1.5t-34.5 3.5h-300
q-27 68 -40.5 163.5t-13.5 196.5t13.5 196.5t40.5 163.5zM261 359q1 -27 2 -66.5t1 -80.5t-1 -80.5t-2 -66.5q5 1 11 1h12h12t10 -1q89 17 110 142q-9 146 -110 152q-4 0 -10 -0.5t-12 -0.5t-12 0.5t-11 0.5z" />
    <glyph glyph-name="yacute" unicode="&#xfd;" horiz-adv-x="624" 
d="M240 359q0 6 -0.5 15t-0.5 18t0.5 17.5t0.5 14.5q14 1 33 1.5t39 0.5t39 -0.5t32 -1.5q-2 69 -12.5 116t-27.5 76.5t-40 43t-50 14.5q-102 -18 -123 -137q1 -9 2 -21t1 -28q-17 4 -45 14t-44 18q-3 22 -3 44q0 76 45.5 123.5t136.5 47.5q23 0 48 -3q7 0 13.5 0.5
t12.5 0.5q145 0 222 -89.5t77 -255.5v-20t-1 -20q0 -8 0.5 -15t0.5 -14q0 -344 -310 -332q-12 -1 -23 -1.5t-22 -0.5q-58 0 -100.5 15t-70 40.5t-40.5 58t-13 68.5q0 7 0.5 14t1.5 14q0 5 -0.5 10.5t-0.5 11.5t0.5 11.5t0.5 10.5q16 6 42.5 14.5t43.5 12.5q0 -50 -7 -70
q10 -59 50 -99.5t92 -51.5q75 0 109 81t34 233q-28 -11 -71 -11q-44 0 -72 11z" />
    <glyph glyph-name="yacute" unicode="&#x44d;" horiz-adv-x="624" 
d="M240 359q0 6 -0.5 15t-0.5 18t0.5 17.5t0.5 14.5q14 1 33 1.5t39 0.5t39 -0.5t32 -1.5q-2 69 -12.5 116t-27.5 76.5t-40 43t-50 14.5q-102 -18 -123 -137q1 -9 2 -21t1 -28q-17 4 -45 14t-44 18q-3 22 -3 44q0 76 45.5 123.5t136.5 47.5q23 0 48 -3q7 0 13.5 0.5
t12.5 0.5q145 0 222 -89.5t77 -255.5v-20t-1 -20q0 -8 0.5 -15t0.5 -14q0 -344 -310 -332q-12 -1 -23 -1.5t-22 -0.5q-58 0 -100.5 15t-70 40.5t-40.5 58t-13 68.5q0 7 0.5 14t1.5 14q0 5 -0.5 10.5t-0.5 11.5t0.5 11.5t0.5 10.5q16 6 42.5 14.5t43.5 12.5q0 -50 -7 -70
q10 -59 50 -99.5t92 -51.5q75 0 109 81t34 233q-28 -11 -71 -11q-44 0 -72 11z" />
    <glyph glyph-name="thorn" unicode="&#xfe;" horiz-adv-x="945" 
d="M59 0q-11 68 -15.5 163.5t-4.5 196.5t4.5 196.5t15.5 163.5q19 8 46 11.5t55 3.5t55 -3.5t46 -11.5q5 -28 6.5 -67t1.5 -81t-1.5 -81t-6.5 -67q7 1 17.5 1.5t21.5 0.5t21.5 -0.5t17.5 -1.5v26q0 284 238 284q24 0 51 -3q6 0 12 0.5t11 0.5q269 0 269 -331v-20.5t-1 -20.5
v-22q0 -357 -291 -350q-13 -2 -25 -2h-23q-248 0 -248 290q0 20 1 40.5t3 42.5q-8 -3 -18 -4t-20 -1q-24 0 -37 5v-359q-19 -8 -46 -11.5t-55 -3.5t-55 3.5t-46 11.5zM628 673q-73 -2 -80 -313q8 -312 80 -314q32 12 79 314q-7 312 -79 313z" />
    <glyph glyph-name="thorn" unicode="&#x44e;" horiz-adv-x="945" 
d="M59 0q-11 68 -15.5 163.5t-4.5 196.5t4.5 196.5t15.5 163.5q19 8 46 11.5t55 3.5t55 -3.5t46 -11.5q5 -28 6.5 -67t1.5 -81t-1.5 -81t-6.5 -67q7 1 17.5 1.5t21.5 0.5t21.5 -0.5t17.5 -1.5v26q0 284 238 284q24 0 51 -3q6 0 12 0.5t11 0.5q269 0 269 -331v-20.5t-1 -20.5
v-22q0 -357 -291 -350q-13 -2 -25 -2h-23q-248 0 -248 290q0 20 1 40.5t3 42.5q-8 -3 -18 -4t-20 -1q-24 0 -37 5v-359q-19 -8 -46 -11.5t-55 -3.5t-55 3.5t-46 11.5zM628 673q-73 -2 -80 -313q8 -312 80 -314q32 12 79 314q-7 312 -79 313z" />
    <glyph glyph-name="ydieresis" unicode="&#xff;" horiz-adv-x="658" 
d="M597 0q-19 -8 -45 -11.5t-55 -3.5t-55 3.5t-45 11.5q-1 30 -2.5 72.5t-1.5 87.5t1.5 87.5t2.5 72.5q-17 -2 -34 0q-44 -8 -67.5 -31t-31.5 -67q3 -18 3 -49t-3 -49q0 -5 0.5 -10.5t0.5 -10.5q0 -31 -5.5 -56t-16.5 -47q-45 -13 -110 -13t-110 13q13 20 24.5 60t15.5 100
q-2 86 25 127t105 58q-64 7 -103.5 45t-39.5 100q0 6 0.5 12.5t1.5 13.5q-3 21 -3 40q0 76 46.5 122t146.5 46q14 0 28 -1t30 -3h297q27 -68 40.5 -163.5t13.5 -196.5t-13.5 -196.5t-40.5 -163.5zM397 379q-1 25 -2.5 61.5t-1.5 75.5t1.5 75.5t2.5 62.5q-5 -1 -10 -1.5
t-11 -0.5t-11 0.5t-10 1.5q-55 -1 -84 -38.5t-30 -99.5q1 -61 30 -98.5t84 -38.5q5 0 10 0.5t11 0.5t11 -0.5t10 -0.5z" />
    <glyph glyph-name="ydieresis" unicode="&#x44f;" horiz-adv-x="658" 
d="M597 0q-19 -8 -45 -11.5t-55 -3.5t-55 3.5t-45 11.5q-1 30 -2.5 72.5t-1.5 87.5t1.5 87.5t2.5 72.5q-17 -2 -34 0q-44 -8 -67.5 -31t-31.5 -67q3 -18 3 -49t-3 -49q0 -5 0.5 -10.5t0.5 -10.5q0 -31 -5.5 -56t-16.5 -47q-45 -13 -110 -13t-110 13q13 20 24.5 60t15.5 100
q-2 86 25 127t105 58q-64 7 -103.5 45t-39.5 100q0 6 0.5 12.5t1.5 13.5q-3 21 -3 40q0 76 46.5 122t146.5 46q14 0 28 -1t30 -3h297q27 -68 40.5 -163.5t13.5 -196.5t-13.5 -196.5t-40.5 -163.5zM397 379q-1 25 -2.5 61.5t-1.5 75.5t1.5 75.5t2.5 62.5q-5 -1 -10 -1.5
t-11 -0.5t-11 0.5t-10 1.5q-55 -1 -84 -38.5t-30 -99.5q1 -61 30 -98.5t84 -38.5q5 0 10 0.5t11 0.5t11 -0.5t10 -0.5z" />
    <glyph glyph-name="afii10023" unicode="&#x401;" horiz-adv-x="555" 
d="M59 0q-5 68 -6.5 163.5t-1.5 196.5t1.5 196.5t6.5 163.5q42 8 102 12t123 4t123.5 -4t102.5 -12q1 -7 1.5 -16.5t0.5 -19.5t-0.5 -19.5t-1.5 -16.5q-49 -19 -124 -19q-35 0 -68.5 5t-56.5 14q7 -21 10 -50t3 -60t-3 -59.5t-10 -49.5q19 3 47.5 4t57.5 1t56.5 -1t47.5 -4
v-71q-20 0 -47.5 -0.5t-56.5 -0.5t-57.5 0.5t-47.5 0.5q7 -27 11 -64.5t4 -78.5t-4 -78.5t-11 -64.5q27 6 66 9t79 3t79.5 -3t66.5 -9q1 -7 1.5 -16.5t0.5 -19.5t-0.5 -19.5t-1.5 -16.5q-46 -6 -111.5 -9t-134.5 -3t-134.5 3t-112.5 9zM172 866q87 8 83 -58q6 -59 -61 -59
h-10.5t-11.5 1q-5 -1 -10.5 -1h-9.5q-68 0 -62 59q-4 64 82 58zM403 866q82 1 81 -58q4 -64 -81 -58q-90 -7 -84 58q-7 60 59 60q6 0 12 -0.5t13 -1.5z" />
    <glyph glyph-name="afii10071" unicode="&#x451;" horiz-adv-x="555" 
d="M59 0q-5 68 -6.5 163.5t-1.5 196.5t1.5 196.5t6.5 163.5q42 8 102 12t123 4t123.5 -4t102.5 -12q1 -7 1.5 -16.5t0.5 -19.5t-0.5 -19.5t-1.5 -16.5q-49 -19 -124 -19q-35 0 -68.5 5t-56.5 14q7 -21 10 -50t3 -60t-3 -59.5t-10 -49.5q19 3 47.5 4t57.5 1t56.5 -1t47.5 -4
v-71q-20 0 -47.5 -0.5t-56.5 -0.5t-57.5 0.5t-47.5 0.5q7 -27 11 -64.5t4 -78.5t-4 -78.5t-11 -64.5q27 6 66 9t79 3t79.5 -3t66.5 -9q1 -7 1.5 -16.5t0.5 -19.5t-0.5 -19.5t-1.5 -16.5q-46 -6 -111.5 -9t-134.5 -3t-134.5 3t-112.5 9zM172 866q87 8 83 -58q6 -59 -61 -59
h-10.5t-11.5 1q-5 -1 -10.5 -1h-9.5q-68 0 -62 59q-4 64 82 58zM403 866q82 1 81 -58q4 -64 -81 -58q-90 -7 -84 58q-7 60 59 60q6 0 12 -0.5t13 -1.5z" />
    <glyph glyph-name="endash" unicode="&#x2013;" horiz-adv-x="512" 
d="M16 206q-6 26 -6 69t6 69q45 3 108.5 4.5t131.5 1.5t131.5 -1.5t108.5 -4.5q3 -13 4 -31.5t1 -37.5t-1 -37.5t-4 -31.5q-45 -14 -108.5 -20.5t-131.5 -6.5t-131.5 6.5t-108.5 20.5z" />
    <glyph glyph-name="emdash" unicode="&#x2014;" horiz-adv-x="780" 
d="M15 206q-6 26 -6 69t6 69q71 4 170 7t205 3t205 -3t170 -7q3 -13 4 -31.5t1 -37.5t-1 -37.5t-4 -31.5q-71 -21 -170 -31.5t-205 -10.5t-205 10.5t-170 31.5z" />
    <glyph glyph-name="quoteleft" unicode="&#x2018;" horiz-adv-x="269" 
d="M198 731v-66q-43 -30 -56 -81q86 7 79 -90q3 -96 -88 -93q-93 -6 -85 110q-3 23 -3 43q0 148 153 177z" />
    <glyph glyph-name="quoteright" unicode="&#x2019;" horiz-adv-x="269" 
d="M71 401v66q41 28 58 81q-88 -8 -80 89q-3 96 88 93q92 6 84 -110q3 -22 3 -43q0 -149 -153 -176z" />
    <glyph glyph-name="FLW130" unicode="&#x201a;" horiz-adv-x="288" 
d="M82 -148v68q41 29 56 80q-88 -8 -80 90q-3 96 88 93q95 6 86 -111q3 -22 3 -43q0 -148 -153 -177z" />
    <glyph glyph-name="quotedblleft" unicode="&#x201c;" horiz-adv-x="484" 
d="M198 731v-66q-43 -30 -56 -81q86 7 79 -90q3 -96 -88 -93q-93 -6 -85 110q-3 23 -3 43q0 148 153 177zM414 731q2 -6 2 -15v-18v-18t-2 -15q-35 -35 -56 -81q82 3 78 -90q4 -96 -87 -93q-88 -11 -88 81q0 7 0.5 14.5t1.5 14.5q-2 13 -3 26t-1 25q0 145 155 169z" />
    <glyph glyph-name="quotedblright" unicode="&#x201d;" horiz-adv-x="484" 
d="M71 401v66q42 29 57 81q-87 -7 -79 89q-3 96 88 93q92 6 84 -110q3 -22 3 -43q0 -149 -153 -176zM287 401q-1 6 -1.5 15t-0.5 18t0.5 18t1.5 15q35 35 57 81q-85 -3 -80 89q-4 96 88 93q88 11 88 -81q0 -7 -0.5 -14t-1.5 -15q2 -14 3 -26.5t1 -24.5q0 -146 -155 -168z
" />
    <glyph glyph-name="quotedblbase" unicode="&#x201e;" horiz-adv-x="484" 
d="M71 -148v68q42 27 57 80q-86 -7 -79 90q-3 96 88 93q93 6 84 -111q3 -22 3 -43q0 -149 -153 -177zM287 -148q-1 6 -1.5 15t-0.5 19t0.5 19t1.5 15q34 33 57 80q-85 -3 -80 90q-4 96 88 93q88 11 88 -82q0 -7 -0.5 -14t-1.5 -15q2 -14 3 -26.5t1 -24.5q0 -145 -155 -169z
" />
    <glyph glyph-name="FLW134" unicode="&#x2020;" horiz-adv-x="618" 
d="M218 720h181v-222h159v-82h-159v-497h-181v497h-160v82h160v222z" />
    <glyph glyph-name="bullet" unicode="&#x2022;" horiz-adv-x="300" 
d="M151 516q34 3 62.5 -7t49 -30.5t30.5 -49.5t7 -63q1 -32 -10.5 -59.5t-31.5 -48t-48 -32t-59 -10.5q-34 -3 -62.5 7.5t-49 31t-31.5 49t-8 62.5q-4 35 6 64.5t30.5 49.5t50 30t64.5 6z" />
    <glyph glyph-name="FLW133" unicode="&#x2026;" horiz-adv-x="866" 
d="M144 175q95 7 88 -93q3 -96 -88 -93q-94 -6 -87 93q-11 102 87 93zM433 175q87 11 87 -72v-10t-1 -11q1 -6 1.5 -12t0.5 -11q0 -81 -88 -70q-88 0 -88 93q-1 94 88 93zM721 175q94 6 86 -93q9 -102 -86 -93q-91 -5 -87 93q-4 96 87 93z" />
    <glyph glyph-name="perthousand" unicode="&#x2030;" horiz-adv-x="1171" 
d="M197 726q5 1 10.5 1h10.5q136 0 136 -154v-16t-1 -17q5 -190 -156 -186q-158 -10 -158 158v13.5t1 14.5q-1 10 -1.5 20.5t-0.5 20.5q0 146 131 146h14t14 -1zM197 694q-18 -5 -39 -154q21 -149 39 -155q38 0 38 155q-3 152 -38 154zM605 720q-16 -74 -51.5 -172.5
t-80 -199.5t-93 -193.5t-92.5 -154.5q-7 -2 -16 -3t-19 -1t-19 1t-16 3q22 71 60 168.5t82.5 198.5t90 195t83.5 158q7 1 16.5 1.5t19.5 0.5t19 -0.5t16 -1.5zM625 365q161 3 157 -186q3 -23 3 -43q0 -144 -130 -144q-7 0 -15 0.5t-15 1.5q-159 -10 -159 155v15t1 15
q-1 7 -1 15v15q0 167 159 156zM625 335q-23 -4 -40 -156q1 -154 40 -154q37 0 38 154q-6 154 -38 156zM975 365q157 9 157 -158v-14t-1 -14q1 -7 1 -14v-14q0 -167 -157 -157q-9 -1 -17.5 -1.5t-16.5 -0.5q-126 0 -126 140q0 21 3 47q-1 7 -1 14v14q0 168 158 158zM975 335
q-35 -1 -39 -156q6 -152 39 -154q25 3 38 154q-4 154 -38 156z" />
    <glyph glyph-name="guilsinglleft" unicode="&#x2039;" horiz-adv-x="276" 
d="M229 485q-1 -23 -8.5 -52t-19.5 -58.5t-26.5 -56t-29.5 -42.5q8 -20 19 -48t23 -57.5t23 -57.5t19 -48q-9 -1 -22.5 -1h-27.5h-27.5t-22.5 1q-13 16 -27 40t-27 50.5t-23 52.5t-15 46q0 4 -0.5 10t-0.5 12t0.5 12t0.5 10q5 19 15.5 45t23.5 52t27 50t26 40q9 3 22.5 4
t27.5 1t27.5 -1t22.5 -4z" />
    <glyph glyph-name="guilsinglright" unicode="&#x203a;" horiz-adv-x="276" 
d="M47 65q5 21 15 49.5t21.5 58t24 57t22.5 46.5q-8 20 -19.5 47.5t-23 56.5t-22.5 57t-18 48h100q13 -15 28 -38.5t27.5 -50t22 -52.5t13.5 -46q2 -12 2 -22t-2 -22q-6 -19 -17.5 -44.5t-24 -52t-25.5 -51t-24 -41.5q-9 -1 -22.5 -1.5t-27.5 -0.5t-27.5 0.5t-22.5 1.5z" />
    <glyph glyph-name="afii61352" unicode="&#x2116;" horiz-adv-x="968" 
d="M486 228q-4 46 -7 111.5t-3 134.5t3 134.5t7 111.5q11 4 32 4q9 0 18 -1t15 -3q23 -68 33.5 -163.5t10.5 -196.5t-10.5 -196.5t-33.5 -163.5q-14 -2 -34 -3t-41 -1t-41.5 1t-34.5 3q-27 42 -64.5 102.5t-77 124.5t-76 125t-61.5 104q1 -43 1 -103.5v-124.5v-124.5
t-1 -103.5q-6 -2 -15 -3t-18 -1t-18.5 1t-15.5 3q-15 68 -22 163.5t-7 196.5t7 196.5t22 163.5q12 2 28.5 2h33.5h33.5t28.5 -2q35 -42 79 -105.5t87 -133t81 -136.5t61 -117zM770 513q8 1 16 1.5t16 0.5q132 0 132 -136q0 -8 -0.5 -16.5t-1.5 -17.5q1 -7 1 -13v-12
q0 -145 -140 -145h-11t-12 1q-165 -3 -162 169q-1 6 -1 11.5v10.5q0 147 142 147q5 0 10.5 -0.5t10.5 -0.5zM770 482q-18 -3 -32 -137q21 -132 32 -137q21 3 33 137q-17 133 -33 137zM628 44q-3 14 -3 35t3 35q27 3 64.5 5t77.5 2t78 -2t65 -5q0 -7 0.5 -16t0.5 -19
t-0.5 -19t-0.5 -16q-27 -6 -65 -8.5t-78 -2.5t-77.5 2.5t-64.5 8.5z" />
    <glyph glyph-name="trademark" unicode="&#x2122;" horiz-adv-x="804" 
d="M0 677v43h342v-43h-104v-367h-135v367h-103zM557 485l65 235h139v-410h-132v247h-3l-69 -247h-71l-72 247h-3v-247h-48v410h128z" />
    <glyph glyph-name="periodcentered" unicode="&#x2219;" horiz-adv-x="288" 
d="M144 408q97 9 88 -84q6 -90 -88 -83q-90 -3 -87 83q-5 88 87 84z" />
    </font>
</defs>
</svg>
